%TF.GenerationSoftware,KiCad,Pcbnew,9.0.0*%
%TF.CreationDate,2025-07-21T10:24:21-07:00*%
%TF.ProjectId,chordlet,63686f72-646c-4657-942e-6b696361645f,rev?*%
%TF.SameCoordinates,Original*%
%TF.FileFunction,Paste,Top*%
%TF.FilePolarity,Positive*%
%FSLAX46Y46*%
G04 Gerber Fmt 4.6, Leading zero omitted, Abs format (unit mm)*
G04 Created by KiCad (PCBNEW 9.0.0) date 2025-07-21 10:24:21*
%MOMM*%
%LPD*%
G01*
G04 APERTURE LIST*
G04 Aperture macros list*
%AMRoundRect*
0 Rectangle with rounded corners*
0 $1 Rounding radius*
0 $2 $3 $4 $5 $6 $7 $8 $9 X,Y pos of 4 corners*
0 Add a 4 corners polygon primitive as box body*
4,1,4,$2,$3,$4,$5,$6,$7,$8,$9,$2,$3,0*
0 Add four circle primitives for the rounded corners*
1,1,$1+$1,$2,$3*
1,1,$1+$1,$4,$5*
1,1,$1+$1,$6,$7*
1,1,$1+$1,$8,$9*
0 Add four rect primitives between the rounded corners*
20,1,$1+$1,$2,$3,$4,$5,0*
20,1,$1+$1,$4,$5,$6,$7,0*
20,1,$1+$1,$6,$7,$8,$9,0*
20,1,$1+$1,$8,$9,$2,$3,0*%
G04 Aperture macros list end*
%ADD10R,0.600000X1.550000*%
%ADD11R,1.200000X1.800000*%
%ADD12R,1.550000X0.600000*%
%ADD13R,1.800000X1.200000*%
%ADD14RoundRect,0.240000X-1.010000X0.360000X-1.010000X-0.360000X1.010000X-0.360000X1.010000X0.360000X0*%
%ADD15R,1.550000X1.000000*%
%ADD16RoundRect,0.125000X-0.125000X0.825000X-0.125000X-0.825000X0.125000X-0.825000X0.125000X0.825000X0*%
%ADD17RoundRect,0.250000X-0.450000X0.350000X-0.450000X-0.350000X0.450000X-0.350000X0.450000X0.350000X0*%
%ADD18R,1.000000X1.550000*%
G04 APERTURE END LIST*
D10*
%TO.C,J1*%
X211419000Y-89594000D03*
X212419000Y-89594000D03*
X213419000Y-89594000D03*
X214419000Y-89594000D03*
D11*
X210119000Y-93494000D03*
X215719000Y-93494000D03*
%TD*%
D12*
%TO.C,J2*%
X219244000Y-93250000D03*
X219244000Y-92250000D03*
X219244000Y-91250000D03*
X219244000Y-90250000D03*
D13*
X223144000Y-94550000D03*
X223144000Y-88950000D03*
%TD*%
D14*
%TO.C,SW5*%
X192800000Y-99500000D03*
X192800000Y-102000000D03*
X192800000Y-104500000D03*
%TD*%
D15*
%TO.C,SW3*%
X244675000Y-83675000D03*
X249925000Y-83675000D03*
X244675000Y-85375000D03*
X249925000Y-85375000D03*
%TD*%
D16*
%TO.C,U1*%
X207125000Y-90175000D03*
X206475000Y-90175000D03*
X205825000Y-90175000D03*
X205175000Y-90175000D03*
X204525000Y-90175000D03*
X203875000Y-90175000D03*
X203225000Y-90175000D03*
X202575000Y-90175000D03*
X201925000Y-90175000D03*
X201275000Y-90175000D03*
X201275000Y-97175000D03*
X201925000Y-97175000D03*
X202575000Y-97175000D03*
X203225000Y-97175000D03*
X203875000Y-97175000D03*
X204525000Y-97175000D03*
X205175000Y-97175000D03*
X205825000Y-97175000D03*
X206475000Y-97175000D03*
X207125000Y-97175000D03*
%TD*%
D17*
%TO.C,R2*%
X208235000Y-84400000D03*
X208235000Y-86400000D03*
%TD*%
%TO.C,R3*%
X194750000Y-90350000D03*
X194750000Y-92350000D03*
%TD*%
D15*
%TO.C,SW1*%
X211070000Y-83675000D03*
X216320000Y-83675000D03*
X211070000Y-85375000D03*
X216320000Y-85375000D03*
%TD*%
%TO.C,SW2*%
X227875000Y-83675000D03*
X233125000Y-83675000D03*
X227875000Y-85375000D03*
X233125000Y-85375000D03*
%TD*%
D17*
%TO.C,R1*%
X205275000Y-84400000D03*
X205275000Y-86400000D03*
%TD*%
D18*
%TO.C,SW4*%
X188850000Y-94775000D03*
X188850000Y-89525000D03*
X190550000Y-94775000D03*
X190550000Y-89525000D03*
%TD*%
D17*
%TO.C,R4*%
X202320000Y-84400000D03*
X202320000Y-86400000D03*
%TD*%
D15*
%TO.C,SW0*%
X194225000Y-83675000D03*
X199475000Y-83675000D03*
X194225000Y-85375000D03*
X199475000Y-85375000D03*
%TD*%
M02*
