  0
SECTION
  2
HEADER
  9
$ANGBASE
  50
0.0
  9
$ANGDIR
  70
1
  9
$MEASUREMENT
  70
1
  0
ENDSEC
  0
SECTION
  2
TABLES
  0
TABLE
  2
LTYPE
  70
4
  0
LTYPE
  5
40F
  2
CONTINUOUS
  70
0
  3
Solid line
  72
65
  73
0
  40
0.0
  0
LTYPE
  5
410
  2
DASHDOT
 70
0
  3
Dash Dot ____ _ ____ _
 72
65
 73
4
 40
2.0
 49
1.25
 49
-0.25
 49
0.25
 49
-0.25
  0
LTYPE
  5
411
  2
DASHED
 70
0
  3
Dashed __ __ __ __ __
 72
65
 73
2
 40
0.75
 49
0.5
 49
-0.25
  0
LTYPE
  5
43B
  2
DOTTED
 70
0
  3
Dotted .  .  .  .
 72
65
 73
2
 40
0.2
 49
0.0
 49
-0.2
  0
ENDTAB
  0
TABLE
  2
STYLE
  70
4
  0
STYLE
  2
KICAD
  70
0
  40
0
  41
1
  42
1
  50
0
  71
0
  3
isocp.shx
  0
STYLE
  2
KICADB
  70
0
  40
0
  41
1
  42
1
  50
0
  71
0
  3
isocp.shx
  0
STYLE
  2
KICADI
  70
0
  40
0
  41
1
  42
1
  50
15
  71
0
  3
isocp.shx
  0
STYLE
  2
KICADBI
  70
0
  40
0
  41
1
  42
1
  50
15
  71
0
  3
isocp.shx
  0
ENDTAB
  0
TABLE
  2
LAYER
  70
1
  0
LAYER
  2
BLACK
  70
0
  62
7
  6
CONTINUOUS
  0
ENDTAB
  0
ENDSEC
  0
SECTION
  2
ENTITIES
0
LINE
8
BLACK
6
CONTINUOUS
10
190.2222079999999949
20
-103.0842540000000014
11
190.3239429999999857
21
-103.142990999999995
0
LINE
8
BLACK
6
CONTINUOUS
10
190.3239429999999857
20
-103.142990999999995
11
190.407008999999988
21
-103.2260569999999973
0
LINE
8
BLACK
6
CONTINUOUS
10
190.407008999999988
20
-103.2260569999999973
11
190.4657459999999958
21
-103.3277920000000023
0
LINE
8
BLACK
6
CONTINUOUS
10
190.4657459999999958
20
-103.3277920000000023
11
190.4961500000000001
21
-103.4412629999999922
0
LINE
8
BLACK
6
CONTINUOUS
10
190.4961500000000001
20
-103.4412629999999922
11
190.4961500000000001
21
-103.5587369999999936
0
LINE
8
BLACK
6
CONTINUOUS
10
190.4961500000000001
20
-103.5587369999999936
11
190.4657459999999958
21
-103.6722079999999977
0
LINE
8
BLACK
6
CONTINUOUS
10
190.4657459999999958
20
-103.6722079999999977
11
190.407008999999988
21
-103.7739429999999885
0
LINE
8
BLACK
6
CONTINUOUS
10
190.407008999999988
20
-103.7739429999999885
11
190.3239429999999857
21
-103.8570089999999908
0
LINE
8
BLACK
6
CONTINUOUS
10
190.3239429999999857
20
-103.8570089999999908
11
190.2222079999999949
21
-103.9157459999999986
0
LINE
8
BLACK
6
CONTINUOUS
10
190.2222079999999949
20
-103.9157459999999986
11
190.1087369999999908
21
-103.9461499999999887
0
LINE
8
BLACK
6
CONTINUOUS
10
190.1087369999999908
20
-103.9461499999999887
11
189.9912630000000036
21
-103.9461499999999887
0
LINE
8
BLACK
6
CONTINUOUS
10
189.9912630000000036
20
-103.9461499999999887
11
189.8777919999999995
21
-103.9157459999999986
0
LINE
8
BLACK
6
CONTINUOUS
10
189.8777919999999995
20
-103.9157459999999986
11
189.7760569999999802
21
-103.8570089999999908
0
LINE
8
BLACK
6
CONTINUOUS
10
189.7760569999999802
20
-103.8570089999999908
11
189.6929909999999779
21
-103.7739429999999885
0
LINE
8
BLACK
6
CONTINUOUS
10
189.6929909999999779
20
-103.7739429999999885
11
189.6342539999999985
21
-103.6722079999999977
0
LINE
8
BLACK
6
CONTINUOUS
10
189.6342539999999985
20
-103.6722079999999977
11
189.6038499999999942
21
-103.5587369999999936
0
LINE
8
BLACK
6
CONTINUOUS
10
189.6038499999999942
20
-103.5587369999999936
11
189.6038499999999942
21
-103.4412629999999922
0
LINE
8
BLACK
6
CONTINUOUS
10
189.6038499999999942
20
-103.4412629999999922
11
189.6342539999999985
21
-103.3277920000000023
0
LINE
8
BLACK
6
CONTINUOUS
10
189.6342539999999985
20
-103.3277920000000023
11
189.6929909999999779
21
-103.2260569999999973
0
LINE
8
BLACK
6
CONTINUOUS
10
189.6929909999999779
20
-103.2260569999999973
11
189.7760569999999802
21
-103.142990999999995
0
LINE
8
BLACK
6
CONTINUOUS
10
189.7760569999999802
20
-103.142990999999995
11
189.8777919999999995
21
-103.0842540000000014
0
LINE
8
BLACK
6
CONTINUOUS
10
189.8777919999999995
20
-103.0842540000000014
11
189.9912630000000036
21
-103.0538499999999971
0
LINE
8
BLACK
6
CONTINUOUS
10
189.9912630000000036
20
-103.0538499999999971
11
190.1087369999999908
21
-103.0538499999999971
0
LINE
8
BLACK
6
CONTINUOUS
10
190.1087369999999908
20
-103.0538499999999971
11
190.2222079999999949
21
-103.0842540000000014
0
LINE
8
BLACK
6
CONTINUOUS
10
190.2222079999999949
20
-100.0842540000000014
11
190.3239429999999857
21
-100.142990999999995
0
LINE
8
BLACK
6
CONTINUOUS
10
190.3239429999999857
20
-100.142990999999995
11
190.407008999999988
21
-100.2260569999999973
0
LINE
8
BLACK
6
CONTINUOUS
10
190.407008999999988
20
-100.2260569999999973
11
190.4657459999999958
21
-100.3277920000000023
0
LINE
8
BLACK
6
CONTINUOUS
10
190.4657459999999958
20
-100.3277920000000023
11
190.4961500000000001
21
-100.4412629999999922
0
LINE
8
BLACK
6
CONTINUOUS
10
190.4961500000000001
20
-100.4412629999999922
11
190.4961500000000001
21
-100.5587369999999936
0
LINE
8
BLACK
6
CONTINUOUS
10
190.4961500000000001
20
-100.5587369999999936
11
190.4657459999999958
21
-100.6722079999999977
0
LINE
8
BLACK
6
CONTINUOUS
10
190.4657459999999958
20
-100.6722079999999977
11
190.407008999999988
21
-100.7739429999999885
0
LINE
8
BLACK
6
CONTINUOUS
10
190.407008999999988
20
-100.7739429999999885
11
190.3239429999999857
21
-100.8570089999999908
0
LINE
8
BLACK
6
CONTINUOUS
10
190.3239429999999857
20
-100.8570089999999908
11
190.2222079999999949
21
-100.9157459999999986
0
LINE
8
BLACK
6
CONTINUOUS
10
190.2222079999999949
20
-100.9157459999999986
11
190.1087369999999908
21
-100.9461499999999887
0
LINE
8
BLACK
6
CONTINUOUS
10
190.1087369999999908
20
-100.9461499999999887
11
189.9912630000000036
21
-100.9461499999999887
0
LINE
8
BLACK
6
CONTINUOUS
10
189.9912630000000036
20
-100.9461499999999887
11
189.8777919999999995
21
-100.9157459999999986
0
LINE
8
BLACK
6
CONTINUOUS
10
189.8777919999999995
20
-100.9157459999999986
11
189.7760569999999802
21
-100.8570089999999908
0
LINE
8
BLACK
6
CONTINUOUS
10
189.7760569999999802
20
-100.8570089999999908
11
189.6929909999999779
21
-100.7739429999999885
0
LINE
8
BLACK
6
CONTINUOUS
10
189.6929909999999779
20
-100.7739429999999885
11
189.6342539999999985
21
-100.6722079999999977
0
LINE
8
BLACK
6
CONTINUOUS
10
189.6342539999999985
20
-100.6722079999999977
11
189.6038499999999942
21
-100.5587369999999936
0
LINE
8
BLACK
6
CONTINUOUS
10
189.6038499999999942
20
-100.5587369999999936
11
189.6038499999999942
21
-100.4412629999999922
0
LINE
8
BLACK
6
CONTINUOUS
10
189.6038499999999942
20
-100.4412629999999922
11
189.6342539999999985
21
-100.3277920000000023
0
LINE
8
BLACK
6
CONTINUOUS
10
189.6342539999999985
20
-100.3277920000000023
11
189.6929909999999779
21
-100.2260569999999973
0
LINE
8
BLACK
6
CONTINUOUS
10
189.6929909999999779
20
-100.2260569999999973
11
189.7760569999999802
21
-100.142990999999995
0
LINE
8
BLACK
6
CONTINUOUS
10
189.7760569999999802
20
-100.142990999999995
11
189.8777919999999995
21
-100.0842540000000014
0
LINE
8
BLACK
6
CONTINUOUS
10
189.8777919999999995
20
-100.0842540000000014
11
189.9912630000000036
21
-100.0538499999999971
0
LINE
8
BLACK
6
CONTINUOUS
10
189.9912630000000036
20
-100.0538499999999971
11
190.1087369999999908
21
-100.0538499999999971
0
LINE
8
BLACK
6
CONTINUOUS
10
190.1087369999999908
20
-100.0538499999999971
11
190.2222079999999949
21
-100.0842540000000014
0
LINE
8
BLACK
6
CONTINUOUS
10
188.4972080000000005
20
-91.7342539999999929
11
188.5989429999999913
21
-91.7929910000000007
0
LINE
8
BLACK
6
CONTINUOUS
10
188.5989429999999913
20
-91.7929910000000007
11
188.6820089999999936
21
-91.8760569999999888
0
LINE
8
BLACK
6
CONTINUOUS
10
188.6820089999999936
20
-91.8760569999999888
11
188.7407460000000015
21
-91.9777919999999938
0
LINE
8
BLACK
6
CONTINUOUS
10
188.7407460000000015
20
-91.9777919999999938
11
188.7711499999999774
21
-92.0912629999999979
0
LINE
8
BLACK
6
CONTINUOUS
10
188.7711499999999774
20
-92.0912629999999979
11
188.7711499999999774
21
-92.2087369999999993
0
LINE
8
BLACK
6
CONTINUOUS
10
188.7711499999999774
20
-92.2087369999999993
11
188.7407460000000015
21
-92.3222079999999892
0
LINE
8
BLACK
6
CONTINUOUS
10
188.7407460000000015
20
-92.3222079999999892
11
188.6820089999999936
21
-92.4239429999999942
0
LINE
8
BLACK
6
CONTINUOUS
10
188.6820089999999936
20
-92.4239429999999942
11
188.5989429999999913
21
-92.5070089999999965
0
LINE
8
BLACK
6
CONTINUOUS
10
188.5989429999999913
20
-92.5070089999999965
11
188.4972080000000005
21
-92.5657459999999901
0
LINE
8
BLACK
6
CONTINUOUS
10
188.4972080000000005
20
-92.5657459999999901
11
188.3837369999999964
21
-92.5961499999999944
0
LINE
8
BLACK
6
CONTINUOUS
10
188.3837369999999964
20
-92.5961499999999944
11
188.2662629999999808
21
-92.5961499999999944
0
LINE
8
BLACK
6
CONTINUOUS
10
188.2662629999999808
20
-92.5961499999999944
11
188.1527920000000051
21
-92.5657459999999901
0
LINE
8
BLACK
6
CONTINUOUS
10
188.1527920000000051
20
-92.5657459999999901
11
188.0510569999999859
21
-92.5070089999999965
0
LINE
8
BLACK
6
CONTINUOUS
10
188.0510569999999859
20
-92.5070089999999965
11
187.9679909999999836
21
-92.4239429999999942
0
LINE
8
BLACK
6
CONTINUOUS
10
187.9679909999999836
20
-92.4239429999999942
11
187.9092540000000042
21
-92.3222079999999892
0
LINE
8
BLACK
6
CONTINUOUS
10
187.9092540000000042
20
-92.3222079999999892
11
187.8788499999999999
21
-92.2087369999999993
0
LINE
8
BLACK
6
CONTINUOUS
10
187.8788499999999999
20
-92.2087369999999993
11
187.8788499999999999
21
-92.0912629999999979
0
LINE
8
BLACK
6
CONTINUOUS
10
187.8788499999999999
20
-92.0912629999999979
11
187.9092540000000042
21
-91.9777919999999938
0
LINE
8
BLACK
6
CONTINUOUS
10
187.9092540000000042
20
-91.9777919999999938
11
187.9679909999999836
21
-91.8760569999999888
0
LINE
8
BLACK
6
CONTINUOUS
10
187.9679909999999836
20
-91.8760569999999888
11
188.0510569999999859
21
-91.7929910000000007
0
LINE
8
BLACK
6
CONTINUOUS
10
188.0510569999999859
20
-91.7929910000000007
11
188.1527920000000051
21
-91.7342539999999929
0
LINE
8
BLACK
6
CONTINUOUS
10
188.1527920000000051
20
-91.7342539999999929
11
188.2662629999999808
21
-91.7038500000000028
0
LINE
8
BLACK
6
CONTINUOUS
10
188.2662629999999808
20
-91.7038500000000028
11
188.3837369999999964
21
-91.7038500000000028
0
LINE
8
BLACK
6
CONTINUOUS
10
188.3837369999999964
20
-91.7038500000000028
11
188.4972080000000005
21
-91.7342539999999929
0
LINE
8
BLACK
6
CONTINUOUS
10
191.2185059999999908
20
-91.8035449999999997
11
191.3032859999999857
21
-91.852491999999998
0
LINE
8
BLACK
6
CONTINUOUS
10
191.3032859999999857
20
-91.852491999999998
11
191.3725079999999821
21
-91.9217139999999944
0
LINE
8
BLACK
6
CONTINUOUS
10
191.3725079999999821
20
-91.9217139999999944
11
191.4214549999999804
21
-92.0064939999999893
0
LINE
8
BLACK
6
CONTINUOUS
10
191.4214549999999804
20
-92.0064939999999893
11
191.4467919999999879
21
-92.1010529999999932
0
LINE
8
BLACK
6
CONTINUOUS
10
191.4467919999999879
20
-92.1010529999999932
11
191.4467919999999879
21
-92.1989469999999898
0
LINE
8
BLACK
6
CONTINUOUS
10
191.4467919999999879
20
-92.1989469999999898
11
191.4214549999999804
21
-92.2935059999999936
0
LINE
8
BLACK
6
CONTINUOUS
10
191.4214549999999804
20
-92.2935059999999936
11
191.3725079999999821
21
-92.3782860000000028
0
LINE
8
BLACK
6
CONTINUOUS
10
191.3725079999999821
20
-92.3782860000000028
11
191.3032859999999857
21
-92.4475079999999991
0
LINE
8
BLACK
6
CONTINUOUS
10
191.3032859999999857
20
-92.4475079999999991
11
191.2185059999999908
21
-92.4964549999999974
0
LINE
8
BLACK
6
CONTINUOUS
10
191.2185059999999908
20
-92.4964549999999974
11
191.1239469999999869
21
-92.5217919999999907
0
LINE
8
BLACK
6
CONTINUOUS
10
191.1239469999999869
20
-92.5217919999999907
11
191.0260529999999903
21
-92.5217919999999907
0
LINE
8
BLACK
6
CONTINUOUS
10
191.0260529999999903
20
-92.5217919999999907
11
190.9314939999999865
21
-92.4964549999999974
0
LINE
8
BLACK
6
CONTINUOUS
10
190.9314939999999865
20
-92.4964549999999974
11
190.8467139999999915
21
-92.4475079999999991
0
LINE
8
BLACK
6
CONTINUOUS
10
190.8467139999999915
20
-92.4475079999999991
11
190.7774919999999952
21
-92.3782860000000028
0
LINE
8
BLACK
6
CONTINUOUS
10
190.7774919999999952
20
-92.3782860000000028
11
190.7285449999999969
21
-92.2935059999999936
0
LINE
8
BLACK
6
CONTINUOUS
10
190.7285449999999969
20
-92.2935059999999936
11
190.7032079999999894
21
-92.1989469999999898
0
LINE
8
BLACK
6
CONTINUOUS
10
190.7032079999999894
20
-92.1989469999999898
11
190.7032079999999894
21
-92.1010529999999932
0
LINE
8
BLACK
6
CONTINUOUS
10
190.7032079999999894
20
-92.1010529999999932
11
190.7285449999999969
21
-92.0064939999999893
0
LINE
8
BLACK
6
CONTINUOUS
10
190.7285449999999969
20
-92.0064939999999893
11
190.7774919999999952
21
-91.9217139999999944
0
LINE
8
BLACK
6
CONTINUOUS
10
190.7774919999999952
20
-91.9217139999999944
11
190.8467139999999915
21
-91.852491999999998
0
LINE
8
BLACK
6
CONTINUOUS
10
190.8467139999999915
20
-91.852491999999998
11
190.9314939999999865
21
-91.8035449999999997
0
LINE
8
BLACK
6
CONTINUOUS
10
190.9314939999999865
20
-91.8035449999999997
11
191.0260529999999903
21
-91.7782079999999922
0
LINE
8
BLACK
6
CONTINUOUS
10
191.0260529999999903
20
-91.7782079999999922
11
191.1239469999999869
21
-91.7782079999999922
0
LINE
8
BLACK
6
CONTINUOUS
10
191.1239469999999869
20
-91.7782079999999922
11
191.2185059999999908
21
-91.8035449999999997
0
LINE
8
BLACK
6
CONTINUOUS
10
196.9935059999999964
20
-85.5535449999999997
11
197.0782859999999914
21
-85.602491999999998
0
LINE
8
BLACK
6
CONTINUOUS
10
197.0782859999999914
20
-85.602491999999998
11
197.1475079999999878
21
-85.6717139999999944
0
LINE
8
BLACK
6
CONTINUOUS
10
197.1475079999999878
20
-85.6717139999999944
11
197.1964549999999861
21
-85.7564939999999893
0
LINE
8
BLACK
6
CONTINUOUS
10
197.1964549999999861
20
-85.7564939999999893
11
197.2217919999999935
21
-85.8510529999999932
0
LINE
8
BLACK
6
CONTINUOUS
10
197.2217919999999935
20
-85.8510529999999932
11
197.2217919999999935
21
-85.9489469999999898
0
LINE
8
BLACK
6
CONTINUOUS
10
197.2217919999999935
20
-85.9489469999999898
11
197.1964549999999861
21
-86.0435059999999936
0
LINE
8
BLACK
6
CONTINUOUS
10
197.1964549999999861
20
-86.0435059999999936
11
197.1475079999999878
21
-86.1282860000000028
0
LINE
8
BLACK
6
CONTINUOUS
10
197.1475079999999878
20
-86.1282860000000028
11
197.0782859999999914
21
-86.1975079999999991
0
LINE
8
BLACK
6
CONTINUOUS
10
197.0782859999999914
20
-86.1975079999999991
11
196.9935059999999964
21
-86.2464549999999974
0
LINE
8
BLACK
6
CONTINUOUS
10
196.9935059999999964
20
-86.2464549999999974
11
196.8989469999999926
21
-86.2717919999999907
0
LINE
8
BLACK
6
CONTINUOUS
10
196.8989469999999926
20
-86.2717919999999907
11
196.801052999999996
21
-86.2717919999999907
0
LINE
8
BLACK
6
CONTINUOUS
10
196.801052999999996
20
-86.2717919999999907
11
196.7064939999999922
21
-86.2464549999999974
0
LINE
8
BLACK
6
CONTINUOUS
10
196.7064939999999922
20
-86.2464549999999974
11
196.6217139999999972
21
-86.1975079999999991
0
LINE
8
BLACK
6
CONTINUOUS
10
196.6217139999999972
20
-86.1975079999999991
11
196.5524920000000009
21
-86.1282860000000028
0
LINE
8
BLACK
6
CONTINUOUS
10
196.5524920000000009
20
-86.1282860000000028
11
196.5035450000000026
21
-86.0435059999999936
0
LINE
8
BLACK
6
CONTINUOUS
10
196.5035450000000026
20
-86.0435059999999936
11
196.4782079999999951
21
-85.9489469999999898
0
LINE
8
BLACK
6
CONTINUOUS
10
196.4782079999999951
20
-85.9489469999999898
11
196.4782079999999951
21
-85.8510529999999932
0
LINE
8
BLACK
6
CONTINUOUS
10
196.4782079999999951
20
-85.8510529999999932
11
196.5035450000000026
21
-85.7564939999999893
0
LINE
8
BLACK
6
CONTINUOUS
10
196.5035450000000026
20
-85.7564939999999893
11
196.5524920000000009
21
-85.6717139999999944
0
LINE
8
BLACK
6
CONTINUOUS
10
196.5524920000000009
20
-85.6717139999999944
11
196.6217139999999972
21
-85.602491999999998
0
LINE
8
BLACK
6
CONTINUOUS
10
196.6217139999999972
20
-85.602491999999998
11
196.7064939999999922
21
-85.5535449999999997
0
LINE
8
BLACK
6
CONTINUOUS
10
196.7064939999999922
20
-85.5535449999999997
11
196.801052999999996
21
-85.5282079999999922
0
LINE
8
BLACK
6
CONTINUOUS
10
196.801052999999996
20
-85.5282079999999922
11
196.8989469999999926
21
-85.5282079999999922
0
LINE
8
BLACK
6
CONTINUOUS
10
196.8989469999999926
20
-85.5282079999999922
11
196.9935059999999964
21
-85.5535449999999997
0
LINE
8
BLACK
6
CONTINUOUS
10
213.8385059999999953
20
-85.5535449999999997
11
213.9232859999999903
21
-85.602491999999998
0
LINE
8
BLACK
6
CONTINUOUS
10
213.9232859999999903
20
-85.602491999999998
11
213.9925079999999866
21
-85.6717139999999944
0
LINE
8
BLACK
6
CONTINUOUS
10
213.9925079999999866
20
-85.6717139999999944
11
214.0414549999999849
21
-85.7564939999999893
0
LINE
8
BLACK
6
CONTINUOUS
10
214.0414549999999849
20
-85.7564939999999893
11
214.0667919999999924
21
-85.8510529999999932
0
LINE
8
BLACK
6
CONTINUOUS
10
214.0667919999999924
20
-85.8510529999999932
11
214.0667919999999924
21
-85.9489469999999898
0
LINE
8
BLACK
6
CONTINUOUS
10
214.0667919999999924
20
-85.9489469999999898
11
214.0414549999999849
21
-86.0435059999999936
0
LINE
8
BLACK
6
CONTINUOUS
10
214.0414549999999849
20
-86.0435059999999936
11
213.9925079999999866
21
-86.1282860000000028
0
LINE
8
BLACK
6
CONTINUOUS
10
213.9925079999999866
20
-86.1282860000000028
11
213.9232859999999903
21
-86.1975079999999991
0
LINE
8
BLACK
6
CONTINUOUS
10
213.9232859999999903
20
-86.1975079999999991
11
213.8385059999999953
21
-86.2464549999999974
0
LINE
8
BLACK
6
CONTINUOUS
10
213.8385059999999953
20
-86.2464549999999974
11
213.7439469999999915
21
-86.2717919999999907
0
LINE
8
BLACK
6
CONTINUOUS
10
213.7439469999999915
20
-86.2717919999999907
11
213.6460529999999949
21
-86.2717919999999907
0
LINE
8
BLACK
6
CONTINUOUS
10
213.6460529999999949
20
-86.2717919999999907
11
213.551493999999991
21
-86.2464549999999974
0
LINE
8
BLACK
6
CONTINUOUS
10
213.551493999999991
20
-86.2464549999999974
11
213.4667139999999961
21
-86.1975079999999991
0
LINE
8
BLACK
6
CONTINUOUS
10
213.4667139999999961
20
-86.1975079999999991
11
213.3974919999999997
21
-86.1282860000000028
0
LINE
8
BLACK
6
CONTINUOUS
10
213.3974919999999997
20
-86.1282860000000028
11
213.3485450000000014
21
-86.0435059999999936
0
LINE
8
BLACK
6
CONTINUOUS
10
213.3485450000000014
20
-86.0435059999999936
11
213.3232079999999939
21
-85.9489469999999898
0
LINE
8
BLACK
6
CONTINUOUS
10
213.3232079999999939
20
-85.9489469999999898
11
213.3232079999999939
21
-85.8510529999999932
0
LINE
8
BLACK
6
CONTINUOUS
10
213.3232079999999939
20
-85.8510529999999932
11
213.3485450000000014
21
-85.7564939999999893
0
LINE
8
BLACK
6
CONTINUOUS
10
213.3485450000000014
20
-85.7564939999999893
11
213.3974919999999997
21
-85.6717139999999944
0
LINE
8
BLACK
6
CONTINUOUS
10
213.3974919999999997
20
-85.6717139999999944
11
213.4667139999999961
21
-85.602491999999998
0
LINE
8
BLACK
6
CONTINUOUS
10
213.4667139999999961
20
-85.602491999999998
11
213.551493999999991
21
-85.5535449999999997
0
LINE
8
BLACK
6
CONTINUOUS
10
213.551493999999991
20
-85.5535449999999997
11
213.6460529999999949
21
-85.5282079999999922
0
LINE
8
BLACK
6
CONTINUOUS
10
213.6460529999999949
20
-85.5282079999999922
11
213.7439469999999915
21
-85.5282079999999922
0
LINE
8
BLACK
6
CONTINUOUS
10
213.7439469999999915
20
-85.5282079999999922
11
213.8385059999999953
21
-85.5535449999999997
0
LINE
8
BLACK
6
CONTINUOUS
10
230.6435060000000021
20
-85.5535449999999997
11
230.7282859999999971
21
-85.602491999999998
0
LINE
8
BLACK
6
CONTINUOUS
10
230.7282859999999971
20
-85.602491999999998
11
230.7975079999999934
21
-85.6717139999999944
0
LINE
8
BLACK
6
CONTINUOUS
10
230.7975079999999934
20
-85.6717139999999944
11
230.8464549999999917
21
-85.7564939999999893
0
LINE
8
BLACK
6
CONTINUOUS
10
230.8464549999999917
20
-85.7564939999999893
11
230.8717919999999992
21
-85.8510529999999932
0
LINE
8
BLACK
6
CONTINUOUS
10
230.8717919999999992
20
-85.8510529999999932
11
230.8717919999999992
21
-85.9489469999999898
0
LINE
8
BLACK
6
CONTINUOUS
10
230.8717919999999992
20
-85.9489469999999898
11
230.8464549999999917
21
-86.0435059999999936
0
LINE
8
BLACK
6
CONTINUOUS
10
230.8464549999999917
20
-86.0435059999999936
11
230.7975079999999934
21
-86.1282860000000028
0
LINE
8
BLACK
6
CONTINUOUS
10
230.7975079999999934
20
-86.1282860000000028
11
230.7282859999999971
21
-86.1975079999999991
0
LINE
8
BLACK
6
CONTINUOUS
10
230.7282859999999971
20
-86.1975079999999991
11
230.6435060000000021
21
-86.2464549999999974
0
LINE
8
BLACK
6
CONTINUOUS
10
230.6435060000000021
20
-86.2464549999999974
11
230.5489469999999983
21
-86.2717919999999907
0
LINE
8
BLACK
6
CONTINUOUS
10
230.5489469999999983
20
-86.2717919999999907
11
230.4510530000000017
21
-86.2717919999999907
0
LINE
8
BLACK
6
CONTINUOUS
10
230.4510530000000017
20
-86.2717919999999907
11
230.3564939999999979
21
-86.2464549999999974
0
LINE
8
BLACK
6
CONTINUOUS
10
230.3564939999999979
20
-86.2464549999999974
11
230.2717140000000029
21
-86.1975079999999991
0
LINE
8
BLACK
6
CONTINUOUS
10
230.2717140000000029
20
-86.1975079999999991
11
230.2024919999999781
21
-86.1282860000000028
0
LINE
8
BLACK
6
CONTINUOUS
10
230.2024919999999781
20
-86.1282860000000028
11
230.1535449999999798
21
-86.0435059999999936
0
LINE
8
BLACK
6
CONTINUOUS
10
230.1535449999999798
20
-86.0435059999999936
11
230.1282080000000008
21
-85.9489469999999898
0
LINE
8
BLACK
6
CONTINUOUS
10
230.1282080000000008
20
-85.9489469999999898
11
230.1282080000000008
21
-85.8510529999999932
0
LINE
8
BLACK
6
CONTINUOUS
10
230.1282080000000008
20
-85.8510529999999932
11
230.1535449999999798
21
-85.7564939999999893
0
LINE
8
BLACK
6
CONTINUOUS
10
230.1535449999999798
20
-85.7564939999999893
11
230.2024919999999781
21
-85.6717139999999944
0
LINE
8
BLACK
6
CONTINUOUS
10
230.2024919999999781
20
-85.6717139999999944
11
230.2717140000000029
21
-85.602491999999998
0
LINE
8
BLACK
6
CONTINUOUS
10
230.2717140000000029
20
-85.602491999999998
11
230.3564939999999979
21
-85.5535449999999997
0
LINE
8
BLACK
6
CONTINUOUS
10
230.3564939999999979
20
-85.5535449999999997
11
230.4510530000000017
21
-85.5282079999999922
0
LINE
8
BLACK
6
CONTINUOUS
10
230.4510530000000017
20
-85.5282079999999922
11
230.5489469999999983
21
-85.5282079999999922
0
LINE
8
BLACK
6
CONTINUOUS
10
230.5489469999999983
20
-85.5282079999999922
11
230.6435060000000021
21
-85.5535449999999997
0
LINE
8
BLACK
6
CONTINUOUS
10
247.4435059999999851
20
-85.5535449999999997
11
247.52828599999998
21
-85.602491999999998
0
LINE
8
BLACK
6
CONTINUOUS
10
247.52828599999998
20
-85.602491999999998
11
247.5975079999999764
21
-85.6717139999999944
0
LINE
8
BLACK
6
CONTINUOUS
10
247.5975079999999764
20
-85.6717139999999944
11
247.6464549999999747
21
-85.7564939999999893
0
LINE
8
BLACK
6
CONTINUOUS
10
247.6464549999999747
20
-85.7564939999999893
11
247.6717919999999822
21
-85.8510529999999932
0
LINE
8
BLACK
6
CONTINUOUS
10
247.6717919999999822
20
-85.8510529999999932
11
247.6717919999999822
21
-85.9489469999999898
0
LINE
8
BLACK
6
CONTINUOUS
10
247.6717919999999822
20
-85.9489469999999898
11
247.6464549999999747
21
-86.0435059999999936
0
LINE
8
BLACK
6
CONTINUOUS
10
247.6464549999999747
20
-86.0435059999999936
11
247.5975079999999764
21
-86.1282860000000028
0
LINE
8
BLACK
6
CONTINUOUS
10
247.5975079999999764
20
-86.1282860000000028
11
247.52828599999998
21
-86.1975079999999991
0
LINE
8
BLACK
6
CONTINUOUS
10
247.52828599999998
20
-86.1975079999999991
11
247.4435059999999851
21
-86.2464549999999974
0
LINE
8
BLACK
6
CONTINUOUS
10
247.4435059999999851
20
-86.2464549999999974
11
247.3489469999999812
21
-86.2717919999999907
0
LINE
8
BLACK
6
CONTINUOUS
10
247.3489469999999812
20
-86.2717919999999907
11
247.2510529999999846
21
-86.2717919999999907
0
LINE
8
BLACK
6
CONTINUOUS
10
247.2510529999999846
20
-86.2717919999999907
11
247.1564939999999808
21
-86.2464549999999974
0
LINE
8
BLACK
6
CONTINUOUS
10
247.1564939999999808
20
-86.2464549999999974
11
247.0717139999999858
21
-86.1975079999999991
0
LINE
8
BLACK
6
CONTINUOUS
10
247.0717139999999858
20
-86.1975079999999991
11
247.0024919999999895
21
-86.1282860000000028
0
LINE
8
BLACK
6
CONTINUOUS
10
247.0024919999999895
20
-86.1282860000000028
11
246.9535449999999912
21
-86.0435059999999936
0
LINE
8
BLACK
6
CONTINUOUS
10
246.9535449999999912
20
-86.0435059999999936
11
246.9282079999999837
21
-85.9489469999999898
0
LINE
8
BLACK
6
CONTINUOUS
10
246.9282079999999837
20
-85.9489469999999898
11
246.9282079999999837
21
-85.8510529999999932
0
LINE
8
BLACK
6
CONTINUOUS
10
246.9282079999999837
20
-85.8510529999999932
11
246.9535449999999912
21
-85.7564939999999893
0
LINE
8
BLACK
6
CONTINUOUS
10
246.9535449999999912
20
-85.7564939999999893
11
247.0024919999999895
21
-85.6717139999999944
0
LINE
8
BLACK
6
CONTINUOUS
10
247.0024919999999895
20
-85.6717139999999944
11
247.0717139999999858
21
-85.602491999999998
0
LINE
8
BLACK
6
CONTINUOUS
10
247.0717139999999858
20
-85.602491999999998
11
247.1564939999999808
21
-85.5535449999999997
0
LINE
8
BLACK
6
CONTINUOUS
10
247.1564939999999808
20
-85.5535449999999997
11
247.2510529999999846
21
-85.5282079999999922
0
LINE
8
BLACK
6
CONTINUOUS
10
247.2510529999999846
20
-85.5282079999999922
11
247.3489469999999812
21
-85.5282079999999922
0
LINE
8
BLACK
6
CONTINUOUS
10
247.3489469999999812
20
-85.5282079999999922
11
247.4435059999999851
21
-85.5535449999999997
0
LINE
8
BLACK
6
CONTINUOUS
10
197.0222079999999778
20
-82.7342539999999929
11
197.123942999999997
21
-82.7929910000000007
0
LINE
8
BLACK
6
CONTINUOUS
10
197.123942999999997
20
-82.7929910000000007
11
197.2070089999999993
21
-82.876057000000003
0
LINE
8
BLACK
6
CONTINUOUS
10
197.2070089999999993
20
-82.876057000000003
11
197.2657459999999787
21
-82.9777919999999938
0
LINE
8
BLACK
6
CONTINUOUS
10
197.2657459999999787
20
-82.9777919999999938
11
197.296149999999983
21
-83.0912629999999979
0
LINE
8
BLACK
6
CONTINUOUS
10
197.296149999999983
20
-83.0912629999999979
11
197.296149999999983
21
-83.2087369999999993
0
LINE
8
BLACK
6
CONTINUOUS
10
197.296149999999983
20
-83.2087369999999993
11
197.2657459999999787
21
-83.3222079999999892
0
LINE
8
BLACK
6
CONTINUOUS
10
197.2657459999999787
20
-83.3222079999999892
11
197.2070089999999993
21
-83.4239429999999942
0
LINE
8
BLACK
6
CONTINUOUS
10
197.2070089999999993
20
-83.4239429999999942
11
197.123942999999997
21
-83.5070089999999965
0
LINE
8
BLACK
6
CONTINUOUS
10
197.123942999999997
20
-83.5070089999999965
11
197.0222079999999778
21
-83.5657459999999901
0
LINE
8
BLACK
6
CONTINUOUS
10
197.0222079999999778
20
-83.5657459999999901
11
196.9087370000000021
21
-83.5961499999999944
0
LINE
8
BLACK
6
CONTINUOUS
10
196.9087370000000021
20
-83.5961499999999944
11
196.7912629999999865
21
-83.5961499999999944
0
LINE
8
BLACK
6
CONTINUOUS
10
196.7912629999999865
20
-83.5961499999999944
11
196.6777919999999824
21
-83.5657459999999901
0
LINE
8
BLACK
6
CONTINUOUS
10
196.6777919999999824
20
-83.5657459999999901
11
196.5760569999999916
21
-83.5070089999999965
0
LINE
8
BLACK
6
CONTINUOUS
10
196.5760569999999916
20
-83.5070089999999965
11
196.4929909999999893
21
-83.4239429999999942
0
LINE
8
BLACK
6
CONTINUOUS
10
196.4929909999999893
20
-83.4239429999999942
11
196.4342539999999815
21
-83.3222079999999892
0
LINE
8
BLACK
6
CONTINUOUS
10
196.4342539999999815
20
-83.3222079999999892
11
196.4038499999999772
21
-83.2087369999999993
0
LINE
8
BLACK
6
CONTINUOUS
10
196.4038499999999772
20
-83.2087369999999993
11
196.4038499999999772
21
-83.0912629999999979
0
LINE
8
BLACK
6
CONTINUOUS
10
196.4038499999999772
20
-83.0912629999999979
11
196.4342539999999815
21
-82.9777919999999938
0
LINE
8
BLACK
6
CONTINUOUS
10
196.4342539999999815
20
-82.9777919999999938
11
196.4929909999999893
21
-82.876057000000003
0
LINE
8
BLACK
6
CONTINUOUS
10
196.4929909999999893
20
-82.876057000000003
11
196.5760569999999916
21
-82.7929910000000007
0
LINE
8
BLACK
6
CONTINUOUS
10
196.5760569999999916
20
-82.7929910000000007
11
196.6777919999999824
21
-82.7342539999999929
0
LINE
8
BLACK
6
CONTINUOUS
10
196.6777919999999824
20
-82.7342539999999929
11
196.7912629999999865
21
-82.7038500000000028
0
LINE
8
BLACK
6
CONTINUOUS
10
196.7912629999999865
20
-82.7038500000000028
11
196.9087370000000021
21
-82.7038500000000028
0
LINE
8
BLACK
6
CONTINUOUS
10
196.9087370000000021
20
-82.7038500000000028
11
197.0222079999999778
21
-82.7342539999999929
0
LINE
8
BLACK
6
CONTINUOUS
10
213.8672079999999767
20
-82.7342539999999929
11
213.9689429999999959
21
-82.7929910000000007
0
LINE
8
BLACK
6
CONTINUOUS
10
213.9689429999999959
20
-82.7929910000000007
11
214.0520089999999982
21
-82.876057000000003
0
LINE
8
BLACK
6
CONTINUOUS
10
214.0520089999999982
20
-82.876057000000003
11
214.1107459999999776
21
-82.9777919999999938
0
LINE
8
BLACK
6
CONTINUOUS
10
214.1107459999999776
20
-82.9777919999999938
11
214.1411499999999819
21
-83.0912629999999979
0
LINE
8
BLACK
6
CONTINUOUS
10
214.1411499999999819
20
-83.0912629999999979
11
214.1411499999999819
21
-83.2087369999999993
0
LINE
8
BLACK
6
CONTINUOUS
10
214.1411499999999819
20
-83.2087369999999993
11
214.1107459999999776
21
-83.3222079999999892
0
LINE
8
BLACK
6
CONTINUOUS
10
214.1107459999999776
20
-83.3222079999999892
11
214.0520089999999982
21
-83.4239429999999942
0
LINE
8
BLACK
6
CONTINUOUS
10
214.0520089999999982
20
-83.4239429999999942
11
213.9689429999999959
21
-83.5070089999999965
0
LINE
8
BLACK
6
CONTINUOUS
10
213.9689429999999959
20
-83.5070089999999965
11
213.8672079999999767
21
-83.5657459999999901
0
LINE
8
BLACK
6
CONTINUOUS
10
213.8672079999999767
20
-83.5657459999999901
11
213.753737000000001
21
-83.5961499999999944
0
LINE
8
BLACK
6
CONTINUOUS
10
213.753737000000001
20
-83.5961499999999944
11
213.6362629999999854
21
-83.5961499999999944
0
LINE
8
BLACK
6
CONTINUOUS
10
213.6362629999999854
20
-83.5961499999999944
11
213.5227919999999813
21
-83.5657459999999901
0
LINE
8
BLACK
6
CONTINUOUS
10
213.5227919999999813
20
-83.5657459999999901
11
213.4210569999999905
21
-83.5070089999999965
0
LINE
8
BLACK
6
CONTINUOUS
10
213.4210569999999905
20
-83.5070089999999965
11
213.3379909999999882
21
-83.4239429999999942
0
LINE
8
BLACK
6
CONTINUOUS
10
213.3379909999999882
20
-83.4239429999999942
11
213.2792539999999804
21
-83.3222079999999892
0
LINE
8
BLACK
6
CONTINUOUS
10
213.2792539999999804
20
-83.3222079999999892
11
213.2488500000000045
21
-83.2087369999999993
0
LINE
8
BLACK
6
CONTINUOUS
10
213.2488500000000045
20
-83.2087369999999993
11
213.2488500000000045
21
-83.0912629999999979
0
LINE
8
BLACK
6
CONTINUOUS
10
213.2488500000000045
20
-83.0912629999999979
11
213.2792539999999804
21
-82.9777919999999938
0
LINE
8
BLACK
6
CONTINUOUS
10
213.2792539999999804
20
-82.9777919999999938
11
213.3379909999999882
21
-82.876057000000003
0
LINE
8
BLACK
6
CONTINUOUS
10
213.3379909999999882
20
-82.876057000000003
11
213.4210569999999905
21
-82.7929910000000007
0
LINE
8
BLACK
6
CONTINUOUS
10
213.4210569999999905
20
-82.7929910000000007
11
213.5227919999999813
21
-82.7342539999999929
0
LINE
8
BLACK
6
CONTINUOUS
10
213.5227919999999813
20
-82.7342539999999929
11
213.6362629999999854
21
-82.7038500000000028
0
LINE
8
BLACK
6
CONTINUOUS
10
213.6362629999999854
20
-82.7038500000000028
11
213.753737000000001
21
-82.7038500000000028
0
LINE
8
BLACK
6
CONTINUOUS
10
213.753737000000001
20
-82.7038500000000028
11
213.8672079999999767
21
-82.7342539999999929
0
LINE
8
BLACK
6
CONTINUOUS
10
230.6722079999999835
20
-82.7342539999999929
11
230.7739430000000027
21
-82.7929910000000007
0
LINE
8
BLACK
6
CONTINUOUS
10
230.7739430000000027
20
-82.7929910000000007
11
230.8570089999999766
21
-82.876057000000003
0
LINE
8
BLACK
6
CONTINUOUS
10
230.8570089999999766
20
-82.876057000000003
11
230.9157459999999844
21
-82.9777919999999938
0
LINE
8
BLACK
6
CONTINUOUS
10
230.9157459999999844
20
-82.9777919999999938
11
230.9461499999999887
21
-83.0912629999999979
0
LINE
8
BLACK
6
CONTINUOUS
10
230.9461499999999887
20
-83.0912629999999979
11
230.9461499999999887
21
-83.2087369999999993
0
LINE
8
BLACK
6
CONTINUOUS
10
230.9461499999999887
20
-83.2087369999999993
11
230.9157459999999844
21
-83.3222079999999892
0
LINE
8
BLACK
6
CONTINUOUS
10
230.9157459999999844
20
-83.3222079999999892
11
230.8570089999999766
21
-83.4239429999999942
0
LINE
8
BLACK
6
CONTINUOUS
10
230.8570089999999766
20
-83.4239429999999942
11
230.7739430000000027
21
-83.5070089999999965
0
LINE
8
BLACK
6
CONTINUOUS
10
230.7739430000000027
20
-83.5070089999999965
11
230.6722079999999835
21
-83.5657459999999901
0
LINE
8
BLACK
6
CONTINUOUS
10
230.6722079999999835
20
-83.5657459999999901
11
230.5587369999999794
21
-83.5961499999999944
0
LINE
8
BLACK
6
CONTINUOUS
10
230.5587369999999794
20
-83.5961499999999944
11
230.4412629999999922
21
-83.5961499999999944
0
LINE
8
BLACK
6
CONTINUOUS
10
230.4412629999999922
20
-83.5961499999999944
11
230.3277919999999881
21
-83.5657459999999901
0
LINE
8
BLACK
6
CONTINUOUS
10
230.3277919999999881
20
-83.5657459999999901
11
230.2260569999999973
21
-83.5070089999999965
0
LINE
8
BLACK
6
CONTINUOUS
10
230.2260569999999973
20
-83.5070089999999965
11
230.142990999999995
21
-83.4239429999999942
0
LINE
8
BLACK
6
CONTINUOUS
10
230.142990999999995
20
-83.4239429999999942
11
230.0842539999999872
21
-83.3222079999999892
0
LINE
8
BLACK
6
CONTINUOUS
10
230.0842539999999872
20
-83.3222079999999892
11
230.0538499999999829
21
-83.2087369999999993
0
LINE
8
BLACK
6
CONTINUOUS
10
230.0538499999999829
20
-83.2087369999999993
11
230.0538499999999829
21
-83.0912629999999979
0
LINE
8
BLACK
6
CONTINUOUS
10
230.0538499999999829
20
-83.0912629999999979
11
230.0842539999999872
21
-82.9777919999999938
0
LINE
8
BLACK
6
CONTINUOUS
10
230.0842539999999872
20
-82.9777919999999938
11
230.142990999999995
21
-82.876057000000003
0
LINE
8
BLACK
6
CONTINUOUS
10
230.142990999999995
20
-82.876057000000003
11
230.2260569999999973
21
-82.7929910000000007
0
LINE
8
BLACK
6
CONTINUOUS
10
230.2260569999999973
20
-82.7929910000000007
11
230.3277919999999881
21
-82.7342539999999929
0
LINE
8
BLACK
6
CONTINUOUS
10
230.3277919999999881
20
-82.7342539999999929
11
230.4412629999999922
21
-82.7038500000000028
0
LINE
8
BLACK
6
CONTINUOUS
10
230.4412629999999922
20
-82.7038500000000028
11
230.5587369999999794
21
-82.7038500000000028
0
LINE
8
BLACK
6
CONTINUOUS
10
230.5587369999999794
20
-82.7038500000000028
11
230.6722079999999835
21
-82.7342539999999929
0
LINE
8
BLACK
6
CONTINUOUS
10
247.4722079999999949
20
-82.7342539999999929
11
247.5739429999999857
21
-82.7929910000000007
0
LINE
8
BLACK
6
CONTINUOUS
10
247.5739429999999857
20
-82.7929910000000007
11
247.657008999999988
21
-82.876057000000003
0
LINE
8
BLACK
6
CONTINUOUS
10
247.657008999999988
20
-82.876057000000003
11
247.7157459999999958
21
-82.9777919999999938
0
LINE
8
BLACK
6
CONTINUOUS
10
247.7157459999999958
20
-82.9777919999999938
11
247.7461500000000001
21
-83.0912629999999979
0
LINE
8
BLACK
6
CONTINUOUS
10
247.7461500000000001
20
-83.0912629999999979
11
247.7461500000000001
21
-83.2087369999999993
0
LINE
8
BLACK
6
CONTINUOUS
10
247.7461500000000001
20
-83.2087369999999993
11
247.7157459999999958
21
-83.3222079999999892
0
LINE
8
BLACK
6
CONTINUOUS
10
247.7157459999999958
20
-83.3222079999999892
11
247.657008999999988
21
-83.4239429999999942
0
LINE
8
BLACK
6
CONTINUOUS
10
247.657008999999988
20
-83.4239429999999942
11
247.5739429999999857
21
-83.5070089999999965
0
LINE
8
BLACK
6
CONTINUOUS
10
247.5739429999999857
20
-83.5070089999999965
11
247.4722079999999949
21
-83.5657459999999901
0
LINE
8
BLACK
6
CONTINUOUS
10
247.4722079999999949
20
-83.5657459999999901
11
247.3587369999999908
21
-83.5961499999999944
0
LINE
8
BLACK
6
CONTINUOUS
10
247.3587369999999908
20
-83.5961499999999944
11
247.2412629999999751
21
-83.5961499999999944
0
LINE
8
BLACK
6
CONTINUOUS
10
247.2412629999999751
20
-83.5961499999999944
11
247.1277919999999995
21
-83.5657459999999901
0
LINE
8
BLACK
6
CONTINUOUS
10
247.1277919999999995
20
-83.5657459999999901
11
247.0260569999999802
21
-83.5070089999999965
0
LINE
8
BLACK
6
CONTINUOUS
10
247.0260569999999802
20
-83.5070089999999965
11
246.9429909999999779
21
-83.4239429999999942
0
LINE
8
BLACK
6
CONTINUOUS
10
246.9429909999999779
20
-83.4239429999999942
11
246.8842539999999985
21
-83.3222079999999892
0
LINE
8
BLACK
6
CONTINUOUS
10
246.8842539999999985
20
-83.3222079999999892
11
246.8538499999999942
21
-83.2087369999999993
0
LINE
8
BLACK
6
CONTINUOUS
10
246.8538499999999942
20
-83.2087369999999993
11
246.8538499999999942
21
-83.0912629999999979
0
LINE
8
BLACK
6
CONTINUOUS
10
246.8538499999999942
20
-83.0912629999999979
11
246.8842539999999985
21
-82.9777919999999938
0
LINE
8
BLACK
6
CONTINUOUS
10
246.8842539999999985
20
-82.9777919999999938
11
246.9429909999999779
21
-82.876057000000003
0
LINE
8
BLACK
6
CONTINUOUS
10
246.9429909999999779
20
-82.876057000000003
11
247.0260569999999802
21
-82.7929910000000007
0
LINE
8
BLACK
6
CONTINUOUS
10
247.0260569999999802
20
-82.7929910000000007
11
247.1277919999999995
21
-82.7342539999999929
0
LINE
8
BLACK
6
CONTINUOUS
10
247.1277919999999995
20
-82.7342539999999929
11
247.2412629999999751
21
-82.7038500000000028
0
LINE
8
BLACK
6
CONTINUOUS
10
247.2412629999999751
20
-82.7038500000000028
11
247.3587369999999908
21
-82.7038500000000028
0
LINE
8
BLACK
6
CONTINUOUS
10
247.3587369999999908
20
-82.7038500000000028
11
247.4722079999999949
21
-82.7342539999999929
  0
ENDSEC
  0
EOF
