  0
SECTION
  2
HEADER
  9
$ANGBASE
  50
0.0
  9
$ANGDIR
  70
1
  9
$MEASUREMENT
  70
1
  0
ENDSEC
  0
SECTION
  2
TABLES
  0
TABLE
  2
LTYPE
  70
4
  0
LTYPE
  5
40F
  2
CONTINUOUS
  70
0
  3
Solid line
  72
65
  73
0
  40
0.0
  0
LTYPE
  5
410
  2
DASHDOT
 70
0
  3
Dash Dot ____ _ ____ _
 72
65
 73
4
 40
2.0
 49
1.25
 49
-0.25
 49
0.25
 49
-0.25
  0
LTYPE
  5
411
  2
DASHED
 70
0
  3
Dashed __ __ __ __ __
 72
65
 73
2
 40
0.75
 49
0.5
 49
-0.25
  0
LTYPE
  5
43B
  2
DOTTED
 70
0
  3
Dotted .  .  .  .
 72
65
 73
2
 40
0.2
 49
0.0
 49
-0.2
  0
ENDTAB
  0
TABLE
  2
STYLE
  70
4
  0
STYLE
  2
KICAD
  70
0
  40
0
  41
1
  42
1
  50
0
  71
0
  3
isocp.shx
  0
STYLE
  2
KICADB
  70
0
  40
0
  41
1
  42
1
  50
0
  71
0
  3
isocp.shx
  0
STYLE
  2
KICADI
  70
0
  40
0
  41
1
  42
1
  50
15
  71
0
  3
isocp.shx
  0
STYLE
  2
KICADBI
  70
0
  40
0
  41
1
  42
1
  50
15
  71
0
  3
isocp.shx
  0
ENDTAB
  0
TABLE
  2
LAYER
  70
1
  0
LAYER
  2
BLACK
  70
0
  62
7
  6
CONTINUOUS
  0
ENDTAB
  0
ENDSEC
  0
SECTION
  2
ENTITIES
0
LINE
8
BLACK
6
CONTINUOUS
10
191.5018239999999992
20
-111.3886819999999886
11
191.710757000000001
21
-111.4565690000000018
0
LINE
8
BLACK
6
CONTINUOUS
10
191.710757000000001
20
-111.4565690000000018
11
191.9064979999999991
21
-111.5563039999999972
0
LINE
8
BLACK
6
CONTINUOUS
10
191.9064979999999991
20
-111.5563039999999972
11
192.0842269999999985
21
-111.6854319999999916
0
LINE
8
BLACK
6
CONTINUOUS
10
192.0842269999999985
20
-111.6854319999999916
11
192.2395679999999913
21
-111.8407729999999987
0
LINE
8
BLACK
6
CONTINUOUS
10
192.2395679999999913
20
-111.8407729999999987
11
192.3686959999999999
21
-112.018501999999998
0
LINE
8
BLACK
6
CONTINUOUS
10
192.3686959999999999
20
-112.018501999999998
11
192.4684309999999812
21
-112.2142429999999962
0
LINE
8
BLACK
6
CONTINUOUS
10
192.4684309999999812
20
-112.2142429999999962
11
192.5363179999999943
21
-112.423175999999998
0
LINE
8
BLACK
6
CONTINUOUS
10
192.5363179999999943
20
-112.423175999999998
11
192.570684
21
-112.6401569999999879
0
LINE
8
BLACK
6
CONTINUOUS
10
192.570684
20
-112.6401569999999879
11
192.570684
21
-112.8598429999999979
0
LINE
8
BLACK
6
CONTINUOUS
10
192.570684
20
-112.8598429999999979
11
192.5363179999999943
21
-113.0768239999999878
0
LINE
8
BLACK
6
CONTINUOUS
10
192.5363179999999943
20
-113.0768239999999878
11
192.4684309999999812
21
-113.2857569999999896
0
LINE
8
BLACK
6
CONTINUOUS
10
192.4684309999999812
20
-113.2857569999999896
11
192.3686959999999999
21
-113.4814979999999878
0
LINE
8
BLACK
6
CONTINUOUS
10
192.3686959999999999
20
-113.4814979999999878
11
192.2395679999999913
21
-113.6592270000000013
0
LINE
8
BLACK
6
CONTINUOUS
10
192.2395679999999913
20
-113.6592270000000013
11
192.0842269999999985
21
-113.8145679999999942
0
LINE
8
BLACK
6
CONTINUOUS
10
192.0842269999999985
20
-113.8145679999999942
11
191.9064979999999991
21
-113.9436959999999885
0
LINE
8
BLACK
6
CONTINUOUS
10
191.9064979999999991
20
-113.9436959999999885
11
191.710757000000001
21
-114.0434309999999982
0
LINE
8
BLACK
6
CONTINUOUS
10
191.710757000000001
20
-114.0434309999999982
11
191.5018239999999992
21
-114.1113179999999971
0
LINE
8
BLACK
6
CONTINUOUS
10
191.5018239999999992
20
-114.1113179999999971
11
191.2848429999999951
21
-114.1456839999999886
0
LINE
8
BLACK
6
CONTINUOUS
10
191.2848429999999951
20
-114.1456839999999886
11
191.0651569999999992
21
-114.1456839999999886
0
LINE
8
BLACK
6
CONTINUOUS
10
191.0651569999999992
20
-114.1456839999999886
11
190.8481759999999952
21
-114.1113179999999971
0
LINE
8
BLACK
6
CONTINUOUS
10
190.8481759999999952
20
-114.1113179999999971
11
190.6392429999999933
21
-114.0434309999999982
0
LINE
8
BLACK
6
CONTINUOUS
10
190.6392429999999933
20
-114.0434309999999982
11
190.4435019999999952
21
-113.9436959999999885
0
LINE
8
BLACK
6
CONTINUOUS
10
190.4435019999999952
20
-113.9436959999999885
11
190.2657729999999958
21
-113.8145679999999942
0
LINE
8
BLACK
6
CONTINUOUS
10
190.2657729999999958
20
-113.8145679999999942
11
190.110432000000003
21
-113.6592270000000013
0
LINE
8
BLACK
6
CONTINUOUS
10
190.110432000000003
20
-113.6592270000000013
11
189.9813039999999944
21
-113.4814979999999878
0
LINE
8
BLACK
6
CONTINUOUS
10
189.9813039999999944
20
-113.4814979999999878
11
189.8815689999999847
21
-113.2857569999999896
0
LINE
8
BLACK
6
CONTINUOUS
10
189.8815689999999847
20
-113.2857569999999896
11
189.813682
21
-113.0768239999999878
0
LINE
8
BLACK
6
CONTINUOUS
10
189.813682
20
-113.0768239999999878
11
189.7793159999999943
21
-112.8598429999999979
0
LINE
8
BLACK
6
CONTINUOUS
10
189.7793159999999943
20
-112.8598429999999979
11
189.7793159999999943
21
-112.6437529999999896
0
LINE
8
BLACK
6
CONTINUOUS
10
189.7793159999999943
20
-112.6437529999999896
11
189.7793159999999943
21
-112.6401569999999879
0
LINE
8
BLACK
6
CONTINUOUS
10
189.7793159999999943
20
-112.6401569999999879
11
189.813682
21
-112.423175999999998
0
LINE
8
BLACK
6
CONTINUOUS
10
189.813682
20
-112.423175999999998
11
189.8815689999999847
21
-112.2142429999999962
0
LINE
8
BLACK
6
CONTINUOUS
10
189.8815689999999847
20
-112.2142429999999962
11
189.9813039999999944
21
-112.018501999999998
0
LINE
8
BLACK
6
CONTINUOUS
10
189.9813039999999944
20
-112.018501999999998
11
190.110432000000003
21
-111.8407729999999987
0
LINE
8
BLACK
6
CONTINUOUS
10
190.110432000000003
20
-111.8407729999999987
11
190.2657729999999958
21
-111.6854319999999916
0
LINE
8
BLACK
6
CONTINUOUS
10
190.2657729999999958
20
-111.6854319999999916
11
190.4435019999999952
21
-111.5563039999999972
0
LINE
8
BLACK
6
CONTINUOUS
10
190.4435019999999952
20
-111.5563039999999972
11
190.6392429999999933
21
-111.4565690000000018
0
LINE
8
BLACK
6
CONTINUOUS
10
190.6392429999999933
20
-111.4565690000000018
11
190.8481759999999952
21
-111.3886819999999886
0
LINE
8
BLACK
6
CONTINUOUS
10
190.8481759999999952
20
-111.3886819999999886
11
191.0651569999999992
21
-111.3543159999999972
0
LINE
8
BLACK
6
CONTINUOUS
10
191.0651569999999992
20
-111.3543159999999972
11
191.2848429999999951
21
-111.3543159999999972
0
LINE
8
BLACK
6
CONTINUOUS
10
191.2848429999999951
20
-111.3543159999999972
11
191.5018239999999992
21
-111.3886819999999886
0
LINE
8
BLACK
6
CONTINUOUS
10
189.8249999999999886
20
-112.8562469999999962
11
189.85824199999999
21
-113.066125999999997
0
LINE
8
BLACK
6
CONTINUOUS
10
189.85824199999999
20
-113.066125999999997
11
189.9239059999999881
21
-113.2682199999999995
0
LINE
8
BLACK
6
CONTINUOUS
10
189.9239059999999881
20
-113.2682199999999995
11
190.0203769999999963
21
-113.4575540000000018
0
LINE
8
BLACK
6
CONTINUOUS
10
190.0203769999999963
20
-113.4575540000000018
11
190.1452779999999905
21
-113.6294659999999936
0
LINE
8
BLACK
6
CONTINUOUS
10
190.1452779999999905
20
-113.6294659999999936
11
190.2955340000000035
21
-113.7797219999999925
0
LINE
8
BLACK
6
CONTINUOUS
10
190.2955340000000035
20
-113.7797219999999925
11
190.4674459999999954
21
-113.9046230000000008
0
LINE
8
BLACK
6
CONTINUOUS
10
190.4674459999999954
20
-113.9046230000000008
11
190.6567799999999977
21
-114.0010939999999948
0
LINE
8
BLACK
6
CONTINUOUS
10
190.6567799999999977
20
-114.0010939999999948
11
190.8588739999999859
21
-114.066757999999993
0
LINE
8
BLACK
6
CONTINUOUS
10
190.8588739999999859
20
-114.066757999999993
11
191.0687529999999867
21
-114.0999999999999943
0
LINE
8
BLACK
6
CONTINUOUS
10
191.0687529999999867
20
-114.0999999999999943
11
191.2812469999999792
21
-114.0999999999999943
0
LINE
8
BLACK
6
CONTINUOUS
10
191.2812469999999792
20
-114.0999999999999943
11
191.49112599999998
21
-114.066757999999993
0
LINE
8
BLACK
6
CONTINUOUS
10
191.49112599999998
20
-114.066757999999993
11
191.6932199999999966
21
-114.0010939999999948
0
LINE
8
BLACK
6
CONTINUOUS
10
191.6932199999999966
20
-114.0010939999999948
11
191.882553999999999
21
-113.9046230000000008
0
LINE
8
BLACK
6
CONTINUOUS
10
191.882553999999999
20
-113.9046230000000008
11
192.0544659999999908
21
-113.7797219999999925
0
LINE
8
BLACK
6
CONTINUOUS
10
192.0544659999999908
20
-113.7797219999999925
11
192.2047220000000038
21
-113.6294659999999936
0
LINE
8
BLACK
6
CONTINUOUS
10
192.2047220000000038
20
-113.6294659999999936
11
192.329622999999998
21
-113.4575540000000018
0
LINE
8
BLACK
6
CONTINUOUS
10
192.329622999999998
20
-113.4575540000000018
11
192.4260939999999778
21
-113.2682199999999995
0
LINE
8
BLACK
6
CONTINUOUS
10
192.4260939999999778
20
-113.2682199999999995
11
192.4917580000000044
21
-113.066125999999997
0
LINE
8
BLACK
6
CONTINUOUS
10
192.4917580000000044
20
-113.066125999999997
11
192.5249999999999773
21
-112.8562469999999962
0
LINE
8
BLACK
6
CONTINUOUS
10
192.5249999999999773
20
-112.8562469999999962
11
192.5249999999999773
21
-112.6437529999999896
0
LINE
8
BLACK
6
CONTINUOUS
10
192.5249999999999773
20
-112.6437529999999896
11
192.4917580000000044
21
-112.4338739999999888
0
LINE
8
BLACK
6
CONTINUOUS
10
192.4917580000000044
20
-112.4338739999999888
11
192.4260939999999778
21
-112.2317800000000005
0
LINE
8
BLACK
6
CONTINUOUS
10
192.4260939999999778
20
-112.2317800000000005
11
192.329622999999998
21
-112.0424459999999982
0
LINE
8
BLACK
6
CONTINUOUS
10
192.329622999999998
20
-112.0424459999999982
11
192.2047220000000038
21
-111.8705339999999921
0
LINE
8
BLACK
6
CONTINUOUS
10
192.2047220000000038
20
-111.8705339999999921
11
192.0544659999999908
21
-111.7202779999999933
0
LINE
8
BLACK
6
CONTINUOUS
10
192.0544659999999908
20
-111.7202779999999933
11
191.882553999999999
21
-111.5953769999999992
0
LINE
8
BLACK
6
CONTINUOUS
10
191.882553999999999
20
-111.5953769999999992
11
191.6932199999999966
21
-111.498905999999991
0
LINE
8
BLACK
6
CONTINUOUS
10
191.6932199999999966
20
-111.498905999999991
11
191.49112599999998
21
-111.4332419999999928
0
LINE
8
BLACK
6
CONTINUOUS
10
191.49112599999998
20
-111.4332419999999928
11
191.2812469999999792
21
-111.3999999999999915
0
LINE
8
BLACK
6
CONTINUOUS
10
191.2812469999999792
20
-111.3999999999999915
11
191.0687529999999867
21
-111.3999999999999915
0
LINE
8
BLACK
6
CONTINUOUS
10
191.0687529999999867
20
-111.3999999999999915
11
190.8588739999999859
21
-111.4332419999999928
0
LINE
8
BLACK
6
CONTINUOUS
10
190.8588739999999859
20
-111.4332419999999928
11
190.6567799999999977
21
-111.498905999999991
0
LINE
8
BLACK
6
CONTINUOUS
10
190.6567799999999977
20
-111.498905999999991
11
190.4674459999999954
21
-111.5953769999999992
0
LINE
8
BLACK
6
CONTINUOUS
10
190.4674459999999954
20
-111.5953769999999992
11
190.2955340000000035
21
-111.7202779999999933
0
LINE
8
BLACK
6
CONTINUOUS
10
190.2955340000000035
20
-111.7202779999999933
11
190.1452779999999905
21
-111.8705339999999921
0
LINE
8
BLACK
6
CONTINUOUS
10
190.1452779999999905
20
-111.8705339999999921
11
190.0203769999999963
21
-112.0424459999999982
0
LINE
8
BLACK
6
CONTINUOUS
10
190.0203769999999963
20
-112.0424459999999982
11
189.9239059999999881
21
-112.2317800000000005
0
LINE
8
BLACK
6
CONTINUOUS
10
189.9239059999999881
20
-112.2317800000000005
11
189.85824199999999
21
-112.4338739999999888
0
LINE
8
BLACK
6
CONTINUOUS
10
189.85824199999999
20
-112.4338739999999888
11
189.8249999999999886
21
-112.6437529999999896
0
LINE
8
BLACK
6
CONTINUOUS
10
189.8249999999999886
20
-112.6437529999999896
11
189.8249999999999886
21
-112.8562469999999962
0
LINE
8
BLACK
6
CONTINUOUS
10
239.2268239999999935
20
-84.2136819999999915
11
239.4357569999999953
21
-84.2815689999999904
0
LINE
8
BLACK
6
CONTINUOUS
10
239.4357569999999953
20
-84.2815689999999904
11
239.6314979999999935
21
-84.3813040000000001
0
LINE
8
BLACK
6
CONTINUOUS
10
239.6314979999999935
20
-84.3813040000000001
11
239.8092269999999928
21
-84.5104319999999944
0
LINE
8
BLACK
6
CONTINUOUS
10
239.8092269999999928
20
-84.5104319999999944
11
239.9645679999999857
21
-84.6657730000000015
0
LINE
8
BLACK
6
CONTINUOUS
10
239.9645679999999857
20
-84.6657730000000015
11
240.0936959999999942
21
-84.8435020000000009
0
LINE
8
BLACK
6
CONTINUOUS
10
240.0936959999999942
20
-84.8435020000000009
11
240.1934309999999755
21
-85.039242999999999
0
LINE
8
BLACK
6
CONTINUOUS
10
240.1934309999999755
20
-85.039242999999999
11
240.2613179999999886
21
-85.2481760000000008
0
LINE
8
BLACK
6
CONTINUOUS
10
240.2613179999999886
20
-85.2481760000000008
11
240.2956839999999943
21
-85.4651569999999907
0
LINE
8
BLACK
6
CONTINUOUS
10
240.2956839999999943
20
-85.4651569999999907
11
240.2956839999999943
21
-85.6848430000000008
0
LINE
8
BLACK
6
CONTINUOUS
10
240.2956839999999943
20
-85.6848430000000008
11
240.2613179999999886
21
-85.9018239999999906
0
LINE
8
BLACK
6
CONTINUOUS
10
240.2613179999999886
20
-85.9018239999999906
11
240.1934309999999755
21
-86.1107569999999924
0
LINE
8
BLACK
6
CONTINUOUS
10
240.1934309999999755
20
-86.1107569999999924
11
240.0936959999999942
21
-86.3064979999999906
0
LINE
8
BLACK
6
CONTINUOUS
10
240.0936959999999942
20
-86.3064979999999906
11
239.9645679999999857
21
-86.48422699999999
0
LINE
8
BLACK
6
CONTINUOUS
10
239.9645679999999857
20
-86.48422699999999
11
239.8092269999999928
21
-86.639567999999997
0
LINE
8
BLACK
6
CONTINUOUS
10
239.8092269999999928
20
-86.639567999999997
11
239.6314979999999935
21
-86.7686959999999914
0
LINE
8
BLACK
6
CONTINUOUS
10
239.6314979999999935
20
-86.7686959999999914
11
239.4357569999999953
21
-86.8684310000000011
0
LINE
8
BLACK
6
CONTINUOUS
10
239.4357569999999953
20
-86.8684310000000011
11
239.2268239999999935
21
-86.936318
0
LINE
8
BLACK
6
CONTINUOUS
10
239.2268239999999935
20
-86.936318
11
239.0098429999999894
21
-86.9706839999999914
0
LINE
8
BLACK
6
CONTINUOUS
10
239.0098429999999894
20
-86.9706839999999914
11
238.7901569999999936
21
-86.9706839999999914
0
LINE
8
BLACK
6
CONTINUOUS
10
238.7901569999999936
20
-86.9706839999999914
11
238.5731759999999895
21
-86.936318
0
LINE
8
BLACK
6
CONTINUOUS
10
238.5731759999999895
20
-86.936318
11
238.3642429999999877
21
-86.8684310000000011
0
LINE
8
BLACK
6
CONTINUOUS
10
238.3642429999999877
20
-86.8684310000000011
11
238.1685019999999895
21
-86.7686959999999914
0
LINE
8
BLACK
6
CONTINUOUS
10
238.1685019999999895
20
-86.7686959999999914
11
237.9907729999999901
21
-86.639567999999997
0
LINE
8
BLACK
6
CONTINUOUS
10
237.9907729999999901
20
-86.639567999999997
11
237.8354319999999973
21
-86.48422699999999
0
LINE
8
BLACK
6
CONTINUOUS
10
237.8354319999999973
20
-86.48422699999999
11
237.7063039999999887
21
-86.3064979999999906
0
LINE
8
BLACK
6
CONTINUOUS
10
237.7063039999999887
20
-86.3064979999999906
11
237.606568999999979
21
-86.1107569999999924
0
LINE
8
BLACK
6
CONTINUOUS
10
237.606568999999979
20
-86.1107569999999924
11
237.5386819999999943
21
-85.9018239999999906
0
LINE
8
BLACK
6
CONTINUOUS
10
237.5386819999999943
20
-85.9018239999999906
11
237.5043159999999887
21
-85.6848430000000008
0
LINE
8
BLACK
6
CONTINUOUS
10
237.5043159999999887
20
-85.6848430000000008
11
237.5043159999999887
21
-85.4687529999999924
0
LINE
8
BLACK
6
CONTINUOUS
10
237.5043159999999887
20
-85.4687529999999924
11
237.5043159999999887
21
-85.4651569999999907
0
LINE
8
BLACK
6
CONTINUOUS
10
237.5043159999999887
20
-85.4651569999999907
11
237.5386819999999943
21
-85.2481760000000008
0
LINE
8
BLACK
6
CONTINUOUS
10
237.5386819999999943
20
-85.2481760000000008
11
237.606568999999979
21
-85.039242999999999
0
LINE
8
BLACK
6
CONTINUOUS
10
237.606568999999979
20
-85.039242999999999
11
237.7063039999999887
21
-84.8435020000000009
0
LINE
8
BLACK
6
CONTINUOUS
10
237.7063039999999887
20
-84.8435020000000009
11
237.8354319999999973
21
-84.6657730000000015
0
LINE
8
BLACK
6
CONTINUOUS
10
237.8354319999999973
20
-84.6657730000000015
11
237.9907729999999901
21
-84.5104319999999944
0
LINE
8
BLACK
6
CONTINUOUS
10
237.9907729999999901
20
-84.5104319999999944
11
238.1685019999999895
21
-84.3813040000000001
0
LINE
8
BLACK
6
CONTINUOUS
10
238.1685019999999895
20
-84.3813040000000001
11
238.3642429999999877
21
-84.2815689999999904
0
LINE
8
BLACK
6
CONTINUOUS
10
238.3642429999999877
20
-84.2815689999999904
11
238.5731759999999895
21
-84.2136819999999915
0
LINE
8
BLACK
6
CONTINUOUS
10
238.5731759999999895
20
-84.2136819999999915
11
238.7901569999999936
21
-84.179316
0
LINE
8
BLACK
6
CONTINUOUS
10
238.7901569999999936
20
-84.179316
11
239.0098429999999894
21
-84.179316
0
LINE
8
BLACK
6
CONTINUOUS
10
239.0098429999999894
20
-84.179316
11
239.2268239999999935
21
-84.2136819999999915
0
LINE
8
BLACK
6
CONTINUOUS
10
237.5499999999999829
20
-85.681246999999999
11
237.5832419999999843
21
-85.8911259999999999
0
LINE
8
BLACK
6
CONTINUOUS
10
237.5832419999999843
20
-85.8911259999999999
11
237.6489059999999824
21
-86.0932200000000023
0
LINE
8
BLACK
6
CONTINUOUS
10
237.6489059999999824
20
-86.0932200000000023
11
237.7453769999999906
21
-86.2825539999999904
0
LINE
8
BLACK
6
CONTINUOUS
10
237.7453769999999906
20
-86.2825539999999904
11
237.8702779999999848
21
-86.4544659999999965
0
LINE
8
BLACK
6
CONTINUOUS
10
237.8702779999999848
20
-86.4544659999999965
11
238.0205339999999978
21
-86.6047219999999953
0
LINE
8
BLACK
6
CONTINUOUS
10
238.0205339999999978
20
-86.6047219999999953
11
238.1924459999999897
21
-86.7296229999999895
0
LINE
8
BLACK
6
CONTINUOUS
10
238.1924459999999897
20
-86.7296229999999895
11
238.381779999999992
21
-86.8260939999999977
0
LINE
8
BLACK
6
CONTINUOUS
10
238.381779999999992
20
-86.8260939999999977
11
238.5838739999999802
21
-86.8917579999999958
0
LINE
8
BLACK
6
CONTINUOUS
10
238.5838739999999802
20
-86.8917579999999958
11
238.7937529999999811
21
-86.9249999999999972
0
LINE
8
BLACK
6
CONTINUOUS
10
238.7937529999999811
20
-86.9249999999999972
11
239.0062470000000019
21
-86.9249999999999972
0
LINE
8
BLACK
6
CONTINUOUS
10
239.0062470000000019
20
-86.9249999999999972
11
239.2161260000000027
21
-86.8917579999999958
0
LINE
8
BLACK
6
CONTINUOUS
10
239.2161260000000027
20
-86.8917579999999958
11
239.4182199999999909
21
-86.8260939999999977
0
LINE
8
BLACK
6
CONTINUOUS
10
239.4182199999999909
20
-86.8260939999999977
11
239.6075539999999933
21
-86.7296229999999895
0
LINE
8
BLACK
6
CONTINUOUS
10
239.6075539999999933
20
-86.7296229999999895
11
239.7794659999999851
21
-86.6047219999999953
0
LINE
8
BLACK
6
CONTINUOUS
10
239.7794659999999851
20
-86.6047219999999953
11
239.9297219999999982
21
-86.4544659999999965
0
LINE
8
BLACK
6
CONTINUOUS
10
239.9297219999999982
20
-86.4544659999999965
11
240.0546229999999923
21
-86.2825539999999904
0
LINE
8
BLACK
6
CONTINUOUS
10
240.0546229999999923
20
-86.2825539999999904
11
240.1510940000000005
21
-86.0932200000000023
0
LINE
8
BLACK
6
CONTINUOUS
10
240.1510940000000005
20
-86.0932200000000023
11
240.2167579999999987
21
-85.8911259999999999
0
LINE
8
BLACK
6
CONTINUOUS
10
240.2167579999999987
20
-85.8911259999999999
11
240.25
21
-85.681246999999999
0
LINE
8
BLACK
6
CONTINUOUS
10
240.25
20
-85.681246999999999
11
240.25
21
-85.4687529999999924
0
LINE
8
BLACK
6
CONTINUOUS
10
240.25
20
-85.4687529999999924
11
240.2167579999999987
21
-85.2588739999999916
0
LINE
8
BLACK
6
CONTINUOUS
10
240.2167579999999987
20
-85.2588739999999916
11
240.1510940000000005
21
-85.0567799999999892
0
LINE
8
BLACK
6
CONTINUOUS
10
240.1510940000000005
20
-85.0567799999999892
11
240.0546229999999923
21
-84.867446000000001
0
LINE
8
BLACK
6
CONTINUOUS
10
240.0546229999999923
20
-84.867446000000001
11
239.9297219999999982
21
-84.695533999999995
0
LINE
8
BLACK
6
CONTINUOUS
10
239.9297219999999982
20
-84.695533999999995
11
239.7794659999999851
21
-84.5452779999999962
0
LINE
8
BLACK
6
CONTINUOUS
10
239.7794659999999851
20
-84.5452779999999962
11
239.6075539999999933
21
-84.420377000000002
0
LINE
8
BLACK
6
CONTINUOUS
10
239.6075539999999933
20
-84.420377000000002
11
239.4182199999999909
21
-84.3239059999999938
0
LINE
8
BLACK
6
CONTINUOUS
10
239.4182199999999909
20
-84.3239059999999938
11
239.2161260000000027
21
-84.2582419999999956
0
LINE
8
BLACK
6
CONTINUOUS
10
239.2161260000000027
20
-84.2582419999999956
11
239.0062470000000019
21
-84.2249999999999943
0
LINE
8
BLACK
6
CONTINUOUS
10
239.0062470000000019
20
-84.2249999999999943
11
238.7937529999999811
21
-84.2249999999999943
0
LINE
8
BLACK
6
CONTINUOUS
10
238.7937529999999811
20
-84.2249999999999943
11
238.5838739999999802
21
-84.2582419999999956
0
LINE
8
BLACK
6
CONTINUOUS
10
238.5838739999999802
20
-84.2582419999999956
11
238.381779999999992
21
-84.3239059999999938
0
LINE
8
BLACK
6
CONTINUOUS
10
238.381779999999992
20
-84.3239059999999938
11
238.1924459999999897
21
-84.420377000000002
0
LINE
8
BLACK
6
CONTINUOUS
10
238.1924459999999897
20
-84.420377000000002
11
238.0205339999999978
21
-84.5452779999999962
0
LINE
8
BLACK
6
CONTINUOUS
10
238.0205339999999978
20
-84.5452779999999962
11
237.8702779999999848
21
-84.695533999999995
0
LINE
8
BLACK
6
CONTINUOUS
10
237.8702779999999848
20
-84.695533999999995
11
237.7453769999999906
21
-84.867446000000001
0
LINE
8
BLACK
6
CONTINUOUS
10
237.7453769999999906
20
-84.867446000000001
11
237.6489059999999824
21
-85.0567799999999892
0
LINE
8
BLACK
6
CONTINUOUS
10
237.6489059999999824
20
-85.0567799999999892
11
237.5832419999999843
21
-85.2588739999999916
0
LINE
8
BLACK
6
CONTINUOUS
10
237.5832419999999843
20
-85.2588739999999916
11
237.5499999999999829
21
-85.4687529999999924
0
LINE
8
BLACK
6
CONTINUOUS
10
237.5499999999999829
20
-85.4687529999999924
11
237.5499999999999829
21
-85.681246999999999
0
LINE
8
BLACK
6
CONTINUOUS
10
190.7768240000000048
20
-84.188682
11
190.9857569999999782
21
-84.2565689999999989
0
LINE
8
BLACK
6
CONTINUOUS
10
190.9857569999999782
20
-84.2565689999999989
11
191.1814980000000048
21
-84.3563039999999944
0
LINE
8
BLACK
6
CONTINUOUS
10
191.1814980000000048
20
-84.3563039999999944
11
191.3592270000000042
21
-84.485432000000003
0
LINE
8
BLACK
6
CONTINUOUS
10
191.3592270000000042
20
-84.485432000000003
11
191.514567999999997
21
-84.6407729999999958
0
LINE
8
BLACK
6
CONTINUOUS
10
191.514567999999997
20
-84.6407729999999958
11
191.6436959999999772
21
-84.8185019999999952
0
LINE
8
BLACK
6
CONTINUOUS
10
191.6436959999999772
20
-84.8185019999999952
11
191.7434309999999869
21
-85.0142429999999933
0
LINE
8
BLACK
6
CONTINUOUS
10
191.7434309999999869
20
-85.0142429999999933
11
191.811318
21
-85.2231759999999952
0
LINE
8
BLACK
6
CONTINUOUS
10
191.811318
20
-85.2231759999999952
11
191.8456839999999772
21
-85.4401569999999992
0
LINE
8
BLACK
6
CONTINUOUS
10
191.8456839999999772
20
-85.4401569999999992
11
191.8456839999999772
21
-85.6598429999999951
0
LINE
8
BLACK
6
CONTINUOUS
10
191.8456839999999772
20
-85.6598429999999951
11
191.811318
21
-85.8768239999999992
0
LINE
8
BLACK
6
CONTINUOUS
10
191.811318
20
-85.8768239999999992
11
191.7434309999999869
21
-86.085757000000001
0
LINE
8
BLACK
6
CONTINUOUS
10
191.7434309999999869
20
-86.085757000000001
11
191.6436959999999772
21
-86.2814979999999991
0
LINE
8
BLACK
6
CONTINUOUS
10
191.6436959999999772
20
-86.2814979999999991
11
191.514567999999997
21
-86.4592269999999985
0
LINE
8
BLACK
6
CONTINUOUS
10
191.514567999999997
20
-86.4592269999999985
11
191.3592270000000042
21
-86.6145679999999913
0
LINE
8
BLACK
6
CONTINUOUS
10
191.3592270000000042
20
-86.6145679999999913
11
191.1814980000000048
21
-86.7436959999999999
0
LINE
8
BLACK
6
CONTINUOUS
10
191.1814980000000048
20
-86.7436959999999999
11
190.9857569999999782
21
-86.8434309999999954
0
LINE
8
BLACK
6
CONTINUOUS
10
190.9857569999999782
20
-86.8434309999999954
11
190.7768240000000048
21
-86.9113179999999943
0
LINE
8
BLACK
6
CONTINUOUS
10
190.7768240000000048
20
-86.9113179999999943
11
190.5598430000000008
21
-86.945684
0
LINE
8
BLACK
6
CONTINUOUS
10
190.5598430000000008
20
-86.945684
11
190.3401570000000049
21
-86.945684
0
LINE
8
BLACK
6
CONTINUOUS
10
190.3401570000000049
20
-86.945684
11
190.1231760000000008
21
-86.9113179999999943
0
LINE
8
BLACK
6
CONTINUOUS
10
190.1231760000000008
20
-86.9113179999999943
11
189.914242999999999
21
-86.8434309999999954
0
LINE
8
BLACK
6
CONTINUOUS
10
189.914242999999999
20
-86.8434309999999954
11
189.7185020000000009
21
-86.7436959999999999
0
LINE
8
BLACK
6
CONTINUOUS
10
189.7185020000000009
20
-86.7436959999999999
11
189.5407730000000015
21
-86.6145679999999913
0
LINE
8
BLACK
6
CONTINUOUS
10
189.5407730000000015
20
-86.6145679999999913
11
189.3854319999999802
21
-86.4592269999999985
0
LINE
8
BLACK
6
CONTINUOUS
10
189.3854319999999802
20
-86.4592269999999985
11
189.2563040000000001
21
-86.2814979999999991
0
LINE
8
BLACK
6
CONTINUOUS
10
189.2563040000000001
20
-86.2814979999999991
11
189.1565689999999904
21
-86.085757000000001
0
LINE
8
BLACK
6
CONTINUOUS
10
189.1565689999999904
20
-86.085757000000001
11
189.0886819999999773
21
-85.8768239999999992
0
LINE
8
BLACK
6
CONTINUOUS
10
189.0886819999999773
20
-85.8768239999999992
11
189.054316
21
-85.6598429999999951
0
LINE
8
BLACK
6
CONTINUOUS
10
189.054316
20
-85.6598429999999951
11
189.054316
21
-85.443753000000001
0
LINE
8
BLACK
6
CONTINUOUS
10
189.054316
20
-85.443753000000001
11
189.054316
21
-85.4401569999999992
0
LINE
8
BLACK
6
CONTINUOUS
10
189.054316
20
-85.4401569999999992
11
189.0886819999999773
21
-85.2231759999999952
0
LINE
8
BLACK
6
CONTINUOUS
10
189.0886819999999773
20
-85.2231759999999952
11
189.1565689999999904
21
-85.0142429999999933
0
LINE
8
BLACK
6
CONTINUOUS
10
189.1565689999999904
20
-85.0142429999999933
11
189.2563040000000001
21
-84.8185019999999952
0
LINE
8
BLACK
6
CONTINUOUS
10
189.2563040000000001
20
-84.8185019999999952
11
189.3854319999999802
21
-84.6407729999999958
0
LINE
8
BLACK
6
CONTINUOUS
10
189.3854319999999802
20
-84.6407729999999958
11
189.5407730000000015
21
-84.485432000000003
0
LINE
8
BLACK
6
CONTINUOUS
10
189.5407730000000015
20
-84.485432000000003
11
189.7185020000000009
21
-84.3563039999999944
0
LINE
8
BLACK
6
CONTINUOUS
10
189.7185020000000009
20
-84.3563039999999944
11
189.914242999999999
21
-84.2565689999999989
0
LINE
8
BLACK
6
CONTINUOUS
10
189.914242999999999
20
-84.2565689999999989
11
190.1231760000000008
21
-84.188682
0
LINE
8
BLACK
6
CONTINUOUS
10
190.1231760000000008
20
-84.188682
11
190.3401570000000049
21
-84.1543159999999943
0
LINE
8
BLACK
6
CONTINUOUS
10
190.3401570000000049
20
-84.1543159999999943
11
190.5598430000000008
21
-84.1543159999999943
0
LINE
8
BLACK
6
CONTINUOUS
10
190.5598430000000008
20
-84.1543159999999943
11
190.7768240000000048
21
-84.188682
0
LINE
8
BLACK
6
CONTINUOUS
10
189.0999999999999943
20
-85.6562469999999934
11
189.1332419999999956
21
-85.8661259999999942
0
LINE
8
BLACK
6
CONTINUOUS
10
189.1332419999999956
20
-85.8661259999999942
11
189.1989059999999938
21
-86.0682199999999966
0
LINE
8
BLACK
6
CONTINUOUS
10
189.1989059999999938
20
-86.0682199999999966
11
189.295377000000002
21
-86.257553999999999
0
LINE
8
BLACK
6
CONTINUOUS
10
189.295377000000002
20
-86.257553999999999
11
189.4202779999999962
21
-86.4294659999999908
0
LINE
8
BLACK
6
CONTINUOUS
10
189.4202779999999962
20
-86.4294659999999908
11
189.5705339999999808
21
-86.5797219999999896
0
LINE
8
BLACK
6
CONTINUOUS
10
189.5705339999999808
20
-86.5797219999999896
11
189.742446000000001
21
-86.704622999999998
0
LINE
8
BLACK
6
CONTINUOUS
10
189.742446000000001
20
-86.704622999999998
11
189.9317800000000034
21
-86.801093999999992
0
LINE
8
BLACK
6
CONTINUOUS
10
189.9317800000000034
20
-86.801093999999992
11
190.1338739999999916
21
-86.8667579999999901
0
LINE
8
BLACK
6
CONTINUOUS
10
190.1338739999999916
20
-86.8667579999999901
11
190.3437529999999924
21
-86.8999999999999915
0
LINE
8
BLACK
6
CONTINUOUS
10
190.3437529999999924
20
-86.8999999999999915
11
190.5562469999999848
21
-86.8999999999999915
0
LINE
8
BLACK
6
CONTINUOUS
10
190.5562469999999848
20
-86.8999999999999915
11
190.7661259999999857
21
-86.8667579999999901
0
LINE
8
BLACK
6
CONTINUOUS
10
190.7661259999999857
20
-86.8667579999999901
11
190.9682200000000023
21
-86.801093999999992
0
LINE
8
BLACK
6
CONTINUOUS
10
190.9682200000000023
20
-86.801093999999992
11
191.1575540000000046
21
-86.704622999999998
0
LINE
8
BLACK
6
CONTINUOUS
10
191.1575540000000046
20
-86.704622999999998
11
191.3294659999999965
21
-86.5797219999999896
0
LINE
8
BLACK
6
CONTINUOUS
10
191.3294659999999965
20
-86.5797219999999896
11
191.4797219999999811
21
-86.4294659999999908
0
LINE
8
BLACK
6
CONTINUOUS
10
191.4797219999999811
20
-86.4294659999999908
11
191.6046230000000037
21
-86.257553999999999
0
LINE
8
BLACK
6
CONTINUOUS
10
191.6046230000000037
20
-86.257553999999999
11
191.7010939999999835
21
-86.0682199999999966
0
LINE
8
BLACK
6
CONTINUOUS
10
191.7010939999999835
20
-86.0682199999999966
11
191.7667579999999816
21
-85.8661259999999942
0
LINE
8
BLACK
6
CONTINUOUS
10
191.7667579999999816
20
-85.8661259999999942
11
191.7999999999999829
21
-85.6562469999999934
0
LINE
8
BLACK
6
CONTINUOUS
10
191.7999999999999829
20
-85.6562469999999934
11
191.7999999999999829
21
-85.443753000000001
0
LINE
8
BLACK
6
CONTINUOUS
10
191.7999999999999829
20
-85.443753000000001
11
191.7667579999999816
21
-85.2338740000000001
0
LINE
8
BLACK
6
CONTINUOUS
10
191.7667579999999816
20
-85.2338740000000001
11
191.7010939999999835
21
-85.0317799999999977
0
LINE
8
BLACK
6
CONTINUOUS
10
191.7010939999999835
20
-85.0317799999999977
11
191.6046230000000037
21
-84.8424459999999954
0
LINE
8
BLACK
6
CONTINUOUS
10
191.6046230000000037
20
-84.8424459999999954
11
191.4797219999999811
21
-84.6705339999999893
0
LINE
8
BLACK
6
CONTINUOUS
10
191.4797219999999811
20
-84.6705339999999893
11
191.3294659999999965
21
-84.5202779999999905
0
LINE
8
BLACK
6
CONTINUOUS
10
191.3294659999999965
20
-84.5202779999999905
11
191.1575540000000046
21
-84.3953769999999963
0
LINE
8
BLACK
6
CONTINUOUS
10
191.1575540000000046
20
-84.3953769999999963
11
190.9682200000000023
21
-84.2989060000000023
0
LINE
8
BLACK
6
CONTINUOUS
10
190.9682200000000023
20
-84.2989060000000023
11
190.7661259999999857
21
-84.23324199999999
0
LINE
8
BLACK
6
CONTINUOUS
10
190.7661259999999857
20
-84.23324199999999
11
190.5562469999999848
21
-84.2000000000000028
0
LINE
8
BLACK
6
CONTINUOUS
10
190.5562469999999848
20
-84.2000000000000028
11
190.3437529999999924
21
-84.2000000000000028
0
LINE
8
BLACK
6
CONTINUOUS
10
190.3437529999999924
20
-84.2000000000000028
11
190.1338739999999916
21
-84.23324199999999
0
LINE
8
BLACK
6
CONTINUOUS
10
190.1338739999999916
20
-84.23324199999999
11
189.9317800000000034
21
-84.2989060000000023
0
LINE
8
BLACK
6
CONTINUOUS
10
189.9317800000000034
20
-84.2989060000000023
11
189.742446000000001
21
-84.3953769999999963
0
LINE
8
BLACK
6
CONTINUOUS
10
189.742446000000001
20
-84.3953769999999963
11
189.5705339999999808
21
-84.5202779999999905
0
LINE
8
BLACK
6
CONTINUOUS
10
189.5705339999999808
20
-84.5202779999999905
11
189.4202779999999962
21
-84.6705339999999893
0
LINE
8
BLACK
6
CONTINUOUS
10
189.4202779999999962
20
-84.6705339999999893
11
189.295377000000002
21
-84.8424459999999954
0
LINE
8
BLACK
6
CONTINUOUS
10
189.295377000000002
20
-84.8424459999999954
11
189.1989059999999938
21
-85.0317799999999977
0
LINE
8
BLACK
6
CONTINUOUS
10
189.1989059999999938
20
-85.0317799999999977
11
189.1332419999999956
21
-85.2338740000000001
0
LINE
8
BLACK
6
CONTINUOUS
10
189.1332419999999956
20
-85.2338740000000001
11
189.0999999999999943
21
-85.443753000000001
0
LINE
8
BLACK
6
CONTINUOUS
10
189.0999999999999943
20
-85.443753000000001
11
189.0999999999999943
21
-85.6562469999999934
0
LINE
8
BLACK
6
CONTINUOUS
10
222.4268239999999821
20
-84.188682
11
222.6357569999999839
21
-84.2565689999999989
0
LINE
8
BLACK
6
CONTINUOUS
10
222.6357569999999839
20
-84.2565689999999989
11
222.8314979999999821
21
-84.3563039999999944
0
LINE
8
BLACK
6
CONTINUOUS
10
222.8314979999999821
20
-84.3563039999999944
11
223.0092269999999814
21
-84.485432000000003
0
LINE
8
BLACK
6
CONTINUOUS
10
223.0092269999999814
20
-84.485432000000003
11
223.1645680000000027
21
-84.6407729999999958
0
LINE
8
BLACK
6
CONTINUOUS
10
223.1645680000000027
20
-84.6407729999999958
11
223.2936959999999829
21
-84.8185019999999952
0
LINE
8
BLACK
6
CONTINUOUS
10
223.2936959999999829
20
-84.8185019999999952
11
223.3934309999999925
21
-85.0142429999999933
0
LINE
8
BLACK
6
CONTINUOUS
10
223.3934309999999925
20
-85.0142429999999933
11
223.4613179999999772
21
-85.2231759999999952
0
LINE
8
BLACK
6
CONTINUOUS
10
223.4613179999999772
20
-85.2231759999999952
11
223.4956839999999829
21
-85.4401569999999992
0
LINE
8
BLACK
6
CONTINUOUS
10
223.4956839999999829
20
-85.4401569999999992
11
223.4956839999999829
21
-85.6598429999999951
0
LINE
8
BLACK
6
CONTINUOUS
10
223.4956839999999829
20
-85.6598429999999951
11
223.4613179999999772
21
-85.8768239999999992
0
LINE
8
BLACK
6
CONTINUOUS
10
223.4613179999999772
20
-85.8768239999999992
11
223.3934309999999925
21
-86.085757000000001
0
LINE
8
BLACK
6
CONTINUOUS
10
223.3934309999999925
20
-86.085757000000001
11
223.2936959999999829
21
-86.2814979999999991
0
LINE
8
BLACK
6
CONTINUOUS
10
223.2936959999999829
20
-86.2814979999999991
11
223.1645680000000027
21
-86.4592269999999985
0
LINE
8
BLACK
6
CONTINUOUS
10
223.1645680000000027
20
-86.4592269999999985
11
223.0092269999999814
21
-86.6145679999999913
0
LINE
8
BLACK
6
CONTINUOUS
10
223.0092269999999814
20
-86.6145679999999913
11
222.8314979999999821
21
-86.7436959999999999
0
LINE
8
BLACK
6
CONTINUOUS
10
222.8314979999999821
20
-86.7436959999999999
11
222.6357569999999839
21
-86.8434309999999954
0
LINE
8
BLACK
6
CONTINUOUS
10
222.6357569999999839
20
-86.8434309999999954
11
222.4268239999999821
21
-86.9113179999999943
0
LINE
8
BLACK
6
CONTINUOUS
10
222.4268239999999821
20
-86.9113179999999943
11
222.209842999999978
21
-86.945684
0
LINE
8
BLACK
6
CONTINUOUS
10
222.209842999999978
20
-86.945684
11
221.9901569999999822
21
-86.945684
0
LINE
8
BLACK
6
CONTINUOUS
10
221.9901569999999822
20
-86.945684
11
221.7731759999999781
21
-86.9113179999999943
0
LINE
8
BLACK
6
CONTINUOUS
10
221.7731759999999781
20
-86.9113179999999943
11
221.5642429999999763
21
-86.8434309999999954
0
LINE
8
BLACK
6
CONTINUOUS
10
221.5642429999999763
20
-86.8434309999999954
11
221.3685019999999781
21
-86.7436959999999999
0
LINE
8
BLACK
6
CONTINUOUS
10
221.3685019999999781
20
-86.7436959999999999
11
221.1907729999999788
21
-86.6145679999999913
0
LINE
8
BLACK
6
CONTINUOUS
10
221.1907729999999788
20
-86.6145679999999913
11
221.0354319999999859
21
-86.4592269999999985
0
LINE
8
BLACK
6
CONTINUOUS
10
221.0354319999999859
20
-86.4592269999999985
11
220.9063039999999773
21
-86.2814979999999991
0
LINE
8
BLACK
6
CONTINUOUS
10
220.9063039999999773
20
-86.2814979999999991
11
220.8065689999999961
21
-86.085757000000001
0
LINE
8
BLACK
6
CONTINUOUS
10
220.8065689999999961
20
-86.085757000000001
11
220.738681999999983
21
-85.8768239999999992
0
LINE
8
BLACK
6
CONTINUOUS
10
220.738681999999983
20
-85.8768239999999992
11
220.7043159999999773
21
-85.6598429999999951
0
LINE
8
BLACK
6
CONTINUOUS
10
220.7043159999999773
20
-85.6598429999999951
11
220.7043159999999773
21
-85.443753000000001
0
LINE
8
BLACK
6
CONTINUOUS
10
220.7043159999999773
20
-85.443753000000001
11
220.7043159999999773
21
-85.4401569999999992
0
LINE
8
BLACK
6
CONTINUOUS
10
220.7043159999999773
20
-85.4401569999999992
11
220.738681999999983
21
-85.2231759999999952
0
LINE
8
BLACK
6
CONTINUOUS
10
220.738681999999983
20
-85.2231759999999952
11
220.8065689999999961
21
-85.0142429999999933
0
LINE
8
BLACK
6
CONTINUOUS
10
220.8065689999999961
20
-85.0142429999999933
11
220.9063039999999773
21
-84.8185019999999952
0
LINE
8
BLACK
6
CONTINUOUS
10
220.9063039999999773
20
-84.8185019999999952
11
221.0354319999999859
21
-84.6407729999999958
0
LINE
8
BLACK
6
CONTINUOUS
10
221.0354319999999859
20
-84.6407729999999958
11
221.1907729999999788
21
-84.485432000000003
0
LINE
8
BLACK
6
CONTINUOUS
10
221.1907729999999788
20
-84.485432000000003
11
221.3685019999999781
21
-84.3563039999999944
0
LINE
8
BLACK
6
CONTINUOUS
10
221.3685019999999781
20
-84.3563039999999944
11
221.5642429999999763
21
-84.2565689999999989
0
LINE
8
BLACK
6
CONTINUOUS
10
221.5642429999999763
20
-84.2565689999999989
11
221.7731759999999781
21
-84.188682
0
LINE
8
BLACK
6
CONTINUOUS
10
221.7731759999999781
20
-84.188682
11
221.9901569999999822
21
-84.1543159999999943
0
LINE
8
BLACK
6
CONTINUOUS
10
221.9901569999999822
20
-84.1543159999999943
11
222.209842999999978
21
-84.1543159999999943
0
LINE
8
BLACK
6
CONTINUOUS
10
222.209842999999978
20
-84.1543159999999943
11
222.4268239999999821
21
-84.188682
0
LINE
8
BLACK
6
CONTINUOUS
10
220.75
20
-85.6562469999999934
11
220.7832420000000013
21
-85.8661259999999942
0
LINE
8
BLACK
6
CONTINUOUS
10
220.7832420000000013
20
-85.8661259999999942
11
220.8489059999999995
21
-86.0682199999999966
0
LINE
8
BLACK
6
CONTINUOUS
10
220.8489059999999995
20
-86.0682199999999966
11
220.9453769999999793
21
-86.257553999999999
0
LINE
8
BLACK
6
CONTINUOUS
10
220.9453769999999793
20
-86.257553999999999
11
221.0702780000000018
21
-86.4294659999999908
0
LINE
8
BLACK
6
CONTINUOUS
10
221.0702780000000018
20
-86.4294659999999908
11
221.2205339999999865
21
-86.5797219999999896
0
LINE
8
BLACK
6
CONTINUOUS
10
221.2205339999999865
20
-86.5797219999999896
11
221.3924459999999783
21
-86.704622999999998
0
LINE
8
BLACK
6
CONTINUOUS
10
221.3924459999999783
20
-86.704622999999998
11
221.5817799999999806
21
-86.801093999999992
0
LINE
8
BLACK
6
CONTINUOUS
10
221.5817799999999806
20
-86.801093999999992
11
221.7838739999999973
21
-86.8667579999999901
0
LINE
8
BLACK
6
CONTINUOUS
10
221.7838739999999973
20
-86.8667579999999901
11
221.9937529999999981
21
-86.8999999999999915
0
LINE
8
BLACK
6
CONTINUOUS
10
221.9937529999999981
20
-86.8999999999999915
11
222.2062469999999905
21
-86.8999999999999915
0
LINE
8
BLACK
6
CONTINUOUS
10
222.2062469999999905
20
-86.8999999999999915
11
222.4161259999999913
21
-86.8667579999999901
0
LINE
8
BLACK
6
CONTINUOUS
10
222.4161259999999913
20
-86.8667579999999901
11
222.6182199999999796
21
-86.801093999999992
0
LINE
8
BLACK
6
CONTINUOUS
10
222.6182199999999796
20
-86.801093999999992
11
222.8075539999999819
21
-86.704622999999998
0
LINE
8
BLACK
6
CONTINUOUS
10
222.8075539999999819
20
-86.704622999999998
11
222.9794660000000022
21
-86.5797219999999896
0
LINE
8
BLACK
6
CONTINUOUS
10
222.9794660000000022
20
-86.5797219999999896
11
223.1297219999999868
21
-86.4294659999999908
0
LINE
8
BLACK
6
CONTINUOUS
10
223.1297219999999868
20
-86.4294659999999908
11
223.2546229999999809
21
-86.257553999999999
0
LINE
8
BLACK
6
CONTINUOUS
10
223.2546229999999809
20
-86.257553999999999
11
223.3510939999999891
21
-86.0682199999999966
0
LINE
8
BLACK
6
CONTINUOUS
10
223.3510939999999891
20
-86.0682199999999966
11
223.4167579999999873
21
-85.8661259999999942
0
LINE
8
BLACK
6
CONTINUOUS
10
223.4167579999999873
20
-85.8661259999999942
11
223.4499999999999886
21
-85.6562469999999934
0
LINE
8
BLACK
6
CONTINUOUS
10
223.4499999999999886
20
-85.6562469999999934
11
223.4499999999999886
21
-85.443753000000001
0
LINE
8
BLACK
6
CONTINUOUS
10
223.4499999999999886
20
-85.443753000000001
11
223.4167579999999873
21
-85.2338740000000001
0
LINE
8
BLACK
6
CONTINUOUS
10
223.4167579999999873
20
-85.2338740000000001
11
223.3510939999999891
21
-85.0317799999999977
0
LINE
8
BLACK
6
CONTINUOUS
10
223.3510939999999891
20
-85.0317799999999977
11
223.2546229999999809
21
-84.8424459999999954
0
LINE
8
BLACK
6
CONTINUOUS
10
223.2546229999999809
20
-84.8424459999999954
11
223.1297219999999868
21
-84.6705339999999893
0
LINE
8
BLACK
6
CONTINUOUS
10
223.1297219999999868
20
-84.6705339999999893
11
222.9794660000000022
21
-84.5202779999999905
0
LINE
8
BLACK
6
CONTINUOUS
10
222.9794660000000022
20
-84.5202779999999905
11
222.8075539999999819
21
-84.3953769999999963
0
LINE
8
BLACK
6
CONTINUOUS
10
222.8075539999999819
20
-84.3953769999999963
11
222.6182199999999796
21
-84.2989060000000023
0
LINE
8
BLACK
6
CONTINUOUS
10
222.6182199999999796
20
-84.2989060000000023
11
222.4161259999999913
21
-84.23324199999999
0
LINE
8
BLACK
6
CONTINUOUS
10
222.4161259999999913
20
-84.23324199999999
11
222.2062469999999905
21
-84.2000000000000028
0
LINE
8
BLACK
6
CONTINUOUS
10
222.2062469999999905
20
-84.2000000000000028
11
221.9937529999999981
21
-84.2000000000000028
0
LINE
8
BLACK
6
CONTINUOUS
10
221.9937529999999981
20
-84.2000000000000028
11
221.7838739999999973
21
-84.23324199999999
0
LINE
8
BLACK
6
CONTINUOUS
10
221.7838739999999973
20
-84.23324199999999
11
221.5817799999999806
21
-84.2989060000000023
0
LINE
8
BLACK
6
CONTINUOUS
10
221.5817799999999806
20
-84.2989060000000023
11
221.3924459999999783
21
-84.3953769999999963
0
LINE
8
BLACK
6
CONTINUOUS
10
221.3924459999999783
20
-84.3953769999999963
11
221.2205339999999865
21
-84.5202779999999905
0
LINE
8
BLACK
6
CONTINUOUS
10
221.2205339999999865
20
-84.5202779999999905
11
221.0702780000000018
21
-84.6705339999999893
0
LINE
8
BLACK
6
CONTINUOUS
10
221.0702780000000018
20
-84.6705339999999893
11
220.9453769999999793
21
-84.8424459999999954
0
LINE
8
BLACK
6
CONTINUOUS
10
220.9453769999999793
20
-84.8424459999999954
11
220.8489059999999995
21
-85.0317799999999977
0
LINE
8
BLACK
6
CONTINUOUS
10
220.8489059999999995
20
-85.0317799999999977
11
220.7832420000000013
21
-85.2338740000000001
0
LINE
8
BLACK
6
CONTINUOUS
10
220.7832420000000013
20
-85.2338740000000001
11
220.75
21
-85.443753000000001
0
LINE
8
BLACK
6
CONTINUOUS
10
220.75
20
-85.443753000000001
11
220.75
21
-85.6562469999999934
0
LINE
8
BLACK
6
CONTINUOUS
10
251.3794079999999838
20
-82.5501239999999967
11
251.6934839999999838
21
-82.5695449999999909
0
LINE
8
BLACK
6
CONTINUOUS
10
251.6934839999999838
20
-82.5695449999999909
11
252.0038439999999866
21
-82.6214889999999968
0
LINE
8
BLACK
6
CONTINUOUS
10
252.0038439999999866
20
-82.6214889999999968
11
252.3071279999999774
21
-82.7053930000000008
0
LINE
8
BLACK
6
CONTINUOUS
10
252.3071279999999774
20
-82.7053930000000008
11
252.6000549999999976
21
-82.8203489999999931
0
LINE
8
BLACK
6
CONTINUOUS
10
252.6000549999999976
20
-82.8203489999999931
11
252.8794549999999788
21
-82.9651139999999998
0
LINE
8
BLACK
6
CONTINUOUS
10
252.8794549999999788
20
-82.9651139999999998
11
253.1423049999999932
21
-83.1381200000000007
0
LINE
8
BLACK
6
CONTINUOUS
10
253.1423049999999932
20
-83.1381200000000007
11
253.3857599999999763
21
-83.337496999999999
0
LINE
8
BLACK
6
CONTINUOUS
10
253.3857599999999763
20
-83.337496999999999
11
253.6071859999999845
21
-83.5610849999999914
0
LINE
8
BLACK
6
CONTINUOUS
10
253.6071859999999845
20
-83.5610849999999914
11
253.8041859999999872
21
-83.8064669999999978
0
LINE
8
BLACK
6
CONTINUOUS
10
253.8041859999999872
20
-83.8064669999999978
11
253.9746299999999906
21
-84.0709859999999907
0
LINE
8
BLACK
6
CONTINUOUS
10
253.9746299999999906
20
-84.0709859999999907
11
254.1166719999999941
21
-84.3517799999999909
0
LINE
8
BLACK
6
CONTINUOUS
10
254.1166719999999941
20
-84.3517799999999909
11
254.2287749999999846
21
-84.6458099999999973
0
LINE
8
BLACK
6
CONTINUOUS
10
254.2287749999999846
20
-84.6458099999999973
11
254.309726999999981
21
-84.9498959999999954
0
LINE
8
BLACK
6
CONTINUOUS
10
254.309726999999981
20
-84.9498959999999954
11
254.358651999999978
21
-85.2607459999999975
0
LINE
8
BLACK
6
CONTINUOUS
10
254.358651999999978
20
-85.2607459999999975
11
254.3750189999999805
21
-85.5749959999999987
0
LINE
8
BLACK
6
CONTINUOUS
10
254.3750189999999805
20
-85.5749959999999987
11
254.3750199999999779
21
-85.5749959999999987
0
LINE
8
BLACK
6
CONTINUOUS
10
254.3750199999999779
20
-85.5749959999999987
11
254.3749990000000025
21
-85.5750599999999935
0
LINE
8
BLACK
6
CONTINUOUS
10
254.3749990000000025
20
-85.5750599999999935
11
254.375
21
-85.8963309999999893
0
LINE
8
BLACK
6
CONTINUOUS
10
254.375
20
-85.8963309999999893
11
254.3749719999999854
21
-85.8964709999999911
0
LINE
8
BLACK
6
CONTINUOUS
10
254.3749719999999854
20
-85.8964709999999911
11
254.3749990000000025
21
-85.8965570000000014
0
LINE
8
BLACK
6
CONTINUOUS
10
254.3749990000000025
20
-85.8965570000000014
11
254.3557009999999821
21
-86.2120060000000024
0
LINE
8
BLACK
6
CONTINUOUS
10
254.3557009999999821
20
-86.2120060000000024
11
254.3037239999999883
21
-86.5237419999999986
0
LINE
8
BLACK
6
CONTINUOUS
10
254.3037239999999883
20
-86.5237419999999986
11
254.2196299999999951
21
-86.8283879999999897
0
LINE
8
BLACK
6
CONTINUOUS
10
254.2196299999999951
20
-86.8283879999999897
11
254.1043299999999761
21
-87.122643999999994
0
LINE
8
BLACK
6
CONTINUOUS
10
254.1043299999999761
20
-87.122643999999994
11
253.9590729999999894
21
-87.4033239999999978
0
LINE
8
BLACK
6
CONTINUOUS
10
253.9590729999999894
20
-87.4033239999999978
11
253.7854319999999859
21
-87.6673869999999908
0
LINE
8
BLACK
6
CONTINUOUS
10
253.7854319999999859
20
-87.6673869999999908
11
253.5852879999999914
21
-87.9119749999999982
0
LINE
8
BLACK
6
CONTINUOUS
10
253.5852879999999914
20
-87.9119749999999982
11
253.3608089999999891
21
-88.1344369999999913
0
LINE
8
BLACK
6
CONTINUOUS
10
253.3608089999999891
20
-88.1344369999999913
11
253.1144239999999854
21
-88.3323649999999958
0
LINE
8
BLACK
6
CONTINUOUS
10
253.1144239999999854
20
-88.3323649999999958
11
252.8488040000000012
21
-88.5036149999999964
0
LINE
8
BLACK
6
CONTINUOUS
10
252.8488040000000012
20
-88.5036149999999964
11
252.5668239999999969
21
-88.6463329999999985
0
LINE
8
BLACK
6
CONTINUOUS
10
252.5668239999999969
20
-88.6463329999999985
11
252.27153899999999
21
-88.758972
0
LINE
8
BLACK
6
CONTINUOUS
10
252.27153899999999
20
-88.758972
11
251.9661469999999781
21
-88.8403119999999973
0
LINE
8
BLACK
6
CONTINUOUS
10
251.9661469999999781
20
-88.8403119999999973
11
251.6539549999999963
21
-88.8894729999999953
0
LINE
8
BLACK
6
CONTINUOUS
10
251.6539549999999963
20
-88.8894729999999953
11
251.338343999999978
21
-88.9059230000000014
0
LINE
8
BLACK
6
CONTINUOUS
10
251.338343999999978
20
-88.9059230000000014
11
251.338343999999978
21
-88.9058380000000028
0
LINE
8
BLACK
6
CONTINUOUS
10
251.338343999999978
20
-88.9058380000000028
11
251.3383379999999931
21
-88.9058359999999936
0
LINE
8
BLACK
6
CONTINUOUS
10
251.3383379999999931
20
-88.9058359999999936
11
251.3383289999999874
21
-88.9058380000000028
0
LINE
8
BLACK
6
CONTINUOUS
10
251.3383289999999874
20
-88.9058380000000028
11
231.2998759999999834
21
-88.8940589999999986
0
LINE
8
BLACK
6
CONTINUOUS
10
231.2998759999999834
20
-88.8940589999999986
11
231.2998759999999834
21
-88.8940759999999983
0
LINE
8
BLACK
6
CONTINUOUS
10
231.2998759999999834
20
-88.8940759999999983
11
231.1337709999999959
21
-88.89402299999999
0
LINE
8
BLACK
6
CONTINUOUS
10
231.1337709999999959
20
-88.89402299999999
11
230.803623999999985
21
-88.9310059999999964
0
LINE
8
BLACK
6
CONTINUOUS
10
230.803623999999985
20
-88.9310059999999964
11
230.4796469999999999
21
-89.0045109999999937
0
LINE
8
BLACK
6
CONTINUOUS
10
230.4796469999999999
20
-89.0045109999999937
11
230.1658659999999941
21
-89.1136240000000015
0
LINE
8
BLACK
6
CONTINUOUS
10
230.1658659999999941
20
-89.1136240000000015
11
229.8661809999999832
21
-89.2569869999999952
0
LINE
8
BLACK
6
CONTINUOUS
10
229.8661809999999832
20
-89.2569869999999952
11
229.5843169999999986
21
-89.4328199999999924
0
LINE
8
BLACK
6
CONTINUOUS
10
229.5843169999999986
20
-89.4328199999999924
11
229.3237790000000018
21
-89.6389369999999985
0
LINE
8
BLACK
6
CONTINUOUS
10
229.3237790000000018
20
-89.6389369999999985
11
229.0878039999999771
21
-89.8727739999999926
0
LINE
8
BLACK
6
CONTINUOUS
10
229.0878039999999771
20
-89.8727739999999926
11
228.8793259999999918
21
-90.1314270000000022
0
LINE
8
BLACK
6
CONTINUOUS
10
228.8793259999999918
20
-90.1314270000000022
11
228.7009369999999819
21
-90.4116799999999898
0
LINE
8
BLACK
6
CONTINUOUS
10
228.7009369999999819
20
-90.4116799999999898
11
228.5548529999999801
21
-90.7100480000000005
0
LINE
8
BLACK
6
CONTINUOUS
10
228.5548529999999801
20
-90.7100480000000005
11
228.442891000000003
21
-91.022824
0
LINE
8
BLACK
6
CONTINUOUS
10
228.442891000000003
20
-91.022824
11
228.366441999999978
21
-91.3461190000000016
0
LINE
8
BLACK
6
CONTINUOUS
10
228.366441999999978
20
-91.3461190000000016
11
228.3264569999999765
21
-91.6759149999999892
0
LINE
8
BLACK
6
CONTINUOUS
10
228.3264569999999765
20
-91.6759149999999892
11
228.3249989999999912
21
-91.8420149999999893
0
LINE
8
BLACK
6
CONTINUOUS
10
228.3249989999999912
20
-91.8420149999999893
11
228.3240019999999788
21
-91.8449889999999982
0
LINE
8
BLACK
6
CONTINUOUS
10
228.3240019999999788
20
-91.8449889999999982
11
228.3249989999999912
21
-91.8497569999999968
0
LINE
8
BLACK
6
CONTINUOUS
10
228.3249989999999912
20
-91.8497569999999968
11
228.3749990000000025
21
-96.9960219999999964
0
LINE
8
BLACK
6
CONTINUOUS
10
228.3749990000000025
20
-96.9960219999999964
11
228.3749349999999936
21
-96.9963569999999891
0
LINE
8
BLACK
6
CONTINUOUS
10
228.3749349999999936
20
-96.9963569999999891
11
228.3749990000000025
21
-96.9965579999999932
0
LINE
8
BLACK
6
CONTINUOUS
10
228.3749990000000025
20
-96.9965579999999932
11
228.3749979999999766
21
-96.9965579999999932
0
LINE
8
BLACK
6
CONTINUOUS
10
228.3749979999999766
20
-96.9965579999999932
11
228.355764999999991
21
-97.3107749999999925
0
LINE
8
BLACK
6
CONTINUOUS
10
228.355764999999991
20
-97.3107749999999925
11
228.3039799999999957
21
-97.6212919999999968
0
LINE
8
BLACK
6
CONTINUOUS
10
228.3039799999999957
20
-97.6212919999999968
11
228.2202059999999904
21
-97.924745999999999
0
LINE
8
BLACK
6
CONTINUOUS
10
228.2202059999999904
20
-97.924745999999999
11
228.1053469999999948
21
-98.2178499999999985
0
LINE
8
BLACK
6
CONTINUOUS
10
228.1053469999999948
20
-98.2178499999999985
11
227.9606499999999869
21
-98.4974299999999943
0
LINE
8
BLACK
6
CONTINUOUS
10
227.9606499999999869
20
-98.4974299999999943
11
227.7876809999999921
21
-98.7604579999999999
0
LINE
8
BLACK
6
CONTINUOUS
10
227.7876809999999921
20
-98.7604579999999999
11
227.5883120000000019
21
-99.0040860000000009
0
LINE
8
BLACK
6
CONTINUOUS
10
227.5883120000000019
20
-99.0040860000000009
11
227.364703999999989
21
-99.2256759999999929
0
LINE
8
BLACK
6
CONTINUOUS
10
227.364703999999989
20
-99.2256759999999929
11
227.11927799999998
21
-99.4228260000000006
0
LINE
8
BLACK
6
CONTINUOUS
10
227.11927799999998
20
-99.4228260000000006
11
226.854692
21
-99.593402999999995
0
LINE
8
BLACK
6
CONTINUOUS
10
226.854692
20
-99.593402999999995
11
226.5738109999999779
21
-99.735558999999995
0
LINE
8
BLACK
6
CONTINUOUS
10
226.5738109999999779
20
-99.735558999999995
11
226.2796779999999899
21
-99.8477539999999948
0
LINE
8
BLACK
6
CONTINUOUS
10
226.2796779999999899
20
-99.8477539999999948
11
225.9754769999999837
21
-99.92877399999999
0
LINE
8
BLACK
6
CONTINUOUS
10
225.9754769999999837
20
-99.92877399999999
11
225.6645029999999963
21
-99.9777399999999972
0
LINE
8
BLACK
6
CONTINUOUS
10
225.6645029999999963
20
-99.9777399999999972
11
225.3501239999999939
21
-99.9941230000000019
0
LINE
8
BLACK
6
CONTINUOUS
10
225.3501239999999939
20
-99.9941230000000019
11
225.3501239999999939
21
-99.9940589999999929
0
LINE
8
BLACK
6
CONTINUOUS
10
225.3501239999999939
20
-99.9940589999999929
11
197.9000109999999779
21
-100.0058769999999981
0
LINE
8
BLACK
6
CONTINUOUS
10
197.9000109999999779
20
-100.0058769999999981
11
197.899926999999991
21
-100.0058599999999984
0
LINE
8
BLACK
6
CONTINUOUS
10
197.899926999999991
20
-100.0058599999999984
11
197.8998770000000036
21
-100.0058769999999981
0
LINE
8
BLACK
6
CONTINUOUS
10
197.8998770000000036
20
-100.0058769999999981
11
197.8998770000000036
21
-100.0058779999999956
0
LINE
8
BLACK
6
CONTINUOUS
10
197.8998770000000036
20
-100.0058779999999956
11
197.7337660000000028
21
-100.0058250000000015
0
LINE
8
BLACK
6
CONTINUOUS
10
197.7337660000000028
20
-100.0058250000000015
11
197.4036099999999863
21
-100.0428110000000004
0
LINE
8
BLACK
6
CONTINUOUS
10
197.4036099999999863
20
-100.0428110000000004
11
197.079622999999998
21
-100.1163200000000018
0
LINE
8
BLACK
6
CONTINUOUS
10
197.079622999999998
20
-100.1163200000000018
11
196.7658329999999864
21
-100.2254389999999944
0
LINE
8
BLACK
6
CONTINUOUS
10
196.7658329999999864
20
-100.2254389999999944
11
196.4661409999999933
21
-100.3688109999999938
0
LINE
8
BLACK
6
CONTINUOUS
10
196.4661409999999933
20
-100.3688109999999938
11
196.1842719999999929
21
-100.5446549999999917
0
LINE
8
BLACK
6
CONTINUOUS
10
196.1842719999999929
20
-100.5446549999999917
11
195.9237299999999777
21
-100.7507829999999984
0
LINE
8
BLACK
6
CONTINUOUS
10
195.9237299999999777
20
-100.7507829999999984
11
195.6877529999999865
21
-100.9846339999999998
0
LINE
8
BLACK
6
CONTINUOUS
10
195.6877529999999865
20
-100.9846339999999998
11
195.4792759999999987
21
-101.2433010000000024
0
LINE
8
BLACK
6
CONTINUOUS
10
195.4792759999999987
20
-101.2433010000000024
11
195.3008899999999812
21
-101.5235669999999999
0
LINE
8
BLACK
6
CONTINUOUS
10
195.3008899999999812
20
-101.5235669999999999
11
195.1548119999999926
21
-101.8219500000000011
0
LINE
8
BLACK
6
CONTINUOUS
10
195.1548119999999926
20
-101.8219500000000011
11
195.0428589999999929
21
-102.1347399999999936
0
LINE
8
BLACK
6
CONTINUOUS
10
195.0428589999999929
20
-102.1347399999999936
11
194.9664209999999969
21
-102.4580489999999884
0
LINE
8
BLACK
6
CONTINUOUS
10
194.9664209999999969
20
-102.4580489999999884
11
194.9264499999999884
21
-102.7878569999999883
0
LINE
8
BLACK
6
CONTINUOUS
10
194.9264499999999884
20
-102.7878569999999883
11
194.9249999999999829
21
-102.9539609999999925
0
LINE
8
BLACK
6
CONTINUOUS
10
194.9249999999999829
20
-102.9539609999999925
11
194.9132199999999955
21
-111.9962779999999896
0
LINE
8
BLACK
6
CONTINUOUS
10
194.9132199999999955
20
-111.9962779999999896
11
194.9131849999999986
21
-111.9964509999999933
0
LINE
8
BLACK
6
CONTINUOUS
10
194.9131849999999986
20
-111.9964509999999933
11
194.913218999999998
21
-111.9965579999999932
0
LINE
8
BLACK
6
CONTINUOUS
10
194.913218999999998
20
-111.9965579999999932
11
194.9132180000000005
21
-111.9965579999999932
0
LINE
8
BLACK
6
CONTINUOUS
10
194.9132180000000005
20
-111.9965579999999932
11
194.8939849999999865
21
-112.3107759999999899
0
LINE
8
BLACK
6
CONTINUOUS
10
194.8939849999999865
20
-112.3107759999999899
11
194.8422009999999887
21
-112.6212929999999943
0
LINE
8
BLACK
6
CONTINUOUS
10
194.8422009999999887
20
-112.6212929999999943
11
194.7584259999999858
21
-112.9247479999999939
0
LINE
8
BLACK
6
CONTINUOUS
10
194.7584259999999858
20
-112.9247479999999939
11
194.6435679999999877
21
-113.217852999999991
0
LINE
8
BLACK
6
CONTINUOUS
10
194.6435679999999877
20
-113.217852999999991
11
194.4988709999999799
21
-113.4974339999999984
0
LINE
8
BLACK
6
CONTINUOUS
10
194.4988709999999799
20
-113.4974339999999984
11
194.325901999999985
21
-113.7604630000000014
0
LINE
8
BLACK
6
CONTINUOUS
10
194.325901999999985
20
-113.7604630000000014
11
194.1265339999999924
21
-114.0040929999999975
0
LINE
8
BLACK
6
CONTINUOUS
10
194.1265339999999924
20
-114.0040929999999975
11
193.9029259999999795
21
-114.2256829999999894
0
LINE
8
BLACK
6
CONTINUOUS
10
193.9029259999999795
20
-114.2256829999999894
11
193.6574999999999989
21
-114.4228349999999921
0
LINE
8
BLACK
6
CONTINUOUS
10
193.6574999999999989
20
-114.4228349999999921
11
193.3929139999999904
21
-114.5934139999999957
0
LINE
8
BLACK
6
CONTINUOUS
10
193.3929139999999904
20
-114.5934139999999957
11
193.1120329999999967
21
-114.7355709999999931
0
LINE
8
BLACK
6
CONTINUOUS
10
193.1120329999999967
20
-114.7355709999999931
11
192.8178989999999828
21
-114.8477679999999879
0
LINE
8
BLACK
6
CONTINUOUS
10
192.8178989999999828
20
-114.8477679999999879
11
192.5136980000000051
21
-114.9287899999999922
0
LINE
8
BLACK
6
CONTINUOUS
10
192.5136980000000051
20
-114.9287899999999922
11
192.2027239999999892
21
-114.9777579999999944
0
LINE
8
BLACK
6
CONTINUOUS
10
192.2027239999999892
20
-114.9777579999999944
11
191.8883439999999894
21
-114.994142999999994
0
LINE
8
BLACK
6
CONTINUOUS
10
191.8883439999999894
20
-114.994142999999994
11
191.8883439999999894
21
-114.9940589999999929
0
LINE
8
BLACK
6
CONTINUOUS
10
191.8883439999999894
20
-114.9940589999999929
11
191.8882959999999969
21
-114.9940429999999907
0
LINE
8
BLACK
6
CONTINUOUS
10
191.8882959999999969
20
-114.9940429999999907
11
191.8882179999999948
21
-114.9940589999999929
0
LINE
8
BLACK
6
CONTINUOUS
10
191.8882179999999948
20
-114.9940589999999929
11
190.7316079999999943
21
-114.9882199999999983
0
LINE
8
BLACK
6
CONTINUOUS
10
190.7316079999999943
20
-114.9882199999999983
11
190.7296849999999893
21
-114.9878269999999958
0
LINE
8
BLACK
6
CONTINUOUS
10
190.7296849999999893
20
-114.9878269999999958
11
190.7284420000000011
21
-114.9882190000000008
0
LINE
8
BLACK
6
CONTINUOUS
10
190.7284420000000011
20
-114.9882190000000008
11
190.7284420000000011
21
-114.9882179999999892
0
LINE
8
BLACK
6
CONTINUOUS
10
190.7284420000000011
20
-114.9882179999999892
11
190.4142239999999902
21
-114.9689849999999893
0
LINE
8
BLACK
6
CONTINUOUS
10
190.4142239999999902
20
-114.9689849999999893
11
190.1037069999999858
21
-114.9172009999999915
0
LINE
8
BLACK
6
CONTINUOUS
10
190.1037069999999858
20
-114.9172009999999915
11
189.8002520000000004
21
-114.8334259999999887
0
LINE
8
BLACK
6
CONTINUOUS
10
189.8002520000000004
20
-114.8334259999999887
11
189.5071470000000033
21
-114.7185679999999905
0
LINE
8
BLACK
6
CONTINUOUS
10
189.5071470000000033
20
-114.7185679999999905
11
189.2275659999999959
21
-114.5738709999999969
0
LINE
8
BLACK
6
CONTINUOUS
10
189.2275659999999959
20
-114.5738709999999969
11
188.9645369999999787
21
-114.4009019999999879
0
LINE
8
BLACK
6
CONTINUOUS
10
188.9645369999999787
20
-114.4009019999999879
11
188.7209069999999826
21
-114.2015339999999952
0
LINE
8
BLACK
6
CONTINUOUS
10
188.7209069999999826
20
-114.2015339999999952
11
188.4993169999999907
21
-113.9779259999999965
0
LINE
8
BLACK
6
CONTINUOUS
10
188.4993169999999907
20
-113.9779259999999965
11
188.3021650000000022
21
-113.7325000000000017
0
LINE
8
BLACK
6
CONTINUOUS
10
188.3021650000000022
20
-113.7325000000000017
11
188.1315859999999986
21
-113.4679139999999933
0
LINE
8
BLACK
6
CONTINUOUS
10
188.1315859999999986
20
-113.4679139999999933
11
187.9894290000000012
21
-113.1870329999999996
0
LINE
8
BLACK
6
CONTINUOUS
10
187.9894290000000012
20
-113.1870329999999996
11
187.8772319999999922
21
-112.8928989999999999
0
LINE
8
BLACK
6
CONTINUOUS
10
187.8772319999999922
20
-112.8928989999999999
11
187.7962100000000021
21
-112.5886979999999937
0
LINE
8
BLACK
6
CONTINUOUS
10
187.7962100000000021
20
-112.5886979999999937
11
187.747242
21
-112.2777239999999921
0
LINE
8
BLACK
6
CONTINUOUS
10
187.747242
20
-112.2777239999999921
11
187.7308579999999836
21
-111.9633749999999992
0
LINE
8
BLACK
6
CONTINUOUS
10
187.7308579999999836
20
-111.9633749999999992
11
187.7308559999999886
21
-111.9633619999999894
0
LINE
8
BLACK
6
CONTINUOUS
10
187.7308559999999886
20
-111.9633619999999894
11
187.7118189999999913
21
-85.5535639999999944
0
LINE
8
BLACK
6
CONTINUOUS
10
187.7118189999999913
20
-85.5535639999999944
11
187.711781000000002
21
-85.5534419999999898
0
LINE
8
BLACK
6
CONTINUOUS
10
187.711781000000002
20
-85.5534419999999898
11
187.7117819999999995
21
-85.5534419999999898
0
LINE
8
BLACK
6
CONTINUOUS
10
187.7117819999999995
20
-85.5534419999999898
11
187.7118189999999913
21
-85.5528359999999992
0
LINE
8
BLACK
6
CONTINUOUS
10
187.7118189999999913
20
-85.5528359999999992
11
187.7118169999999964
21
-85.5500179999999943
0
LINE
8
BLACK
6
CONTINUOUS
10
187.7118169999999964
20
-85.5500179999999943
11
187.7120689999999854
21
-85.5487430000000018
0
LINE
8
BLACK
6
CONTINUOUS
10
187.7120689999999854
20
-85.5487430000000018
11
187.7310149999999851
21
-85.239223999999993
0
LINE
8
BLACK
6
CONTINUOUS
10
187.7310149999999851
20
-85.239223999999993
11
187.7827989999999829
21
-84.9287070000000028
0
LINE
8
BLACK
6
CONTINUOUS
10
187.7827989999999829
20
-84.9287070000000028
11
187.8665739999999857
21
-84.6252520000000032
0
LINE
8
BLACK
6
CONTINUOUS
10
187.8665739999999857
20
-84.6252520000000032
11
187.9814319999999839
21
-84.332146999999992
0
LINE
8
BLACK
6
CONTINUOUS
10
187.9814319999999839
20
-84.332146999999992
11
188.1261289999999917
21
-84.0525659999999988
0
LINE
8
BLACK
6
CONTINUOUS
10
188.1261289999999917
20
-84.0525659999999988
11
188.2990979999999865
21
-83.7895369999999957
0
LINE
8
BLACK
6
CONTINUOUS
10
188.2990979999999865
20
-83.7895369999999957
11
188.4984659999999792
21
-83.5459069999999997
0
LINE
8
BLACK
6
CONTINUOUS
10
188.4984659999999792
20
-83.5459069999999997
11
188.7220739999999921
21
-83.3243169999999935
0
LINE
8
BLACK
6
CONTINUOUS
10
188.7220739999999921
20
-83.3243169999999935
11
188.9675000000000011
21
-83.1271649999999909
0
LINE
8
BLACK
6
CONTINUOUS
10
188.9675000000000011
20
-83.1271649999999909
11
189.2320859999999811
21
-82.9565860000000015
0
LINE
8
BLACK
6
CONTINUOUS
10
189.2320859999999811
20
-82.9565860000000015
11
189.5129670000000033
21
-82.8144289999999899
0
LINE
8
BLACK
6
CONTINUOUS
10
189.5129670000000033
20
-82.8144289999999899
11
189.8071009999999887
21
-82.7022319999999951
0
LINE
8
BLACK
6
CONTINUOUS
10
189.8071009999999887
20
-82.7022319999999951
11
190.1113019999999949
21
-82.6212099999999907
0
LINE
8
BLACK
6
CONTINUOUS
10
190.1113019999999949
20
-82.6212099999999907
11
190.4222759999999823
21
-82.5722420000000028
0
LINE
8
BLACK
6
CONTINUOUS
10
190.4222759999999823
20
-82.5722420000000028
11
190.7366559999999822
21
-82.5558570000000032
0
LINE
8
BLACK
6
CONTINUOUS
10
190.7366559999999822
20
-82.5558570000000032
11
190.7366559999999822
21
-82.55594099999999
0
LINE
8
BLACK
6
CONTINUOUS
10
190.7366559999999822
20
-82.55594099999999
11
190.7366619999999955
21
-82.5559420000000017
0
LINE
8
BLACK
6
CONTINUOUS
10
190.7366619999999955
20
-82.5559420000000017
11
251.3791619999999796
21
-82.5501229999999993
0
LINE
8
BLACK
6
CONTINUOUS
10
251.3791619999999796
20
-82.5501229999999993
11
251.3793119999999988
21
-82.5501519999999971
0
LINE
8
BLACK
6
CONTINUOUS
10
251.3793119999999988
20
-82.5501519999999971
11
251.3794079999999838
21
-82.5501229999999993
0
LINE
8
BLACK
6
CONTINUOUS
10
251.3794079999999838
20
-82.5501229999999993
11
251.3794079999999838
21
-82.5501239999999967
0
LINE
8
BLACK
6
CONTINUOUS
10
190.7366579999999772
20
-82.6059429999999963
11
190.7362239999999929
21
-82.6058560000000028
0
LINE
8
BLACK
6
CONTINUOUS
10
190.7362239999999929
20
-82.6058560000000028
11
190.5705480000000023
21
-82.6058049999999895
0
LINE
8
BLACK
6
CONTINUOUS
10
190.5705480000000023
20
-82.6058049999999895
11
190.2403949999999782
21
-82.642792
0
LINE
8
BLACK
6
CONTINUOUS
10
190.2403949999999782
20
-82.642792
11
189.9164119999999798
21
-82.7163010000000014
0
LINE
8
BLACK
6
CONTINUOUS
10
189.9164119999999798
20
-82.7163010000000014
11
189.6026259999999866
21
-82.8254189999999966
0
LINE
8
BLACK
6
CONTINUOUS
10
189.6026259999999866
20
-82.8254189999999966
11
189.3029369999999858
21
-82.9687899999999985
0
LINE
8
BLACK
6
CONTINUOUS
10
189.3029369999999858
20
-82.9687899999999985
11
189.0210699999999804
21
-83.1446299999999923
0
LINE
8
BLACK
6
CONTINUOUS
10
189.0210699999999804
20
-83.1446299999999923
11
188.7605299999999886
21
-83.3507549999999924
0
LINE
8
BLACK
6
CONTINUOUS
10
188.7605299999999886
20
-83.3507549999999924
11
188.5245549999999923
21
-83.5846009999999922
0
LINE
8
BLACK
6
CONTINUOUS
10
188.5245549999999923
20
-83.5846009999999922
11
188.3160769999999786
21
-83.8432629999999932
0
LINE
8
BLACK
6
CONTINUOUS
10
188.3160769999999786
20
-83.8432629999999932
11
188.1376899999999921
21
-84.1235240000000033
0
LINE
8
BLACK
6
CONTINUOUS
10
188.1376899999999921
20
-84.1235240000000033
11
187.9916099999999801
21
-84.4219020000000029
0
LINE
8
BLACK
6
CONTINUOUS
10
187.9916099999999801
20
-84.4219020000000029
11
187.8796529999999905
21
-84.7346859999999964
0
LINE
8
BLACK
6
CONTINUOUS
10
187.8796529999999905
20
-84.7346859999999964
11
187.8032099999999787
21
-85.0579899999999895
0
LINE
8
BLACK
6
CONTINUOUS
10
187.8032099999999787
20
-85.0579899999999895
11
187.7632329999999854
21
-85.3877930000000021
0
LINE
8
BLACK
6
CONTINUOUS
10
187.7632329999999854
20
-85.3877930000000021
11
187.7618139999999869
21
-85.5499679999999927
0
LINE
8
BLACK
6
CONTINUOUS
10
187.7618139999999869
20
-85.5499679999999927
11
187.7618169999999793
21
-85.549982
0
LINE
8
BLACK
6
CONTINUOUS
10
187.7618169999999793
20
-85.549982
11
187.780856
21
-111.963325999999995
0
LINE
8
BLACK
6
CONTINUOUS
10
187.780856
20
-111.963325999999995
11
187.7808529999999791
21
-111.9633369999999957
0
LINE
8
BLACK
6
CONTINUOUS
10
187.7808529999999791
20
-111.9633369999999957
11
187.780856
21
-111.9633439999999922
0
LINE
8
BLACK
6
CONTINUOUS
10
187.780856
20
-111.9633439999999922
11
187.7808569999999975
21
-111.9633439999999922
0
LINE
8
BLACK
6
CONTINUOUS
10
187.7808569999999975
20
-111.9633439999999922
11
187.7808049999999866
21
-112.1294520000000006
0
LINE
8
BLACK
6
CONTINUOUS
10
187.7808049999999866
20
-112.1294520000000006
11
187.8177919999999972
21
-112.4596049999999963
0
LINE
8
BLACK
6
CONTINUOUS
10
187.8177919999999972
20
-112.4596049999999963
11
187.8913009999999986
21
-112.7835879999999946
0
LINE
8
BLACK
6
CONTINUOUS
10
187.8913009999999986
20
-112.7835879999999946
11
188.0004189999999937
21
-113.0973739999999879
0
LINE
8
BLACK
6
CONTINUOUS
10
188.0004189999999937
20
-113.0973739999999879
11
188.1437899999999956
21
-113.3970629999999886
0
LINE
8
BLACK
6
CONTINUOUS
10
188.1437899999999956
20
-113.3970629999999886
11
188.3196299999999894
21
-113.678929999999994
0
LINE
8
BLACK
6
CONTINUOUS
10
188.3196299999999894
20
-113.678929999999994
11
188.5257550000000037
21
-113.93947
0
LINE
8
BLACK
6
CONTINUOUS
10
188.5257550000000037
20
-113.93947
11
188.7596010000000035
21
-114.1754449999999963
0
LINE
8
BLACK
6
CONTINUOUS
10
188.7596010000000035
20
-114.1754449999999963
11
189.0182629999999904
21
-114.3839229999999958
0
LINE
8
BLACK
6
CONTINUOUS
10
189.0182629999999904
20
-114.3839229999999958
11
189.2985239999999862
21
-114.5623099999999965
0
LINE
8
BLACK
6
CONTINUOUS
10
189.2985239999999862
20
-114.5623099999999965
11
189.596902
21
-114.7083899999999943
0
LINE
8
BLACK
6
CONTINUOUS
10
189.596902
20
-114.7083899999999943
11
189.9096859999999936
21
-114.8203469999999982
0
LINE
8
BLACK
6
CONTINUOUS
10
189.9096859999999936
20
-114.8203469999999982
11
190.2329900000000009
21
-114.8967899999999958
0
LINE
8
BLACK
6
CONTINUOUS
10
190.2329900000000009
20
-114.8967899999999958
11
190.5627929999999992
21
-114.936766999999989
0
LINE
8
BLACK
6
CONTINUOUS
10
190.5627929999999992
20
-114.936766999999989
11
190.7288959999999918
21
-114.9382200000000012
0
LINE
8
BLACK
6
CONTINUOUS
10
190.7288959999999918
20
-114.9382200000000012
11
190.7288959999999918
21
-114.9382209999999986
0
LINE
8
BLACK
6
CONTINUOUS
10
190.7288959999999918
20
-114.9382209999999986
11
190.7299799999999834
21
-114.9385839999999916
0
LINE
8
BLACK
6
CONTINUOUS
10
190.7299799999999834
20
-114.9385839999999916
11
190.7318599999999833
21
-114.9382200000000012
0
LINE
8
BLACK
6
CONTINUOUS
10
190.7318599999999833
20
-114.9382200000000012
11
191.8884699999999839
21
-114.9440589999999958
0
LINE
8
BLACK
6
CONTINUOUS
10
191.8884699999999839
20
-114.9440589999999958
11
191.8888819999999953
21
-114.9441429999999968
0
LINE
8
BLACK
6
CONTINUOUS
10
191.8888819999999953
20
-114.9441429999999968
11
192.0544519999999977
21
-114.9441949999999935
0
LINE
8
BLACK
6
CONTINUOUS
10
192.0544519999999977
20
-114.9441949999999935
11
192.3846049999999934
21
-114.9072079999999971
0
LINE
8
BLACK
6
CONTINUOUS
10
192.3846049999999934
20
-114.9072079999999971
11
192.7085879999999918
21
-114.8336989999999957
0
LINE
8
BLACK
6
CONTINUOUS
10
192.7085879999999918
20
-114.8336989999999957
11
193.022373999999985
21
-114.7245810000000006
0
LINE
8
BLACK
6
CONTINUOUS
10
193.022373999999985
20
-114.7245810000000006
11
193.3220629999999858
21
-114.5812099999999987
0
LINE
8
BLACK
6
CONTINUOUS
10
193.3220629999999858
20
-114.5812099999999987
11
193.6039299999999912
21
-114.4053699999999907
0
LINE
8
BLACK
6
CONTINUOUS
10
193.6039299999999912
20
-114.4053699999999907
11
193.864469999999983
21
-114.1992449999999906
0
LINE
8
BLACK
6
CONTINUOUS
10
193.864469999999983
20
-114.1992449999999906
11
194.1004449999999792
21
-113.9653989999999908
0
LINE
8
BLACK
6
CONTINUOUS
10
194.1004449999999792
20
-113.9653989999999908
11
194.308922999999993
21
-113.7067369999999897
0
LINE
8
BLACK
6
CONTINUOUS
10
194.308922999999993
20
-113.7067369999999897
11
194.4873099999999795
21
-113.4264759999999939
0
LINE
8
BLACK
6
CONTINUOUS
10
194.4873099999999795
20
-113.4264759999999939
11
194.6333899999999915
21
-113.1280979999999943
0
LINE
8
BLACK
6
CONTINUOUS
10
194.6333899999999915
20
-113.1280979999999943
11
194.7453469999999811
21
-112.8153140000000008
0
LINE
8
BLACK
6
CONTINUOUS
10
194.7453469999999811
20
-112.8153140000000008
11
194.8217899999999929
21
-112.4920099999999934
0
LINE
8
BLACK
6
CONTINUOUS
10
194.8217899999999929
20
-112.4920099999999934
11
194.8617669999999862
21
-112.1622069999999951
0
LINE
8
BLACK
6
CONTINUOUS
10
194.8617669999999862
20
-112.1622069999999951
11
194.8632199999999841
21
-111.9961039999999883
0
LINE
8
BLACK
6
CONTINUOUS
10
194.8632199999999841
20
-111.9961039999999883
11
194.875
21
-102.9537019999999927
0
LINE
8
BLACK
6
CONTINUOUS
10
194.875
20
-102.9537019999999927
11
194.8750239999999962
21
-102.9535819999999973
0
LINE
8
BLACK
6
CONTINUOUS
10
194.8750239999999962
20
-102.9535819999999973
11
194.8750009999999975
21
-102.9535089999999968
0
LINE
8
BLACK
6
CONTINUOUS
10
194.8750009999999975
20
-102.9535089999999968
11
194.875001999999995
21
-102.9535089999999968
0
LINE
8
BLACK
6
CONTINUOUS
10
194.875001999999995
20
-102.9535089999999968
11
194.8942289999999957
21
-102.6392869999999959
0
LINE
8
BLACK
6
CONTINUOUS
10
194.8942289999999957
20
-102.6392869999999959
11
194.9460079999999778
21
-102.3287639999999925
0
LINE
8
BLACK
6
CONTINUOUS
10
194.9460079999999778
20
-102.3287639999999925
11
195.0297789999999907
21
-102.0253049999999888
0
LINE
8
BLACK
6
CONTINUOUS
10
195.0297789999999907
20
-102.0253049999999888
11
195.1446329999999989
21
-101.7321949999999902
0
LINE
8
BLACK
6
CONTINUOUS
10
195.1446329999999989
20
-101.7321949999999902
11
195.2893279999999834
21
-101.4526089999999954
0
LINE
8
BLACK
6
CONTINUOUS
10
195.2893279999999834
20
-101.4526089999999954
11
195.4622969999999782
21
-101.1895739999999932
0
LINE
8
BLACK
6
CONTINUOUS
10
195.4622969999999782
20
-101.1895739999999932
11
195.6616649999999993
21
-100.9459399999999931
0
LINE
8
BLACK
6
CONTINUOUS
10
195.6616649999999993
20
-100.9459399999999931
11
195.8852729999999838
21
-100.724345999999997
0
LINE
8
BLACK
6
CONTINUOUS
10
195.8852729999999838
20
-100.724345999999997
11
196.1307009999999877
21
-100.5271899999999903
0
LINE
8
BLACK
6
CONTINUOUS
10
196.1307009999999877
20
-100.5271899999999903
11
196.3952899999999886
21
-100.3566079999999943
0
LINE
8
BLACK
6
CONTINUOUS
10
196.3952899999999886
20
-100.3566079999999943
11
196.6761740000000032
21
-100.2144490000000019
0
LINE
8
BLACK
6
CONTINUOUS
10
196.6761740000000032
20
-100.2144490000000019
11
196.970310999999981
21
-100.1022509999999954
0
LINE
8
BLACK
6
CONTINUOUS
10
196.970310999999981
20
-100.1022509999999954
11
197.2745159999999771
21
-100.0212289999999911
0
LINE
8
BLACK
6
CONTINUOUS
10
197.2745159999999771
20
-100.0212289999999911
11
197.5854939999999829
21
-99.9722609999999889
0
LINE
8
BLACK
6
CONTINUOUS
10
197.5854939999999829
20
-99.9722609999999889
11
197.8998770000000036
21
-99.9558779999999985
0
LINE
8
BLACK
6
CONTINUOUS
10
197.8998770000000036
20
-99.9558779999999985
11
197.8998770000000036
21
-99.955877000000001
0
LINE
8
BLACK
6
CONTINUOUS
10
197.8998770000000036
20
-99.955877000000001
11
197.8999189999999828
21
-99.9558899999999966
0
LINE
8
BLACK
6
CONTINUOUS
10
197.8999189999999828
20
-99.9558899999999966
11
197.899989000000005
21
-99.955877000000001
0
LINE
8
BLACK
6
CONTINUOUS
10
197.899989000000005
20
-99.955877000000001
11
225.3501139999999907
21
-99.9440589999999958
0
LINE
8
BLACK
6
CONTINUOUS
10
225.3501139999999907
20
-99.9440589999999958
11
225.350120000000004
21
-99.9440599999999932
0
LINE
8
BLACK
6
CONTINUOUS
10
225.350120000000004
20
-99.9440599999999932
11
225.3501239999999939
21
-99.9440589999999958
0
LINE
8
BLACK
6
CONTINUOUS
10
225.3501239999999939
20
-99.9440589999999958
11
225.3501239999999939
21
-99.9440599999999932
0
LINE
8
BLACK
6
CONTINUOUS
10
225.3501239999999939
20
-99.9440599999999932
11
225.350436000000002
21
-99.9441229999999905
0
LINE
8
BLACK
6
CONTINUOUS
10
225.350436000000002
20
-99.9441229999999905
11
225.5162320000000022
21
-99.9441759999999988
0
LINE
8
BLACK
6
CONTINUOUS
10
225.5162320000000022
20
-99.9441759999999988
11
225.8463840000000005
21
-99.9071909999999974
0
LINE
8
BLACK
6
CONTINUOUS
10
225.8463840000000005
20
-99.9071909999999974
11
226.1703669999999988
21
-99.833683999999991
0
LINE
8
BLACK
6
CONTINUOUS
10
226.1703669999999988
20
-99.833683999999991
11
226.4841529999999921
21
-99.7245679999999908
0
LINE
8
BLACK
6
CONTINUOUS
10
226.4841529999999921
20
-99.7245679999999908
11
226.7838419999999928
21
-99.581198999999998
0
LINE
8
BLACK
6
CONTINUOUS
10
226.7838419999999928
20
-99.581198999999998
11
227.0657080000000008
21
-99.4053609999999992
0
LINE
8
BLACK
6
CONTINUOUS
10
227.0657080000000008
20
-99.4053609999999992
11
227.32624899999999
21
-99.199237999999994
0
LINE
8
BLACK
6
CONTINUOUS
10
227.32624899999999
20
-99.199237999999994
11
227.5622239999999863
21
-98.9653919999999943
0
LINE
8
BLACK
6
CONTINUOUS
10
227.5622239999999863
20
-98.9653919999999943
11
227.770702
21
-98.7067320000000024
0
LINE
8
BLACK
6
CONTINUOUS
10
227.770702
20
-98.7067320000000024
11
227.9490889999999865
21
-98.4264719999999897
0
LINE
8
BLACK
6
CONTINUOUS
10
227.9490889999999865
20
-98.4264719999999897
11
228.095169999999996
21
-98.1280950000000018
0
LINE
8
BLACK
6
CONTINUOUS
10
228.095169999999996
20
-98.1280950000000018
11
228.2071269999999856
21
-97.8153109999999941
0
LINE
8
BLACK
6
CONTINUOUS
10
228.2071269999999856
20
-97.8153109999999941
11
228.2835699999999974
21
-97.4920089999999959
0
LINE
8
BLACK
6
CONTINUOUS
10
228.2835699999999974
20
-97.4920089999999959
11
228.3235469999999907
21
-97.1622059999999976
0
LINE
8
BLACK
6
CONTINUOUS
10
228.3235469999999907
20
-97.1622059999999976
11
228.3249979999999937
21
-96.9962620000000015
0
LINE
8
BLACK
6
CONTINUOUS
10
228.3249979999999937
20
-96.9962620000000015
11
228.2750010000000032
21
-91.8502429999999919
0
LINE
8
BLACK
6
CONTINUOUS
10
228.2750010000000032
20
-91.8502429999999919
11
228.2760260000000017
21
-91.8448139999999995
0
LINE
8
BLACK
6
CONTINUOUS
10
228.2760260000000017
20
-91.8448139999999995
11
228.2750010000000032
21
-91.8415589999999895
0
LINE
8
BLACK
6
CONTINUOUS
10
228.2750010000000032
20
-91.8415589999999895
11
228.2942429999999945
21
-91.5273479999999893
0
LINE
8
BLACK
6
CONTINUOUS
10
228.2942429999999945
20
-91.5273479999999893
11
228.3460340000000031
21
-91.2168379999999956
0
LINE
8
BLACK
6
CONTINUOUS
10
228.3460340000000031
20
-91.2168379999999956
11
228.4298139999999933
21
-90.9133909999999901
0
LINE
8
BLACK
6
CONTINUOUS
10
228.4298139999999933
20
-90.9133909999999901
11
228.5446769999999788
21
-90.6202949999999987
0
LINE
8
BLACK
6
CONTINUOUS
10
228.5446769999999788
20
-90.6202949999999987
11
228.689376999999979
21
-90.3407219999999995
0
LINE
8
BLACK
6
CONTINUOUS
10
228.689376999999979
20
-90.3407219999999995
11
228.8623479999999972
21
-90.0777009999999905
0
LINE
8
BLACK
6
CONTINUOUS
10
228.8623479999999972
20
-90.0777009999999905
11
229.0617159999999899
21
-89.8340800000000002
0
LINE
8
BLACK
6
CONTINUOUS
10
229.0617159999999899
20
-89.8340800000000002
11
229.2853240000000028
21
-89.6124980000000022
0
LINE
8
BLACK
6
CONTINUOUS
10
229.2853240000000028
20
-89.6124980000000022
11
229.5307479999999885
21
-89.4153539999999936
0
LINE
8
BLACK
6
CONTINUOUS
10
229.5307479999999885
20
-89.4153539999999936
11
229.795330999999976
21
-89.2447820000000007
0
LINE
8
BLACK
6
CONTINUOUS
10
229.795330999999976
20
-89.2447820000000007
11
230.0762089999999773
21
-89.1026310000000024
0
LINE
8
BLACK
6
CONTINUOUS
10
230.0762089999999773
20
-89.1026310000000024
11
230.3703379999999754
21
-88.9904399999999924
0
LINE
8
BLACK
6
CONTINUOUS
10
230.3703379999999754
20
-88.9904399999999924
11
230.6745339999999942
21
-88.9094229999999897
0
LINE
8
BLACK
6
CONTINUOUS
10
230.6745339999999942
20
-88.9094229999999897
11
230.9855019999999968
21
-88.8604579999999942
0
LINE
8
BLACK
6
CONTINUOUS
10
230.9855019999999968
20
-88.8604579999999942
11
231.2997799999999984
21
-88.8440810000000027
0
LINE
8
BLACK
6
CONTINUOUS
10
231.2997799999999984
20
-88.8440810000000027
11
231.2998759999999834
21
-88.8440609999999964
0
LINE
8
BLACK
6
CONTINUOUS
10
231.2998759999999834
20
-88.8440609999999964
11
231.2998759999999834
21
-88.8440590000000014
0
LINE
8
BLACK
6
CONTINUOUS
10
231.2998759999999834
20
-88.8440590000000014
11
231.2998809999999992
21
-88.8440599999999989
0
LINE
8
BLACK
6
CONTINUOUS
10
231.2998809999999992
20
-88.8440599999999989
11
231.2998910000000024
21
-88.8440590000000014
0
LINE
8
BLACK
6
CONTINUOUS
10
231.2998910000000024
20
-88.8440590000000014
11
251.3383579999999995
21
-88.8558379999999914
0
LINE
8
BLACK
6
CONTINUOUS
10
251.3383579999999995
20
-88.8558379999999914
11
251.3387839999999755
21
-88.85592299999999
0
LINE
8
BLACK
6
CONTINUOUS
10
251.3387839999999755
20
-88.85592299999999
11
251.5051139999999918
21
-88.8559739999999891
0
LINE
8
BLACK
6
CONTINUOUS
10
251.5051139999999918
20
-88.8559739999999891
11
251.8365809999999954
21
-88.818838999999997
0
LINE
8
BLACK
6
CONTINUOUS
10
251.8365809999999954
20
-88.818838999999997
11
252.1618539999999768
21
-88.7450359999999989
0
LINE
8
BLACK
6
CONTINUOUS
10
252.1618539999999768
20
-88.7450359999999989
11
252.4768889999999999
21
-88.6354809999999986
0
LINE
8
BLACK
6
CONTINUOUS
10
252.4768889999999999
20
-88.6354809999999986
11
252.7777699999999754
21
-88.4915359999999964
0
LINE
8
BLACK
6
CONTINUOUS
10
252.7777699999999754
20
-88.4915359999999964
11
253.0607569999999953
21
-88.3149919999999895
0
LINE
8
BLACK
6
CONTINUOUS
10
253.0607569999999953
20
-88.3149919999999895
11
253.3223309999999913
21
-88.108042999999995
0
LINE
8
BLACK
6
CONTINUOUS
10
253.3223309999999913
20
-88.108042999999995
11
253.5592419999999834
21
-87.8732609999999994
0
LINE
8
BLACK
6
CONTINUOUS
10
253.5592419999999834
20
-87.8732609999999994
11
253.7685439999999915
21
-87.6135649999999941
0
LINE
8
BLACK
6
CONTINUOUS
10
253.7685439999999915
20
-87.6135649999999941
11
253.9476359999999886
21
-87.3321830000000006
0
LINE
8
BLACK
6
CONTINUOUS
10
253.9476359999999886
20
-87.3321830000000006
11
254.0942900000000009
21
-87.0326139999999953
0
LINE
8
BLACK
6
CONTINUOUS
10
254.0942900000000009
20
-87.0326139999999953
11
254.2066839999999956
21
-86.7185810000000004
0
LINE
8
BLACK
6
CONTINUOUS
10
254.2066839999999956
20
-86.7185810000000004
11
254.2834209999999757
21
-86.3939869999999956
0
LINE
8
BLACK
6
CONTINUOUS
10
254.2834209999999757
20
-86.3939869999999956
11
254.3235469999999907
21
-86.0628689999999921
0
LINE
8
BLACK
6
CONTINUOUS
10
254.3235469999999907
20
-86.0628689999999921
11
254.3249989999999912
21
-85.8962190000000021
0
LINE
8
BLACK
6
CONTINUOUS
10
254.3249989999999912
20
-85.8962190000000021
11
254.3249989999999912
21
-85.5749959999999987
0
LINE
8
BLACK
6
CONTINUOUS
10
254.3249989999999912
20
-85.5749959999999987
11
254.3250189999999975
21
-85.5748949999999979
0
LINE
8
BLACK
6
CONTINUOUS
10
254.3250189999999975
20
-85.5748949999999979
11
254.3250769999999932
21
-85.4089559999999892
0
LINE
8
BLACK
6
CONTINUOUS
10
254.3250769999999932
20
-85.4089559999999892
11
254.2881239999999821
21
-85.0789369999999963
0
LINE
8
BLACK
6
CONTINUOUS
10
254.2881239999999821
20
-85.0789369999999963
11
254.2146789999999896
21
-84.7550799999999924
0
LINE
8
BLACK
6
CONTINUOUS
10
254.2146789999999896
20
-84.7550799999999924
11
254.1056519999999921
21
-84.4414069999999981
0
LINE
8
BLACK
6
CONTINUOUS
10
254.1056519999999921
20
-84.4414069999999981
11
253.9623989999999765
21
-84.1418129999999991
0
LINE
8
BLACK
6
CONTINUOUS
10
253.9623989999999765
20
-84.1418129999999991
11
253.7866989999999987
21
-83.8600210000000033
0
LINE
8
BLACK
6
CONTINUOUS
10
253.7866989999999987
20
-83.8600210000000033
11
253.5807329999999808
21
-83.5995289999999898
0
LINE
8
BLACK
6
CONTINUOUS
10
253.5807329999999808
20
-83.5995289999999898
11
253.3470609999999965
21
-83.3635739999999998
0
LINE
8
BLACK
6
CONTINUOUS
10
253.3470609999999965
20
-83.3635739999999998
11
253.0885829999999999
21
-83.1550859999999972
0
LINE
8
BLACK
6
CONTINUOUS
10
253.0885829999999999
20
-83.1550859999999972
11
252.808511999999979
21
-82.9766549999999938
0
LINE
8
BLACK
6
CONTINUOUS
10
252.808511999999979
20
-82.9766549999999938
11
252.5103249999999946
21
-82.830496999999994
0
LINE
8
BLACK
6
CONTINUOUS
10
252.5103249999999946
20
-82.830496999999994
11
252.1977269999999862
21
-82.7184259999999938
0
LINE
8
BLACK
6
CONTINUOUS
10
252.1977269999999862
20
-82.7184259999999938
11
251.8745989999999892
21
-82.6418359999999979
0
LINE
8
BLACK
6
CONTINUOUS
10
251.8745989999999892
20
-82.6418359999999979
11
251.5449549999999874
21
-82.6016779999999926
0
LINE
8
BLACK
6
CONTINUOUS
10
251.5449549999999874
20
-82.6016779999999926
11
251.3790300000000002
21
-82.6001229999999964
0
LINE
8
BLACK
6
CONTINUOUS
10
251.3790300000000002
20
-82.6001229999999964
11
190.7366579999999772
21
-82.6059429999999963
  0
ENDSEC
  0
EOF
