  0
SECTION
  2
HEADER
  9
$ANGBASE
  50
0.0
  9
$ANGDIR
  70
1
  9
$MEASUREMENT
  70
1
  0
ENDSEC
  0
SECTION
  2
TABLES
  0
TABLE
  2
LTYPE
  70
4
  0
LTYPE
  5
40F
  2
CONTINUOUS
  70
0
  3
Solid line
  72
65
  73
0
  40
0.0
  0
LTYPE
  5
410
  2
DASHDOT
 70
0
  3
Dash Dot ____ _ ____ _
 72
65
 73
4
 40
2.0
 49
1.25
 49
-0.25
 49
0.25
 49
-0.25
  0
LTYPE
  5
411
  2
DASHED
 70
0
  3
Dashed __ __ __ __ __
 72
65
 73
2
 40
0.75
 49
0.5
 49
-0.25
  0
LTYPE
  5
43B
  2
DOTTED
 70
0
  3
Dotted .  .  .  .
 72
65
 73
2
 40
0.2
 49
0.0
 49
-0.2
  0
ENDTAB
  0
TABLE
  2
STYLE
  70
4
  0
STYLE
  2
KICAD
  70
0
  40
0
  41
1
  42
1
  50
0
  71
0
  3
isocp.shx
  0
STYLE
  2
KICADB
  70
0
  40
0
  41
1
  42
1
  50
0
  71
0
  3
isocp.shx
  0
STYLE
  2
KICADI
  70
0
  40
0
  41
1
  42
1
  50
15
  71
0
  3
isocp.shx
  0
STYLE
  2
KICADBI
  70
0
  40
0
  41
1
  42
1
  50
15
  71
0
  3
isocp.shx
  0
ENDTAB
  0
TABLE
  2
LAYER
  70
1
  0
LAYER
  2
BLACK
  70
0
  62
7
  6
CONTINUOUS
  0
ENDTAB
  0
ENDSEC
  0
SECTION
  2
ENTITIES
0
LINE
8
BLACK
6
CONTINUOUS
10
217.5918069999999886
20
-87.1845379999999892
11
217.7783539999999789
21
-87.2451509999999928
0
LINE
8
BLACK
6
CONTINUOUS
10
217.7783539999999789
20
-87.2451509999999928
11
217.9531229999999766
21
-87.3341999999999956
0
LINE
8
BLACK
6
CONTINUOUS
10
217.9531229999999766
20
-87.3341999999999956
11
218.1118099999999913
21
-87.4494929999999897
0
LINE
8
BLACK
6
CONTINUOUS
10
218.1118099999999913
20
-87.4494929999999897
11
218.2505069999999989
21
-87.5881899999999973
0
LINE
8
BLACK
6
CONTINUOUS
10
218.2505069999999989
20
-87.5881899999999973
11
218.3657999999999788
21
-87.7468769999999978
0
LINE
8
BLACK
6
CONTINUOUS
10
218.3657999999999788
20
-87.7468769999999978
11
218.4548489999999958
21
-87.9216459999999955
0
LINE
8
BLACK
6
CONTINUOUS
10
218.4548489999999958
20
-87.9216459999999955
11
218.5154619999999852
21
-88.108193
0
LINE
8
BLACK
6
CONTINUOUS
10
218.5154619999999852
20
-88.108193
11
218.5461469999999906
21
-88.3019259999999946
0
LINE
8
BLACK
6
CONTINUOUS
10
218.5461469999999906
20
-88.3019259999999946
11
218.5461469999999906
21
-88.4980740000000026
0
LINE
8
BLACK
6
CONTINUOUS
10
218.5461469999999906
20
-88.4980740000000026
11
218.5154619999999852
21
-88.6918069999999972
0
LINE
8
BLACK
6
CONTINUOUS
10
218.5154619999999852
20
-88.6918069999999972
11
218.4548489999999958
21
-88.8783540000000016
0
LINE
8
BLACK
6
CONTINUOUS
10
218.4548489999999958
20
-88.8783540000000016
11
218.3657999999999788
21
-89.0531229999999994
0
LINE
8
BLACK
6
CONTINUOUS
10
218.3657999999999788
20
-89.0531229999999994
11
218.2505069999999989
21
-89.2118099999999998
0
LINE
8
BLACK
6
CONTINUOUS
10
218.2505069999999989
20
-89.2118099999999998
11
218.1118099999999913
21
-89.3505069999999932
0
LINE
8
BLACK
6
CONTINUOUS
10
218.1118099999999913
20
-89.3505069999999932
11
217.9531229999999766
21
-89.4658000000000015
0
LINE
8
BLACK
6
CONTINUOUS
10
217.9531229999999766
20
-89.4658000000000015
11
217.7783539999999789
21
-89.5548489999999902
0
LINE
8
BLACK
6
CONTINUOUS
10
217.7783539999999789
20
-89.5548489999999902
11
217.5918069999999886
21
-89.6154619999999937
0
LINE
8
BLACK
6
CONTINUOUS
10
217.5918069999999886
20
-89.6154619999999937
11
217.3980739999999798
21
-89.6461469999999991
0
LINE
8
BLACK
6
CONTINUOUS
10
217.3980739999999798
20
-89.6461469999999991
11
217.2019259999999861
21
-89.6461469999999991
0
LINE
8
BLACK
6
CONTINUOUS
10
217.2019259999999861
20
-89.6461469999999991
11
217.0081929999999772
21
-89.6154619999999937
0
LINE
8
BLACK
6
CONTINUOUS
10
217.0081929999999772
20
-89.6154619999999937
11
216.821645999999987
21
-89.5548489999999902
0
LINE
8
BLACK
6
CONTINUOUS
10
216.821645999999987
20
-89.5548489999999902
11
216.6468769999999893
21
-89.4658000000000015
0
LINE
8
BLACK
6
CONTINUOUS
10
216.6468769999999893
20
-89.4658000000000015
11
216.5307219999999973
21
-89.3814089999999908
0
LINE
8
BLACK
6
CONTINUOUS
10
216.5307219999999973
20
-89.3814089999999908
11
212.8060659999999871
21
-93.1060659999999984
0
LINE
8
BLACK
6
CONTINUOUS
10
212.8060659999999871
20
-93.1060659999999984
11
212.7833349999999939
21
-93.1247209999999939
0
LINE
8
BLACK
6
CONTINUOUS
10
212.7833349999999939
20
-93.1247209999999939
11
212.7516609999999844
21
-93.1378399999999971
0
LINE
8
BLACK
6
CONTINUOUS
10
212.7516609999999844
20
-93.1378399999999971
11
212.7292640000000006
21
-93.1471179999999919
0
LINE
8
BLACK
6
CONTINUOUS
10
212.7292640000000006
20
-93.1471179999999919
11
212.6999999999999886
21
-93.1499999999999915
0
LINE
8
BLACK
6
CONTINUOUS
10
212.6999999999999886
20
-93.1499999999999915
11
202.1621319999999855
21
-93.1499999999999915
0
LINE
8
BLACK
6
CONTINUOUS
10
202.1621319999999855
20
-93.1499999999999915
11
197.6314089999999908
21
-97.6807219999999887
0
LINE
8
BLACK
6
CONTINUOUS
10
197.6314089999999908
20
-97.6807219999999887
11
197.7158000000000015
21
-97.796876999999995
0
LINE
8
BLACK
6
CONTINUOUS
10
197.7158000000000015
20
-97.796876999999995
11
197.8048489999999902
21
-97.9716459999999927
0
LINE
8
BLACK
6
CONTINUOUS
10
197.8048489999999902
20
-97.9716459999999927
11
197.8654619999999795
21
-98.1581929999999971
0
LINE
8
BLACK
6
CONTINUOUS
10
197.8654619999999795
20
-98.1581929999999971
11
197.8961469999999849
21
-98.3519259999999917
0
LINE
8
BLACK
6
CONTINUOUS
10
197.8961469999999849
20
-98.3519259999999917
11
197.8961469999999849
21
-98.5480739999999997
0
LINE
8
BLACK
6
CONTINUOUS
10
197.8961469999999849
20
-98.5480739999999997
11
197.8654619999999795
21
-98.7418069999999943
0
LINE
8
BLACK
6
CONTINUOUS
10
197.8654619999999795
20
-98.7418069999999943
11
197.8048489999999902
21
-98.9283539999999988
0
LINE
8
BLACK
6
CONTINUOUS
10
197.8048489999999902
20
-98.9283539999999988
11
197.7158000000000015
21
-99.1031229999999965
0
LINE
8
BLACK
6
CONTINUOUS
10
197.7158000000000015
20
-99.1031229999999965
11
197.6005069999999932
21
-99.261809999999997
0
LINE
8
BLACK
6
CONTINUOUS
10
197.6005069999999932
20
-99.261809999999997
11
197.4618099999999856
21
-99.4005069999999904
0
LINE
8
BLACK
6
CONTINUOUS
10
197.4618099999999856
20
-99.4005069999999904
11
197.3031229999999994
21
-99.5157999999999987
0
LINE
8
BLACK
6
CONTINUOUS
10
197.3031229999999994
20
-99.5157999999999987
11
197.1283540000000016
21
-99.6048490000000015
0
LINE
8
BLACK
6
CONTINUOUS
10
197.1283540000000016
20
-99.6048490000000015
11
196.941806999999983
21
-99.6654619999999909
0
LINE
8
BLACK
6
CONTINUOUS
10
196.941806999999983
20
-99.6654619999999909
11
196.7480740000000026
21
-99.6961469999999963
0
LINE
8
BLACK
6
CONTINUOUS
10
196.7480740000000026
20
-99.6961469999999963
11
196.5519259999999804
21
-99.6961469999999963
0
LINE
8
BLACK
6
CONTINUOUS
10
196.5519259999999804
20
-99.6961469999999963
11
196.358193
21
-99.6654619999999909
0
LINE
8
BLACK
6
CONTINUOUS
10
196.358193
20
-99.6654619999999909
11
196.1716459999999813
21
-99.6048490000000015
0
LINE
8
BLACK
6
CONTINUOUS
10
196.1716459999999813
20
-99.6048490000000015
11
195.9968769999999836
21
-99.5157999999999987
0
LINE
8
BLACK
6
CONTINUOUS
10
195.9968769999999836
20
-99.5157999999999987
11
195.8381899999999973
21
-99.4005069999999904
0
LINE
8
BLACK
6
CONTINUOUS
10
195.8381899999999973
20
-99.4005069999999904
11
195.6994929999999897
21
-99.261809999999997
0
LINE
8
BLACK
6
CONTINUOUS
10
195.6994929999999897
20
-99.261809999999997
11
195.5841999999999814
21
-99.1031229999999965
0
LINE
8
BLACK
6
CONTINUOUS
10
195.5841999999999814
20
-99.1031229999999965
11
195.4951509999999928
21
-98.9283539999999988
0
LINE
8
BLACK
6
CONTINUOUS
10
195.4951509999999928
20
-98.9283539999999988
11
195.4345380000000034
21
-98.7418069999999943
0
LINE
8
BLACK
6
CONTINUOUS
10
195.4345380000000034
20
-98.7418069999999943
11
195.403852999999998
21
-98.5480739999999997
0
LINE
8
BLACK
6
CONTINUOUS
10
195.403852999999998
20
-98.5480739999999997
11
195.403852999999998
21
-98.3519259999999917
0
LINE
8
BLACK
6
CONTINUOUS
10
195.403852999999998
20
-98.3519259999999917
11
195.4345380000000034
21
-98.1581929999999971
0
LINE
8
BLACK
6
CONTINUOUS
10
195.4345380000000034
20
-98.1581929999999971
11
195.4951509999999928
21
-97.9716459999999927
0
LINE
8
BLACK
6
CONTINUOUS
10
195.4951509999999928
20
-97.9716459999999927
11
195.5841999999999814
21
-97.796876999999995
0
LINE
8
BLACK
6
CONTINUOUS
10
195.5841999999999814
20
-97.796876999999995
11
195.6994929999999897
21
-97.6381899999999945
0
LINE
8
BLACK
6
CONTINUOUS
10
195.6994929999999897
20
-97.6381899999999945
11
195.8381899999999973
21
-97.4994930000000011
0
LINE
8
BLACK
6
CONTINUOUS
10
195.8381899999999973
20
-97.4994930000000011
11
195.9968769999999836
21
-97.3841999999999928
0
LINE
8
BLACK
6
CONTINUOUS
10
195.9968769999999836
20
-97.3841999999999928
11
196.1716459999999813
21
-97.2951509999999899
0
LINE
8
BLACK
6
CONTINUOUS
10
196.1716459999999813
20
-97.2951509999999899
11
196.358193
21
-97.2345380000000006
0
LINE
8
BLACK
6
CONTINUOUS
10
196.358193
20
-97.2345380000000006
11
196.5519259999999804
21
-97.2038529999999952
0
LINE
8
BLACK
6
CONTINUOUS
10
196.5519259999999804
20
-97.2038529999999952
11
196.7480740000000026
21
-97.2038529999999952
0
LINE
8
BLACK
6
CONTINUOUS
10
196.7480740000000026
20
-97.2038529999999952
11
196.941806999999983
21
-97.2345380000000006
0
LINE
8
BLACK
6
CONTINUOUS
10
196.941806999999983
20
-97.2345380000000006
11
197.1283540000000016
21
-97.2951509999999899
0
LINE
8
BLACK
6
CONTINUOUS
10
197.1283540000000016
20
-97.2951509999999899
11
197.3031229999999994
21
-97.3841999999999928
0
LINE
8
BLACK
6
CONTINUOUS
10
197.3031229999999994
20
-97.3841999999999928
11
197.4192769999999939
21
-97.4685899999999918
0
LINE
8
BLACK
6
CONTINUOUS
10
197.4192769999999939
20
-97.4685899999999918
11
201.9939339999999959
21
-92.8939340000000016
0
LINE
8
BLACK
6
CONTINUOUS
10
201.9939339999999959
20
-92.8939340000000016
11
202.016664999999989
21
-92.8752789999999919
0
LINE
8
BLACK
6
CONTINUOUS
10
202.016664999999989
20
-92.8752789999999919
11
202.0483389999999986
21
-92.8621589999999912
0
LINE
8
BLACK
6
CONTINUOUS
10
202.0483389999999986
20
-92.8621589999999912
11
202.0707359999999824
21
-92.8528819999999939
0
LINE
8
BLACK
6
CONTINUOUS
10
202.0707359999999824
20
-92.8528819999999939
11
202.0999999999999943
21
-92.8499999999999943
0
LINE
8
BLACK
6
CONTINUOUS
10
202.0999999999999943
20
-92.8499999999999943
11
212.6378679999999974
21
-92.8499999999999943
0
LINE
8
BLACK
6
CONTINUOUS
10
212.6378679999999974
20
-92.8499999999999943
11
216.3185900000000004
21
-89.1692769999999939
0
LINE
8
BLACK
6
CONTINUOUS
10
216.3185900000000004
20
-89.1692769999999939
11
216.2341999999999871
21
-89.0531229999999994
0
LINE
8
BLACK
6
CONTINUOUS
10
216.2341999999999871
20
-89.0531229999999994
11
216.1451509999999985
21
-88.8783540000000016
0
LINE
8
BLACK
6
CONTINUOUS
10
216.1451509999999985
20
-88.8783540000000016
11
216.0845379999999807
21
-88.6918069999999972
0
LINE
8
BLACK
6
CONTINUOUS
10
216.0845379999999807
20
-88.6918069999999972
11
216.0538530000000037
21
-88.4980740000000026
0
LINE
8
BLACK
6
CONTINUOUS
10
216.0538530000000037
20
-88.4980740000000026
11
216.0538530000000037
21
-88.3019259999999946
0
LINE
8
BLACK
6
CONTINUOUS
10
216.0538530000000037
20
-88.3019259999999946
11
216.0845379999999807
21
-88.108193
0
LINE
8
BLACK
6
CONTINUOUS
10
216.0845379999999807
20
-88.108193
11
216.1451509999999985
21
-87.9216459999999955
0
LINE
8
BLACK
6
CONTINUOUS
10
216.1451509999999985
20
-87.9216459999999955
11
216.2341999999999871
21
-87.7468769999999978
0
LINE
8
BLACK
6
CONTINUOUS
10
216.2341999999999871
20
-87.7468769999999978
11
216.3494929999999954
21
-87.5881899999999973
0
LINE
8
BLACK
6
CONTINUOUS
10
216.3494929999999954
20
-87.5881899999999973
11
216.488190000000003
21
-87.4494929999999897
0
LINE
8
BLACK
6
CONTINUOUS
10
216.488190000000003
20
-87.4494929999999897
11
216.6468769999999893
21
-87.3341999999999956
0
LINE
8
BLACK
6
CONTINUOUS
10
216.6468769999999893
20
-87.3341999999999956
11
216.821645999999987
21
-87.2451509999999928
0
LINE
8
BLACK
6
CONTINUOUS
10
216.821645999999987
20
-87.2451509999999928
11
217.0081929999999772
21
-87.1845379999999892
0
LINE
8
BLACK
6
CONTINUOUS
10
217.0081929999999772
20
-87.1845379999999892
11
217.2019259999999861
21
-87.153852999999998
0
LINE
8
BLACK
6
CONTINUOUS
10
217.2019259999999861
20
-87.153852999999998
11
217.3980739999999798
21
-87.153852999999998
0
LINE
8
BLACK
6
CONTINUOUS
10
217.3980739999999798
20
-87.153852999999998
11
217.5918069999999886
21
-87.1845379999999892
0
CIRCLE
8
BLACK
10
217.2999999999999829
20
-88.3999999999999915
40
0.45
0
CIRCLE
8
BLACK
10
196.6499999999999773
20
-98.4499999999999886
40
0.45
  0
ENDSEC
  0
EOF
