%TF.GenerationSoftware,KiCad,Pcbnew,9.0.0*%
%TF.CreationDate,2025-07-21T10:24:21-07:00*%
%TF.ProjectId,chordlet,63686f72-646c-4657-942e-6b696361645f,rev?*%
%TF.SameCoordinates,Original*%
%TF.FileFunction,Profile,NP*%
%FSLAX46Y46*%
G04 Gerber Fmt 4.6, Leading zero omitted, Abs format (unit mm)*
G04 Created by KiCad (PCBNEW 9.0.0) date 2025-07-21 10:24:21*
%MOMM*%
%LPD*%
G01*
G04 APERTURE LIST*
%TA.AperFunction,Profile*%
%ADD10C,0.050000*%
%TD*%
G04 APERTURE END LIST*
D10*
X191825000Y-85550000D02*
G75*
G02*
X189075000Y-85550000I-1375000J0D01*
G01*
X189075000Y-85550000D02*
G75*
G02*
X191825000Y-85550000I1375000J0D01*
G01*
X228350000Y-96996331D02*
G75*
G02*
X225350124Y-99969124I-2999900J27231D01*
G01*
X192550000Y-112750000D02*
G75*
G02*
X189800000Y-112750000I-1375000J0D01*
G01*
X189800000Y-112750000D02*
G75*
G02*
X192550000Y-112750000I1375000J0D01*
G01*
X197900000Y-99980877D02*
X225350124Y-99969059D01*
X194888220Y-111996245D02*
X194900000Y-102953735D01*
X240275000Y-85575000D02*
G75*
G02*
X237525000Y-85575000I-1375000J0D01*
G01*
X237525000Y-85575000D02*
G75*
G02*
X240275000Y-85575000I1375000J0D01*
G01*
X190736656Y-82580943D02*
X251379165Y-82575123D01*
X187736780Y-85553669D02*
G75*
G02*
X190736656Y-82580856I2999920J-27231D01*
G01*
X187755856Y-111963344D02*
X187736817Y-85550000D01*
X190728669Y-114963220D02*
G75*
G02*
X187755856Y-111963344I27231J2999920D01*
G01*
X194888220Y-111996331D02*
G75*
G02*
X191888344Y-114969144I-2999920J27231D01*
G01*
X254350000Y-85896331D02*
G75*
G02*
X251338344Y-88880923I-3011700J27231D01*
G01*
X251379165Y-82575122D02*
G75*
G02*
X254350020Y-85574996I-29165J-2999878D01*
G01*
X228300000Y-91850000D02*
X228350000Y-96996265D01*
X191888344Y-114969059D02*
X190731734Y-114963220D01*
X194900000Y-102953735D02*
G75*
G02*
X197899877Y-99980877I2999900J-27165D01*
G01*
X251338344Y-88880838D02*
X231299876Y-88869059D01*
X254349999Y-85574996D02*
X254350000Y-85896331D01*
X223475000Y-85550000D02*
G75*
G02*
X220725000Y-85550000I-1375000J0D01*
G01*
X220725000Y-85550000D02*
G75*
G02*
X223475000Y-85550000I1375000J0D01*
G01*
X228300000Y-91841787D02*
G75*
G02*
X231299876Y-88869076I2999900J-27313D01*
G01*
M02*
