  0
SECTION
  2
HEADER
  9
$ANGBASE
  50
0.0
  9
$ANGDIR
  70
1
  9
$MEASUREMENT
  70
1
  0
ENDSEC
  0
SECTION
  2
TABLES
  0
TABLE
  2
LTYPE
  70
4
  0
LTYPE
  5
40F
  2
CONTINUOUS
  70
0
  3
Solid line
  72
65
  73
0
  40
0.0
  0
LTYPE
  5
410
  2
DASHDOT
 70
0
  3
Dash Dot ____ _ ____ _
 72
65
 73
4
 40
2.0
 49
1.25
 49
-0.25
 49
0.25
 49
-0.25
  0
LTYPE
  5
411
  2
DASHED
 70
0
  3
Dashed __ __ __ __ __
 72
65
 73
2
 40
0.75
 49
0.5
 49
-0.25
  0
LTYPE
  5
43B
  2
DOTTED
 70
0
  3
Dotted .  .  .  .
 72
65
 73
2
 40
0.2
 49
0.0
 49
-0.2
  0
ENDTAB
  0
TABLE
  2
STYLE
  70
4
  0
STYLE
  2
KICAD
  70
0
  40
0
  41
1
  42
1
  50
0
  71
0
  3
isocp.shx
  0
STYLE
  2
KICADB
  70
0
  40
0
  41
1
  42
1
  50
0
  71
0
  3
isocp.shx
  0
STYLE
  2
KICADI
  70
0
  40
0
  41
1
  42
1
  50
15
  71
0
  3
isocp.shx
  0
STYLE
  2
KICADBI
  70
0
  40
0
  41
1
  42
1
  50
15
  71
0
  3
isocp.shx
  0
ENDTAB
  0
TABLE
  2
LAYER
  70
1
  0
LAYER
  2
BLACK
  70
0
  62
7
  6
CONTINUOUS
  0
ENDTAB
  0
ENDSEC
  0
SECTION
  2
ENTITIES
0
LINE
8
BLACK
6
CONTINUOUS
10
193.9018439999999828
20
-103.9182689999999951
11
193.9797059999999931
21
-103.9702939999999955
0
LINE
8
BLACK
6
CONTINUOUS
10
193.9797059999999931
20
-103.9702939999999955
11
194.0317309999999793
21
-104.0481559999999916
0
LINE
8
BLACK
6
CONTINUOUS
10
194.0317309999999793
20
-104.0481559999999916
11
194.0499999999999829
21
-104.1400000000000006
0
LINE
8
BLACK
6
CONTINUOUS
10
194.0499999999999829
20
-104.1400000000000006
11
194.0499999999999829
21
-104.8599999999999994
0
LINE
8
BLACK
6
CONTINUOUS
10
194.0499999999999829
20
-104.8599999999999994
11
194.0317309999999793
21
-104.9518439999999941
0
LINE
8
BLACK
6
CONTINUOUS
10
194.0317309999999793
20
-104.9518439999999941
11
193.9797059999999931
21
-105.0297059999999902
0
LINE
8
BLACK
6
CONTINUOUS
10
193.9797059999999931
20
-105.0297059999999902
11
193.9018439999999828
21
-105.0817309999999907
0
LINE
8
BLACK
6
CONTINUOUS
10
193.9018439999999828
20
-105.0817309999999907
11
193.8100000000000023
21
-105.0999999999999943
0
LINE
8
BLACK
6
CONTINUOUS
10
193.8100000000000023
20
-105.0999999999999943
11
191.789999999999992
21
-105.0999999999999943
0
LINE
8
BLACK
6
CONTINUOUS
10
191.789999999999992
20
-105.0999999999999943
11
191.6981559999999831
21
-105.0817309999999907
0
LINE
8
BLACK
6
CONTINUOUS
10
191.6981559999999831
20
-105.0817309999999907
11
191.6202940000000012
21
-105.0297059999999902
0
LINE
8
BLACK
6
CONTINUOUS
10
191.6202940000000012
20
-105.0297059999999902
11
191.5682689999999866
21
-104.9518439999999941
0
LINE
8
BLACK
6
CONTINUOUS
10
191.5682689999999866
20
-104.9518439999999941
11
191.5499999999999829
21
-104.8599999999999994
0
LINE
8
BLACK
6
CONTINUOUS
10
191.5499999999999829
20
-104.8599999999999994
11
191.5499999999999829
21
-104.1400000000000006
0
LINE
8
BLACK
6
CONTINUOUS
10
191.5499999999999829
20
-104.1400000000000006
11
191.5682689999999866
21
-104.0481559999999916
0
LINE
8
BLACK
6
CONTINUOUS
10
191.5682689999999866
20
-104.0481559999999916
11
191.6202940000000012
21
-103.9702939999999955
0
LINE
8
BLACK
6
CONTINUOUS
10
191.6202940000000012
20
-103.9702939999999955
11
191.6981559999999831
21
-103.9182689999999951
0
LINE
8
BLACK
6
CONTINUOUS
10
191.6981559999999831
20
-103.9182689999999951
11
191.789999999999992
21
-103.8999999999999915
0
LINE
8
BLACK
6
CONTINUOUS
10
191.789999999999992
20
-103.8999999999999915
11
193.8100000000000023
21
-103.8999999999999915
0
LINE
8
BLACK
6
CONTINUOUS
10
193.8100000000000023
20
-103.8999999999999915
11
193.9018439999999828
21
-103.9182689999999951
0
LINE
8
BLACK
6
CONTINUOUS
10
193.9018439999999828
20
-101.4182689999999951
11
193.9797059999999931
21
-101.4702939999999955
0
LINE
8
BLACK
6
CONTINUOUS
10
193.9797059999999931
20
-101.4702939999999955
11
194.0317309999999793
21
-101.5481559999999916
0
LINE
8
BLACK
6
CONTINUOUS
10
194.0317309999999793
20
-101.5481559999999916
11
194.0499999999999829
21
-101.6400000000000006
0
LINE
8
BLACK
6
CONTINUOUS
10
194.0499999999999829
20
-101.6400000000000006
11
194.0499999999999829
21
-102.3599999999999994
0
LINE
8
BLACK
6
CONTINUOUS
10
194.0499999999999829
20
-102.3599999999999994
11
194.0317309999999793
21
-102.4518439999999941
0
LINE
8
BLACK
6
CONTINUOUS
10
194.0317309999999793
20
-102.4518439999999941
11
193.9797059999999931
21
-102.5297059999999902
0
LINE
8
BLACK
6
CONTINUOUS
10
193.9797059999999931
20
-102.5297059999999902
11
193.9018439999999828
21
-102.5817309999999907
0
LINE
8
BLACK
6
CONTINUOUS
10
193.9018439999999828
20
-102.5817309999999907
11
193.8100000000000023
21
-102.5999999999999943
0
LINE
8
BLACK
6
CONTINUOUS
10
193.8100000000000023
20
-102.5999999999999943
11
191.789999999999992
21
-102.5999999999999943
0
LINE
8
BLACK
6
CONTINUOUS
10
191.789999999999992
20
-102.5999999999999943
11
191.6981559999999831
21
-102.5817309999999907
0
LINE
8
BLACK
6
CONTINUOUS
10
191.6981559999999831
20
-102.5817309999999907
11
191.6202940000000012
21
-102.5297059999999902
0
LINE
8
BLACK
6
CONTINUOUS
10
191.6202940000000012
20
-102.5297059999999902
11
191.5682689999999866
21
-102.4518439999999941
0
LINE
8
BLACK
6
CONTINUOUS
10
191.5682689999999866
20
-102.4518439999999941
11
191.5499999999999829
21
-102.3599999999999994
0
LINE
8
BLACK
6
CONTINUOUS
10
191.5499999999999829
20
-102.3599999999999994
11
191.5499999999999829
21
-101.6400000000000006
0
LINE
8
BLACK
6
CONTINUOUS
10
191.5499999999999829
20
-101.6400000000000006
11
191.5682689999999866
21
-101.5481559999999916
0
LINE
8
BLACK
6
CONTINUOUS
10
191.5682689999999866
20
-101.5481559999999916
11
191.6202940000000012
21
-101.4702939999999955
0
LINE
8
BLACK
6
CONTINUOUS
10
191.6202940000000012
20
-101.4702939999999955
11
191.6981559999999831
21
-101.4182689999999951
0
LINE
8
BLACK
6
CONTINUOUS
10
191.6981559999999831
20
-101.4182689999999951
11
191.789999999999992
21
-101.3999999999999915
0
LINE
8
BLACK
6
CONTINUOUS
10
191.789999999999992
20
-101.3999999999999915
11
193.8100000000000023
21
-101.3999999999999915
0
LINE
8
BLACK
6
CONTINUOUS
10
193.8100000000000023
20
-101.3999999999999915
11
193.9018439999999828
21
-101.4182689999999951
0
LINE
8
BLACK
6
CONTINUOUS
10
193.9018439999999828
20
-98.9182689999999951
11
193.9797059999999931
21
-98.9702939999999955
0
LINE
8
BLACK
6
CONTINUOUS
10
193.9797059999999931
20
-98.9702939999999955
11
194.0317309999999793
21
-99.0481559999999916
0
LINE
8
BLACK
6
CONTINUOUS
10
194.0317309999999793
20
-99.0481559999999916
11
194.0499999999999829
21
-99.1400000000000006
0
LINE
8
BLACK
6
CONTINUOUS
10
194.0499999999999829
20
-99.1400000000000006
11
194.0499999999999829
21
-99.8599999999999994
0
LINE
8
BLACK
6
CONTINUOUS
10
194.0499999999999829
20
-99.8599999999999994
11
194.0317309999999793
21
-99.9518439999999941
0
LINE
8
BLACK
6
CONTINUOUS
10
194.0317309999999793
20
-99.9518439999999941
11
193.9797059999999931
21
-100.0297059999999902
0
LINE
8
BLACK
6
CONTINUOUS
10
193.9797059999999931
20
-100.0297059999999902
11
193.9018439999999828
21
-100.0817309999999907
0
LINE
8
BLACK
6
CONTINUOUS
10
193.9018439999999828
20
-100.0817309999999907
11
193.8100000000000023
21
-100.0999999999999943
0
LINE
8
BLACK
6
CONTINUOUS
10
193.8100000000000023
20
-100.0999999999999943
11
191.789999999999992
21
-100.0999999999999943
0
LINE
8
BLACK
6
CONTINUOUS
10
191.789999999999992
20
-100.0999999999999943
11
191.6981559999999831
21
-100.0817309999999907
0
LINE
8
BLACK
6
CONTINUOUS
10
191.6981559999999831
20
-100.0817309999999907
11
191.6202940000000012
21
-100.0297059999999902
0
LINE
8
BLACK
6
CONTINUOUS
10
191.6202940000000012
20
-100.0297059999999902
11
191.5682689999999866
21
-99.9518439999999941
0
LINE
8
BLACK
6
CONTINUOUS
10
191.5682689999999866
20
-99.9518439999999941
11
191.5499999999999829
21
-99.8599999999999994
0
LINE
8
BLACK
6
CONTINUOUS
10
191.5499999999999829
20
-99.8599999999999994
11
191.5499999999999829
21
-99.1400000000000006
0
LINE
8
BLACK
6
CONTINUOUS
10
191.5499999999999829
20
-99.1400000000000006
11
191.5682689999999866
21
-99.0481559999999916
0
LINE
8
BLACK
6
CONTINUOUS
10
191.5682689999999866
20
-99.0481559999999916
11
191.6202940000000012
21
-98.9702939999999955
0
LINE
8
BLACK
6
CONTINUOUS
10
191.6202940000000012
20
-98.9702939999999955
11
191.6981559999999831
21
-98.9182689999999951
0
LINE
8
BLACK
6
CONTINUOUS
10
191.6981559999999831
20
-98.9182689999999951
11
191.789999999999992
21
-98.8999999999999915
0
LINE
8
BLACK
6
CONTINUOUS
10
191.789999999999992
20
-98.8999999999999915
11
193.8100000000000023
21
-98.8999999999999915
0
LINE
8
BLACK
6
CONTINUOUS
10
193.8100000000000023
20
-98.8999999999999915
11
193.9018439999999828
21
-98.9182689999999951
0
LINE
8
BLACK
6
CONTINUOUS
10
201.4478349999999978
20
-96.2345150000000018
11
201.4883879999999863
21
-96.2616119999999995
0
LINE
8
BLACK
6
CONTINUOUS
10
201.4883879999999863
20
-96.2616119999999995
11
201.515484999999984
21
-96.3021650000000022
0
LINE
8
BLACK
6
CONTINUOUS
10
201.515484999999984
20
-96.3021650000000022
11
201.5249999999999773
21
-96.3499999999999943
0
LINE
8
BLACK
6
CONTINUOUS
10
201.5249999999999773
20
-96.3499999999999943
11
201.5249999999999773
21
-98.
0
LINE
8
BLACK
6
CONTINUOUS
10
201.5249999999999773
20
-98.
11
201.515484999999984
21
-98.0478349999999921
0
LINE
8
BLACK
6
CONTINUOUS
10
201.515484999999984
20
-98.0478349999999921
11
201.4883879999999863
21
-98.0883879999999948
0
LINE
8
BLACK
6
CONTINUOUS
10
201.4883879999999863
20
-98.0883879999999948
11
201.4478349999999978
21
-98.1154849999999925
0
LINE
8
BLACK
6
CONTINUOUS
10
201.4478349999999978
20
-98.1154849999999925
11
201.3999999999999773
21
-98.125
0
LINE
8
BLACK
6
CONTINUOUS
10
201.3999999999999773
20
-98.125
11
201.1499999999999773
21
-98.125
0
LINE
8
BLACK
6
CONTINUOUS
10
201.1499999999999773
20
-98.125
11
201.1021649999999852
21
-98.1154849999999925
0
LINE
8
BLACK
6
CONTINUOUS
10
201.1021649999999852
20
-98.1154849999999925
11
201.0616119999999967
21
-98.0883879999999948
0
LINE
8
BLACK
6
CONTINUOUS
10
201.0616119999999967
20
-98.0883879999999948
11
201.034514999999999
21
-98.0478349999999921
0
LINE
8
BLACK
6
CONTINUOUS
10
201.034514999999999
20
-98.0478349999999921
11
201.0249999999999773
21
-98.
0
LINE
8
BLACK
6
CONTINUOUS
10
201.0249999999999773
20
-98.
11
201.0249999999999773
21
-96.3499999999999943
0
LINE
8
BLACK
6
CONTINUOUS
10
201.0249999999999773
20
-96.3499999999999943
11
201.034514999999999
21
-96.3021650000000022
0
LINE
8
BLACK
6
CONTINUOUS
10
201.034514999999999
20
-96.3021650000000022
11
201.0616119999999967
21
-96.2616119999999995
0
LINE
8
BLACK
6
CONTINUOUS
10
201.0616119999999967
20
-96.2616119999999995
11
201.1021649999999852
21
-96.2345150000000018
0
LINE
8
BLACK
6
CONTINUOUS
10
201.1021649999999852
20
-96.2345150000000018
11
201.1499999999999773
21
-96.2249999999999943
0
LINE
8
BLACK
6
CONTINUOUS
10
201.1499999999999773
20
-96.2249999999999943
11
201.3999999999999773
21
-96.2249999999999943
0
LINE
8
BLACK
6
CONTINUOUS
10
201.3999999999999773
20
-96.2249999999999943
11
201.4478349999999978
21
-96.2345150000000018
0
LINE
8
BLACK
6
CONTINUOUS
10
202.0978350000000034
20
-96.2345150000000018
11
202.138387999999992
21
-96.2616119999999995
0
LINE
8
BLACK
6
CONTINUOUS
10
202.138387999999992
20
-96.2616119999999995
11
202.1654849999999897
21
-96.3021650000000022
0
LINE
8
BLACK
6
CONTINUOUS
10
202.1654849999999897
20
-96.3021650000000022
11
202.1749999999999829
21
-96.3499999999999943
0
LINE
8
BLACK
6
CONTINUOUS
10
202.1749999999999829
20
-96.3499999999999943
11
202.1749999999999829
21
-98.
0
LINE
8
BLACK
6
CONTINUOUS
10
202.1749999999999829
20
-98.
11
202.1654849999999897
21
-98.0478349999999921
0
LINE
8
BLACK
6
CONTINUOUS
10
202.1654849999999897
20
-98.0478349999999921
11
202.138387999999992
21
-98.0883879999999948
0
LINE
8
BLACK
6
CONTINUOUS
10
202.138387999999992
20
-98.0883879999999948
11
202.0978350000000034
21
-98.1154849999999925
0
LINE
8
BLACK
6
CONTINUOUS
10
202.0978350000000034
20
-98.1154849999999925
11
202.0499999999999829
21
-98.125
0
LINE
8
BLACK
6
CONTINUOUS
10
202.0499999999999829
20
-98.125
11
201.7999999999999829
21
-98.125
0
LINE
8
BLACK
6
CONTINUOUS
10
201.7999999999999829
20
-98.125
11
201.7521649999999909
21
-98.1154849999999925
0
LINE
8
BLACK
6
CONTINUOUS
10
201.7521649999999909
20
-98.1154849999999925
11
201.7116120000000024
21
-98.0883879999999948
0
LINE
8
BLACK
6
CONTINUOUS
10
201.7116120000000024
20
-98.0883879999999948
11
201.6845150000000046
21
-98.0478349999999921
0
LINE
8
BLACK
6
CONTINUOUS
10
201.6845150000000046
20
-98.0478349999999921
11
201.6749999999999829
21
-98.
0
LINE
8
BLACK
6
CONTINUOUS
10
201.6749999999999829
20
-98.
11
201.6749999999999829
21
-96.3499999999999943
0
LINE
8
BLACK
6
CONTINUOUS
10
201.6749999999999829
20
-96.3499999999999943
11
201.6845150000000046
21
-96.3021650000000022
0
LINE
8
BLACK
6
CONTINUOUS
10
201.6845150000000046
20
-96.3021650000000022
11
201.7116120000000024
21
-96.2616119999999995
0
LINE
8
BLACK
6
CONTINUOUS
10
201.7116120000000024
20
-96.2616119999999995
11
201.7521649999999909
21
-96.2345150000000018
0
LINE
8
BLACK
6
CONTINUOUS
10
201.7521649999999909
20
-96.2345150000000018
11
201.7999999999999829
21
-96.2249999999999943
0
LINE
8
BLACK
6
CONTINUOUS
10
201.7999999999999829
20
-96.2249999999999943
11
202.0499999999999829
21
-96.2249999999999943
0
LINE
8
BLACK
6
CONTINUOUS
10
202.0499999999999829
20
-96.2249999999999943
11
202.0978350000000034
21
-96.2345150000000018
0
LINE
8
BLACK
6
CONTINUOUS
10
202.7478349999999807
20
-96.2345150000000018
11
202.7883879999999976
21
-96.2616119999999995
0
LINE
8
BLACK
6
CONTINUOUS
10
202.7883879999999976
20
-96.2616119999999995
11
202.8154849999999954
21
-96.3021650000000022
0
LINE
8
BLACK
6
CONTINUOUS
10
202.8154849999999954
20
-96.3021650000000022
11
202.8249999999999886
21
-96.3499999999999943
0
LINE
8
BLACK
6
CONTINUOUS
10
202.8249999999999886
20
-96.3499999999999943
11
202.8249999999999886
21
-98.
0
LINE
8
BLACK
6
CONTINUOUS
10
202.8249999999999886
20
-98.
11
202.8154849999999954
21
-98.0478349999999921
0
LINE
8
BLACK
6
CONTINUOUS
10
202.8154849999999954
20
-98.0478349999999921
11
202.7883879999999976
21
-98.0883879999999948
0
LINE
8
BLACK
6
CONTINUOUS
10
202.7883879999999976
20
-98.0883879999999948
11
202.7478349999999807
21
-98.1154849999999925
0
LINE
8
BLACK
6
CONTINUOUS
10
202.7478349999999807
20
-98.1154849999999925
11
202.6999999999999886
21
-98.125
0
LINE
8
BLACK
6
CONTINUOUS
10
202.6999999999999886
20
-98.125
11
202.4499999999999886
21
-98.125
0
LINE
8
BLACK
6
CONTINUOUS
10
202.4499999999999886
20
-98.125
11
202.4021649999999966
21
-98.1154849999999925
0
LINE
8
BLACK
6
CONTINUOUS
10
202.4021649999999966
20
-98.1154849999999925
11
202.3616119999999796
21
-98.0883879999999948
0
LINE
8
BLACK
6
CONTINUOUS
10
202.3616119999999796
20
-98.0883879999999948
11
202.3345149999999819
21
-98.0478349999999921
0
LINE
8
BLACK
6
CONTINUOUS
10
202.3345149999999819
20
-98.0478349999999921
11
202.3249999999999886
21
-98.
0
LINE
8
BLACK
6
CONTINUOUS
10
202.3249999999999886
20
-98.
11
202.3249999999999886
21
-96.3499999999999943
0
LINE
8
BLACK
6
CONTINUOUS
10
202.3249999999999886
20
-96.3499999999999943
11
202.3345149999999819
21
-96.3021650000000022
0
LINE
8
BLACK
6
CONTINUOUS
10
202.3345149999999819
20
-96.3021650000000022
11
202.3616119999999796
21
-96.2616119999999995
0
LINE
8
BLACK
6
CONTINUOUS
10
202.3616119999999796
20
-96.2616119999999995
11
202.4021649999999966
21
-96.2345150000000018
0
LINE
8
BLACK
6
CONTINUOUS
10
202.4021649999999966
20
-96.2345150000000018
11
202.4499999999999886
21
-96.2249999999999943
0
LINE
8
BLACK
6
CONTINUOUS
10
202.4499999999999886
20
-96.2249999999999943
11
202.6999999999999886
21
-96.2249999999999943
0
LINE
8
BLACK
6
CONTINUOUS
10
202.6999999999999886
20
-96.2249999999999943
11
202.7478349999999807
21
-96.2345150000000018
0
LINE
8
BLACK
6
CONTINUOUS
10
203.3978349999999864
20
-96.2345150000000018
11
203.4383880000000033
21
-96.2616119999999995
0
LINE
8
BLACK
6
CONTINUOUS
10
203.4383880000000033
20
-96.2616119999999995
11
203.465485000000001
21
-96.3021650000000022
0
LINE
8
BLACK
6
CONTINUOUS
10
203.465485000000001
20
-96.3021650000000022
11
203.4749999999999943
21
-96.3499999999999943
0
LINE
8
BLACK
6
CONTINUOUS
10
203.4749999999999943
20
-96.3499999999999943
11
203.4749999999999943
21
-98.
0
LINE
8
BLACK
6
CONTINUOUS
10
203.4749999999999943
20
-98.
11
203.465485000000001
21
-98.0478349999999921
0
LINE
8
BLACK
6
CONTINUOUS
10
203.465485000000001
20
-98.0478349999999921
11
203.4383880000000033
21
-98.0883879999999948
0
LINE
8
BLACK
6
CONTINUOUS
10
203.4383880000000033
20
-98.0883879999999948
11
203.3978349999999864
21
-98.1154849999999925
0
LINE
8
BLACK
6
CONTINUOUS
10
203.3978349999999864
20
-98.1154849999999925
11
203.3499999999999943
21
-98.125
0
LINE
8
BLACK
6
CONTINUOUS
10
203.3499999999999943
20
-98.125
11
203.0999999999999943
21
-98.125
0
LINE
8
BLACK
6
CONTINUOUS
10
203.0999999999999943
20
-98.125
11
203.0521650000000022
21
-98.1154849999999925
0
LINE
8
BLACK
6
CONTINUOUS
10
203.0521650000000022
20
-98.1154849999999925
11
203.0116119999999853
21
-98.0883879999999948
0
LINE
8
BLACK
6
CONTINUOUS
10
203.0116119999999853
20
-98.0883879999999948
11
202.9845149999999876
21
-98.0478349999999921
0
LINE
8
BLACK
6
CONTINUOUS
10
202.9845149999999876
20
-98.0478349999999921
11
202.9749999999999943
21
-98.
0
LINE
8
BLACK
6
CONTINUOUS
10
202.9749999999999943
20
-98.
11
202.9749999999999943
21
-96.3499999999999943
0
LINE
8
BLACK
6
CONTINUOUS
10
202.9749999999999943
20
-96.3499999999999943
11
202.9845149999999876
21
-96.3021650000000022
0
LINE
8
BLACK
6
CONTINUOUS
10
202.9845149999999876
20
-96.3021650000000022
11
203.0116119999999853
21
-96.2616119999999995
0
LINE
8
BLACK
6
CONTINUOUS
10
203.0116119999999853
20
-96.2616119999999995
11
203.0521650000000022
21
-96.2345150000000018
0
LINE
8
BLACK
6
CONTINUOUS
10
203.0521650000000022
20
-96.2345150000000018
11
203.0999999999999943
21
-96.2249999999999943
0
LINE
8
BLACK
6
CONTINUOUS
10
203.0999999999999943
20
-96.2249999999999943
11
203.3499999999999943
21
-96.2249999999999943
0
LINE
8
BLACK
6
CONTINUOUS
10
203.3499999999999943
20
-96.2249999999999943
11
203.3978349999999864
21
-96.2345150000000018
0
LINE
8
BLACK
6
CONTINUOUS
10
204.0478349999999921
20
-96.2345150000000018
11
204.0883879999999806
21
-96.2616119999999995
0
LINE
8
BLACK
6
CONTINUOUS
10
204.0883879999999806
20
-96.2616119999999995
11
204.1154849999999783
21
-96.3021650000000022
0
LINE
8
BLACK
6
CONTINUOUS
10
204.1154849999999783
20
-96.3021650000000022
11
204.125
21
-96.3499999999999943
0
LINE
8
BLACK
6
CONTINUOUS
10
204.125
20
-96.3499999999999943
11
204.125
21
-98.
0
LINE
8
BLACK
6
CONTINUOUS
10
204.125
20
-98.
11
204.1154849999999783
21
-98.0478349999999921
0
LINE
8
BLACK
6
CONTINUOUS
10
204.1154849999999783
20
-98.0478349999999921
11
204.0883879999999806
21
-98.0883879999999948
0
LINE
8
BLACK
6
CONTINUOUS
10
204.0883879999999806
20
-98.0883879999999948
11
204.0478349999999921
21
-98.1154849999999925
0
LINE
8
BLACK
6
CONTINUOUS
10
204.0478349999999921
20
-98.1154849999999925
11
204.
21
-98.125
0
LINE
8
BLACK
6
CONTINUOUS
10
204.
20
-98.125
11
203.75
21
-98.125
0
LINE
8
BLACK
6
CONTINUOUS
10
203.75
20
-98.125
11
203.7021649999999795
21
-98.1154849999999925
0
LINE
8
BLACK
6
CONTINUOUS
10
203.7021649999999795
20
-98.1154849999999925
11
203.661611999999991
21
-98.0883879999999948
0
LINE
8
BLACK
6
CONTINUOUS
10
203.661611999999991
20
-98.0883879999999948
11
203.6345149999999933
21
-98.0478349999999921
0
LINE
8
BLACK
6
CONTINUOUS
10
203.6345149999999933
20
-98.0478349999999921
11
203.625
21
-98.
0
LINE
8
BLACK
6
CONTINUOUS
10
203.625
20
-98.
11
203.625
21
-96.3499999999999943
0
LINE
8
BLACK
6
CONTINUOUS
10
203.625
20
-96.3499999999999943
11
203.6345149999999933
21
-96.3021650000000022
0
LINE
8
BLACK
6
CONTINUOUS
10
203.6345149999999933
20
-96.3021650000000022
11
203.661611999999991
21
-96.2616119999999995
0
LINE
8
BLACK
6
CONTINUOUS
10
203.661611999999991
20
-96.2616119999999995
11
203.7021649999999795
21
-96.2345150000000018
0
LINE
8
BLACK
6
CONTINUOUS
10
203.7021649999999795
20
-96.2345150000000018
11
203.75
21
-96.2249999999999943
0
LINE
8
BLACK
6
CONTINUOUS
10
203.75
20
-96.2249999999999943
11
204.
21
-96.2249999999999943
0
LINE
8
BLACK
6
CONTINUOUS
10
204.
20
-96.2249999999999943
11
204.0478349999999921
21
-96.2345150000000018
0
LINE
8
BLACK
6
CONTINUOUS
10
204.6978349999999978
20
-96.2345150000000018
11
204.7383879999999863
21
-96.2616119999999995
0
LINE
8
BLACK
6
CONTINUOUS
10
204.7383879999999863
20
-96.2616119999999995
11
204.765484999999984
21
-96.3021650000000022
0
LINE
8
BLACK
6
CONTINUOUS
10
204.765484999999984
20
-96.3021650000000022
11
204.7749999999999773
21
-96.3499999999999943
0
LINE
8
BLACK
6
CONTINUOUS
10
204.7749999999999773
20
-96.3499999999999943
11
204.7749999999999773
21
-98.
0
LINE
8
BLACK
6
CONTINUOUS
10
204.7749999999999773
20
-98.
11
204.765484999999984
21
-98.0478349999999921
0
LINE
8
BLACK
6
CONTINUOUS
10
204.765484999999984
20
-98.0478349999999921
11
204.7383879999999863
21
-98.0883879999999948
0
LINE
8
BLACK
6
CONTINUOUS
10
204.7383879999999863
20
-98.0883879999999948
11
204.6978349999999978
21
-98.1154849999999925
0
LINE
8
BLACK
6
CONTINUOUS
10
204.6978349999999978
20
-98.1154849999999925
11
204.6499999999999773
21
-98.125
0
LINE
8
BLACK
6
CONTINUOUS
10
204.6499999999999773
20
-98.125
11
204.3999999999999773
21
-98.125
0
LINE
8
BLACK
6
CONTINUOUS
10
204.3999999999999773
20
-98.125
11
204.3521649999999852
21
-98.1154849999999925
0
LINE
8
BLACK
6
CONTINUOUS
10
204.3521649999999852
20
-98.1154849999999925
11
204.3116119999999967
21
-98.0883879999999948
0
LINE
8
BLACK
6
CONTINUOUS
10
204.3116119999999967
20
-98.0883879999999948
11
204.284514999999999
21
-98.0478349999999921
0
LINE
8
BLACK
6
CONTINUOUS
10
204.284514999999999
20
-98.0478349999999921
11
204.2749999999999773
21
-98.
0
LINE
8
BLACK
6
CONTINUOUS
10
204.2749999999999773
20
-98.
11
204.2749999999999773
21
-96.3499999999999943
0
LINE
8
BLACK
6
CONTINUOUS
10
204.2749999999999773
20
-96.3499999999999943
11
204.284514999999999
21
-96.3021650000000022
0
LINE
8
BLACK
6
CONTINUOUS
10
204.284514999999999
20
-96.3021650000000022
11
204.3116119999999967
21
-96.2616119999999995
0
LINE
8
BLACK
6
CONTINUOUS
10
204.3116119999999967
20
-96.2616119999999995
11
204.3521649999999852
21
-96.2345150000000018
0
LINE
8
BLACK
6
CONTINUOUS
10
204.3521649999999852
20
-96.2345150000000018
11
204.3999999999999773
21
-96.2249999999999943
0
LINE
8
BLACK
6
CONTINUOUS
10
204.3999999999999773
20
-96.2249999999999943
11
204.6499999999999773
21
-96.2249999999999943
0
LINE
8
BLACK
6
CONTINUOUS
10
204.6499999999999773
20
-96.2249999999999943
11
204.6978349999999978
21
-96.2345150000000018
0
LINE
8
BLACK
6
CONTINUOUS
10
205.3478350000000034
20
-96.2345150000000018
11
205.388387999999992
21
-96.2616119999999995
0
LINE
8
BLACK
6
CONTINUOUS
10
205.388387999999992
20
-96.2616119999999995
11
205.4154849999999897
21
-96.3021650000000022
0
LINE
8
BLACK
6
CONTINUOUS
10
205.4154849999999897
20
-96.3021650000000022
11
205.4249999999999829
21
-96.3499999999999943
0
LINE
8
BLACK
6
CONTINUOUS
10
205.4249999999999829
20
-96.3499999999999943
11
205.4249999999999829
21
-98.
0
LINE
8
BLACK
6
CONTINUOUS
10
205.4249999999999829
20
-98.
11
205.4154849999999897
21
-98.0478349999999921
0
LINE
8
BLACK
6
CONTINUOUS
10
205.4154849999999897
20
-98.0478349999999921
11
205.388387999999992
21
-98.0883879999999948
0
LINE
8
BLACK
6
CONTINUOUS
10
205.388387999999992
20
-98.0883879999999948
11
205.3478350000000034
21
-98.1154849999999925
0
LINE
8
BLACK
6
CONTINUOUS
10
205.3478350000000034
20
-98.1154849999999925
11
205.2999999999999829
21
-98.125
0
LINE
8
BLACK
6
CONTINUOUS
10
205.2999999999999829
20
-98.125
11
205.0499999999999829
21
-98.125
0
LINE
8
BLACK
6
CONTINUOUS
10
205.0499999999999829
20
-98.125
11
205.0021649999999909
21
-98.1154849999999925
0
LINE
8
BLACK
6
CONTINUOUS
10
205.0021649999999909
20
-98.1154849999999925
11
204.9616120000000024
21
-98.0883879999999948
0
LINE
8
BLACK
6
CONTINUOUS
10
204.9616120000000024
20
-98.0883879999999948
11
204.9345150000000046
21
-98.0478349999999921
0
LINE
8
BLACK
6
CONTINUOUS
10
204.9345150000000046
20
-98.0478349999999921
11
204.9249999999999829
21
-98.
0
LINE
8
BLACK
6
CONTINUOUS
10
204.9249999999999829
20
-98.
11
204.9249999999999829
21
-96.3499999999999943
0
LINE
8
BLACK
6
CONTINUOUS
10
204.9249999999999829
20
-96.3499999999999943
11
204.9345150000000046
21
-96.3021650000000022
0
LINE
8
BLACK
6
CONTINUOUS
10
204.9345150000000046
20
-96.3021650000000022
11
204.9616120000000024
21
-96.2616119999999995
0
LINE
8
BLACK
6
CONTINUOUS
10
204.9616120000000024
20
-96.2616119999999995
11
205.0021649999999909
21
-96.2345150000000018
0
LINE
8
BLACK
6
CONTINUOUS
10
205.0021649999999909
20
-96.2345150000000018
11
205.0499999999999829
21
-96.2249999999999943
0
LINE
8
BLACK
6
CONTINUOUS
10
205.0499999999999829
20
-96.2249999999999943
11
205.2999999999999829
21
-96.2249999999999943
0
LINE
8
BLACK
6
CONTINUOUS
10
205.2999999999999829
20
-96.2249999999999943
11
205.3478350000000034
21
-96.2345150000000018
0
LINE
8
BLACK
6
CONTINUOUS
10
205.9978349999999807
20
-96.2345150000000018
11
206.0383879999999976
21
-96.2616119999999995
0
LINE
8
BLACK
6
CONTINUOUS
10
206.0383879999999976
20
-96.2616119999999995
11
206.0654849999999954
21
-96.3021650000000022
0
LINE
8
BLACK
6
CONTINUOUS
10
206.0654849999999954
20
-96.3021650000000022
11
206.0749999999999886
21
-96.3499999999999943
0
LINE
8
BLACK
6
CONTINUOUS
10
206.0749999999999886
20
-96.3499999999999943
11
206.0749999999999886
21
-98.
0
LINE
8
BLACK
6
CONTINUOUS
10
206.0749999999999886
20
-98.
11
206.0654849999999954
21
-98.0478349999999921
0
LINE
8
BLACK
6
CONTINUOUS
10
206.0654849999999954
20
-98.0478349999999921
11
206.0383879999999976
21
-98.0883879999999948
0
LINE
8
BLACK
6
CONTINUOUS
10
206.0383879999999976
20
-98.0883879999999948
11
205.9978349999999807
21
-98.1154849999999925
0
LINE
8
BLACK
6
CONTINUOUS
10
205.9978349999999807
20
-98.1154849999999925
11
205.9499999999999886
21
-98.125
0
LINE
8
BLACK
6
CONTINUOUS
10
205.9499999999999886
20
-98.125
11
205.6999999999999886
21
-98.125
0
LINE
8
BLACK
6
CONTINUOUS
10
205.6999999999999886
20
-98.125
11
205.6521649999999966
21
-98.1154849999999925
0
LINE
8
BLACK
6
CONTINUOUS
10
205.6521649999999966
20
-98.1154849999999925
11
205.6116119999999796
21
-98.0883879999999948
0
LINE
8
BLACK
6
CONTINUOUS
10
205.6116119999999796
20
-98.0883879999999948
11
205.5845149999999819
21
-98.0478349999999921
0
LINE
8
BLACK
6
CONTINUOUS
10
205.5845149999999819
20
-98.0478349999999921
11
205.5749999999999886
21
-98.
0
LINE
8
BLACK
6
CONTINUOUS
10
205.5749999999999886
20
-98.
11
205.5749999999999886
21
-96.3499999999999943
0
LINE
8
BLACK
6
CONTINUOUS
10
205.5749999999999886
20
-96.3499999999999943
11
205.5845149999999819
21
-96.3021650000000022
0
LINE
8
BLACK
6
CONTINUOUS
10
205.5845149999999819
20
-96.3021650000000022
11
205.6116119999999796
21
-96.2616119999999995
0
LINE
8
BLACK
6
CONTINUOUS
10
205.6116119999999796
20
-96.2616119999999995
11
205.6521649999999966
21
-96.2345150000000018
0
LINE
8
BLACK
6
CONTINUOUS
10
205.6521649999999966
20
-96.2345150000000018
11
205.6999999999999886
21
-96.2249999999999943
0
LINE
8
BLACK
6
CONTINUOUS
10
205.6999999999999886
20
-96.2249999999999943
11
205.9499999999999886
21
-96.2249999999999943
0
LINE
8
BLACK
6
CONTINUOUS
10
205.9499999999999886
20
-96.2249999999999943
11
205.9978349999999807
21
-96.2345150000000018
0
LINE
8
BLACK
6
CONTINUOUS
10
206.6478349999999864
20
-96.2345150000000018
11
206.6883880000000033
21
-96.2616119999999995
0
LINE
8
BLACK
6
CONTINUOUS
10
206.6883880000000033
20
-96.2616119999999995
11
206.715485000000001
21
-96.3021650000000022
0
LINE
8
BLACK
6
CONTINUOUS
10
206.715485000000001
20
-96.3021650000000022
11
206.7249999999999943
21
-96.3499999999999943
0
LINE
8
BLACK
6
CONTINUOUS
10
206.7249999999999943
20
-96.3499999999999943
11
206.7249999999999943
21
-98.
0
LINE
8
BLACK
6
CONTINUOUS
10
206.7249999999999943
20
-98.
11
206.715485000000001
21
-98.0478349999999921
0
LINE
8
BLACK
6
CONTINUOUS
10
206.715485000000001
20
-98.0478349999999921
11
206.6883880000000033
21
-98.0883879999999948
0
LINE
8
BLACK
6
CONTINUOUS
10
206.6883880000000033
20
-98.0883879999999948
11
206.6478349999999864
21
-98.1154849999999925
0
LINE
8
BLACK
6
CONTINUOUS
10
206.6478349999999864
20
-98.1154849999999925
11
206.5999999999999943
21
-98.125
0
LINE
8
BLACK
6
CONTINUOUS
10
206.5999999999999943
20
-98.125
11
206.3499999999999943
21
-98.125
0
LINE
8
BLACK
6
CONTINUOUS
10
206.3499999999999943
20
-98.125
11
206.3021650000000022
21
-98.1154849999999925
0
LINE
8
BLACK
6
CONTINUOUS
10
206.3021650000000022
20
-98.1154849999999925
11
206.2616119999999853
21
-98.0883879999999948
0
LINE
8
BLACK
6
CONTINUOUS
10
206.2616119999999853
20
-98.0883879999999948
11
206.2345149999999876
21
-98.0478349999999921
0
LINE
8
BLACK
6
CONTINUOUS
10
206.2345149999999876
20
-98.0478349999999921
11
206.2249999999999943
21
-98.
0
LINE
8
BLACK
6
CONTINUOUS
10
206.2249999999999943
20
-98.
11
206.2249999999999943
21
-96.3499999999999943
0
LINE
8
BLACK
6
CONTINUOUS
10
206.2249999999999943
20
-96.3499999999999943
11
206.2345149999999876
21
-96.3021650000000022
0
LINE
8
BLACK
6
CONTINUOUS
10
206.2345149999999876
20
-96.3021650000000022
11
206.2616119999999853
21
-96.2616119999999995
0
LINE
8
BLACK
6
CONTINUOUS
10
206.2616119999999853
20
-96.2616119999999995
11
206.3021650000000022
21
-96.2345150000000018
0
LINE
8
BLACK
6
CONTINUOUS
10
206.3021650000000022
20
-96.2345150000000018
11
206.3499999999999943
21
-96.2249999999999943
0
LINE
8
BLACK
6
CONTINUOUS
10
206.3499999999999943
20
-96.2249999999999943
11
206.5999999999999943
21
-96.2249999999999943
0
LINE
8
BLACK
6
CONTINUOUS
10
206.5999999999999943
20
-96.2249999999999943
11
206.6478349999999864
21
-96.2345150000000018
0
LINE
8
BLACK
6
CONTINUOUS
10
207.2978349999999921
20
-96.2345150000000018
11
207.3383879999999806
21
-96.2616119999999995
0
LINE
8
BLACK
6
CONTINUOUS
10
207.3383879999999806
20
-96.2616119999999995
11
207.3654849999999783
21
-96.3021650000000022
0
LINE
8
BLACK
6
CONTINUOUS
10
207.3654849999999783
20
-96.3021650000000022
11
207.375
21
-96.3499999999999943
0
LINE
8
BLACK
6
CONTINUOUS
10
207.375
20
-96.3499999999999943
11
207.375
21
-98.
0
LINE
8
BLACK
6
CONTINUOUS
10
207.375
20
-98.
11
207.3654849999999783
21
-98.0478349999999921
0
LINE
8
BLACK
6
CONTINUOUS
10
207.3654849999999783
20
-98.0478349999999921
11
207.3383879999999806
21
-98.0883879999999948
0
LINE
8
BLACK
6
CONTINUOUS
10
207.3383879999999806
20
-98.0883879999999948
11
207.2978349999999921
21
-98.1154849999999925
0
LINE
8
BLACK
6
CONTINUOUS
10
207.2978349999999921
20
-98.1154849999999925
11
207.25
21
-98.125
0
LINE
8
BLACK
6
CONTINUOUS
10
207.25
20
-98.125
11
207.
21
-98.125
0
LINE
8
BLACK
6
CONTINUOUS
10
207.
20
-98.125
11
206.9521649999999795
21
-98.1154849999999925
0
LINE
8
BLACK
6
CONTINUOUS
10
206.9521649999999795
20
-98.1154849999999925
11
206.911611999999991
21
-98.0883879999999948
0
LINE
8
BLACK
6
CONTINUOUS
10
206.911611999999991
20
-98.0883879999999948
11
206.8845149999999933
21
-98.0478349999999921
0
LINE
8
BLACK
6
CONTINUOUS
10
206.8845149999999933
20
-98.0478349999999921
11
206.875
21
-98.
0
LINE
8
BLACK
6
CONTINUOUS
10
206.875
20
-98.
11
206.875
21
-96.3499999999999943
0
LINE
8
BLACK
6
CONTINUOUS
10
206.875
20
-96.3499999999999943
11
206.8845149999999933
21
-96.3021650000000022
0
LINE
8
BLACK
6
CONTINUOUS
10
206.8845149999999933
20
-96.3021650000000022
11
206.911611999999991
21
-96.2616119999999995
0
LINE
8
BLACK
6
CONTINUOUS
10
206.911611999999991
20
-96.2616119999999995
11
206.9521649999999795
21
-96.2345150000000018
0
LINE
8
BLACK
6
CONTINUOUS
10
206.9521649999999795
20
-96.2345150000000018
11
207.
21
-96.2249999999999943
0
LINE
8
BLACK
6
CONTINUOUS
10
207.
20
-96.2249999999999943
11
207.25
21
-96.2249999999999943
0
LINE
8
BLACK
6
CONTINUOUS
10
207.25
20
-96.2249999999999943
11
207.2978349999999921
21
-96.2345150000000018
0
LINE
8
BLACK
6
CONTINUOUS
10
189.3499999999999943
20
-95.5499999999999972
11
188.3499999999999943
21
-95.5499999999999972
0
LINE
8
BLACK
6
CONTINUOUS
10
188.3499999999999943
20
-95.5499999999999972
11
188.3499999999999943
21
-94.
0
LINE
8
BLACK
6
CONTINUOUS
10
188.3499999999999943
20
-94.
11
189.3499999999999943
21
-94.
0
LINE
8
BLACK
6
CONTINUOUS
10
189.3499999999999943
20
-94.
11
189.3499999999999943
21
-95.5499999999999972
0
LINE
8
BLACK
6
CONTINUOUS
10
191.0499999999999829
20
-95.5499999999999972
11
190.0499999999999829
21
-95.5499999999999972
0
LINE
8
BLACK
6
CONTINUOUS
10
190.0499999999999829
20
-95.5499999999999972
11
190.0499999999999829
21
-94.
0
LINE
8
BLACK
6
CONTINUOUS
10
190.0499999999999829
20
-94.
11
191.0499999999999829
21
-94.
0
LINE
8
BLACK
6
CONTINUOUS
10
191.0499999999999829
20
-94.
11
191.0499999999999829
21
-95.5499999999999972
0
LINE
8
BLACK
6
CONTINUOUS
10
224.0439999999999827
20
-95.1499999999999915
11
222.2439999999999998
21
-95.1499999999999915
0
LINE
8
BLACK
6
CONTINUOUS
10
222.2439999999999998
20
-95.1499999999999915
11
222.2439999999999998
21
-93.9500000000000028
0
LINE
8
BLACK
6
CONTINUOUS
10
222.2439999999999998
20
-93.9500000000000028
11
224.0439999999999827
21
-93.9500000000000028
0
LINE
8
BLACK
6
CONTINUOUS
10
224.0439999999999827
20
-93.9500000000000028
11
224.0439999999999827
21
-95.1499999999999915
0
LINE
8
BLACK
6
CONTINUOUS
10
210.7189999999999941
20
-94.3939999999999912
11
209.518999999999977
21
-94.3939999999999912
0
LINE
8
BLACK
6
CONTINUOUS
10
209.518999999999977
20
-94.3939999999999912
11
209.518999999999977
21
-92.5939999999999941
0
LINE
8
BLACK
6
CONTINUOUS
10
209.518999999999977
20
-92.5939999999999941
11
210.7189999999999941
21
-92.5939999999999941
0
LINE
8
BLACK
6
CONTINUOUS
10
210.7189999999999941
20
-92.5939999999999941
11
210.7189999999999941
21
-94.3939999999999912
0
LINE
8
BLACK
6
CONTINUOUS
10
216.3189999999999884
20
-94.3939999999999912
11
215.1189999999999998
21
-94.3939999999999912
0
LINE
8
BLACK
6
CONTINUOUS
10
215.1189999999999998
20
-94.3939999999999912
11
215.1189999999999998
21
-92.5939999999999941
0
LINE
8
BLACK
6
CONTINUOUS
10
215.1189999999999998
20
-92.5939999999999941
11
216.3189999999999884
21
-92.5939999999999941
0
LINE
8
BLACK
6
CONTINUOUS
10
216.3189999999999884
20
-92.5939999999999941
11
216.3189999999999884
21
-94.3939999999999912
0
LINE
8
BLACK
6
CONTINUOUS
10
220.018999999999977
20
-93.5499999999999972
11
218.4689999999999941
21
-93.5499999999999972
0
LINE
8
BLACK
6
CONTINUOUS
10
218.4689999999999941
20
-93.5499999999999972
11
218.4689999999999941
21
-92.9500000000000028
0
LINE
8
BLACK
6
CONTINUOUS
10
218.4689999999999941
20
-92.9500000000000028
11
220.018999999999977
21
-92.9500000000000028
0
LINE
8
BLACK
6
CONTINUOUS
10
220.018999999999977
20
-92.9500000000000028
11
220.018999999999977
21
-93.5499999999999972
0
LINE
8
BLACK
6
CONTINUOUS
10
195.2956709999999987
20
-91.7690300000000008
11
195.3767770000000041
21
-91.8232229999999987
0
LINE
8
BLACK
6
CONTINUOUS
10
195.3767770000000041
20
-91.8232229999999987
11
195.4309700000000021
21
-91.9043289999999899
0
LINE
8
BLACK
6
CONTINUOUS
10
195.4309700000000021
20
-91.9043289999999899
11
195.4499999999999886
21
-92.
0
LINE
8
BLACK
6
CONTINUOUS
10
195.4499999999999886
20
-92.
11
195.4499999999999886
21
-92.7000000000000028
0
LINE
8
BLACK
6
CONTINUOUS
10
195.4499999999999886
20
-92.7000000000000028
11
195.4309700000000021
21
-92.7956709999999987
0
LINE
8
BLACK
6
CONTINUOUS
10
195.4309700000000021
20
-92.7956709999999987
11
195.3767770000000041
21
-92.8767769999999899
0
LINE
8
BLACK
6
CONTINUOUS
10
195.3767770000000041
20
-92.8767769999999899
11
195.2956709999999987
21
-92.9309700000000021
0
LINE
8
BLACK
6
CONTINUOUS
10
195.2956709999999987
20
-92.9309700000000021
11
195.1999999999999886
21
-92.9500000000000028
0
LINE
8
BLACK
6
CONTINUOUS
10
195.1999999999999886
20
-92.9500000000000028
11
194.2999999999999829
21
-92.9500000000000028
0
LINE
8
BLACK
6
CONTINUOUS
10
194.2999999999999829
20
-92.9500000000000028
11
194.2043290000000013
21
-92.9309700000000021
0
LINE
8
BLACK
6
CONTINUOUS
10
194.2043290000000013
20
-92.9309700000000021
11
194.1232229999999959
21
-92.8767769999999899
0
LINE
8
BLACK
6
CONTINUOUS
10
194.1232229999999959
20
-92.8767769999999899
11
194.0690299999999979
21
-92.7956709999999987
0
LINE
8
BLACK
6
CONTINUOUS
10
194.0690299999999979
20
-92.7956709999999987
11
194.0499999999999829
21
-92.7000000000000028
0
LINE
8
BLACK
6
CONTINUOUS
10
194.0499999999999829
20
-92.7000000000000028
11
194.0499999999999829
21
-92.
0
LINE
8
BLACK
6
CONTINUOUS
10
194.0499999999999829
20
-92.
11
194.0690299999999979
21
-91.9043289999999899
0
LINE
8
BLACK
6
CONTINUOUS
10
194.0690299999999979
20
-91.9043289999999899
11
194.1232229999999959
21
-91.8232229999999987
0
LINE
8
BLACK
6
CONTINUOUS
10
194.1232229999999959
20
-91.8232229999999987
11
194.2043290000000013
21
-91.7690300000000008
0
LINE
8
BLACK
6
CONTINUOUS
10
194.2043290000000013
20
-91.7690300000000008
11
194.2999999999999829
21
-91.75
0
LINE
8
BLACK
6
CONTINUOUS
10
194.2999999999999829
20
-91.75
11
195.1999999999999886
21
-91.75
0
LINE
8
BLACK
6
CONTINUOUS
10
195.1999999999999886
20
-91.75
11
195.2956709999999987
21
-91.7690300000000008
0
LINE
8
BLACK
6
CONTINUOUS
10
220.018999999999977
20
-92.5499999999999972
11
218.4689999999999941
21
-92.5499999999999972
0
LINE
8
BLACK
6
CONTINUOUS
10
218.4689999999999941
20
-92.5499999999999972
11
218.4689999999999941
21
-91.9500000000000028
0
LINE
8
BLACK
6
CONTINUOUS
10
218.4689999999999941
20
-91.9500000000000028
11
220.018999999999977
21
-91.9500000000000028
0
LINE
8
BLACK
6
CONTINUOUS
10
220.018999999999977
20
-91.9500000000000028
11
220.018999999999977
21
-92.5499999999999972
0
LINE
8
BLACK
6
CONTINUOUS
10
220.018999999999977
20
-91.5499999999999972
11
218.4689999999999941
21
-91.5499999999999972
0
LINE
8
BLACK
6
CONTINUOUS
10
218.4689999999999941
20
-91.5499999999999972
11
218.4689999999999941
21
-90.9500000000000028
0
LINE
8
BLACK
6
CONTINUOUS
10
218.4689999999999941
20
-90.9500000000000028
11
220.018999999999977
21
-90.9500000000000028
0
LINE
8
BLACK
6
CONTINUOUS
10
220.018999999999977
20
-90.9500000000000028
11
220.018999999999977
21
-91.5499999999999972
0
LINE
8
BLACK
6
CONTINUOUS
10
201.4478349999999978
20
-89.2345150000000018
11
201.4883879999999863
21
-89.2616119999999995
0
LINE
8
BLACK
6
CONTINUOUS
10
201.4883879999999863
20
-89.2616119999999995
11
201.515484999999984
21
-89.3021650000000022
0
LINE
8
BLACK
6
CONTINUOUS
10
201.515484999999984
20
-89.3021650000000022
11
201.5249999999999773
21
-89.3499999999999943
0
LINE
8
BLACK
6
CONTINUOUS
10
201.5249999999999773
20
-89.3499999999999943
11
201.5249999999999773
21
-91.
0
LINE
8
BLACK
6
CONTINUOUS
10
201.5249999999999773
20
-91.
11
201.515484999999984
21
-91.0478349999999921
0
LINE
8
BLACK
6
CONTINUOUS
10
201.515484999999984
20
-91.0478349999999921
11
201.4883879999999863
21
-91.0883879999999948
0
LINE
8
BLACK
6
CONTINUOUS
10
201.4883879999999863
20
-91.0883879999999948
11
201.4478349999999978
21
-91.1154849999999925
0
LINE
8
BLACK
6
CONTINUOUS
10
201.4478349999999978
20
-91.1154849999999925
11
201.3999999999999773
21
-91.125
0
LINE
8
BLACK
6
CONTINUOUS
10
201.3999999999999773
20
-91.125
11
201.1499999999999773
21
-91.125
0
LINE
8
BLACK
6
CONTINUOUS
10
201.1499999999999773
20
-91.125
11
201.1021649999999852
21
-91.1154849999999925
0
LINE
8
BLACK
6
CONTINUOUS
10
201.1021649999999852
20
-91.1154849999999925
11
201.0616119999999967
21
-91.0883879999999948
0
LINE
8
BLACK
6
CONTINUOUS
10
201.0616119999999967
20
-91.0883879999999948
11
201.034514999999999
21
-91.0478349999999921
0
LINE
8
BLACK
6
CONTINUOUS
10
201.034514999999999
20
-91.0478349999999921
11
201.0249999999999773
21
-91.
0
LINE
8
BLACK
6
CONTINUOUS
10
201.0249999999999773
20
-91.
11
201.0249999999999773
21
-89.3499999999999943
0
LINE
8
BLACK
6
CONTINUOUS
10
201.0249999999999773
20
-89.3499999999999943
11
201.034514999999999
21
-89.3021650000000022
0
LINE
8
BLACK
6
CONTINUOUS
10
201.034514999999999
20
-89.3021650000000022
11
201.0616119999999967
21
-89.2616119999999995
0
LINE
8
BLACK
6
CONTINUOUS
10
201.0616119999999967
20
-89.2616119999999995
11
201.1021649999999852
21
-89.2345150000000018
0
LINE
8
BLACK
6
CONTINUOUS
10
201.1021649999999852
20
-89.2345150000000018
11
201.1499999999999773
21
-89.2249999999999943
0
LINE
8
BLACK
6
CONTINUOUS
10
201.1499999999999773
20
-89.2249999999999943
11
201.3999999999999773
21
-89.2249999999999943
0
LINE
8
BLACK
6
CONTINUOUS
10
201.3999999999999773
20
-89.2249999999999943
11
201.4478349999999978
21
-89.2345150000000018
0
LINE
8
BLACK
6
CONTINUOUS
10
202.0978350000000034
20
-89.2345150000000018
11
202.138387999999992
21
-89.2616119999999995
0
LINE
8
BLACK
6
CONTINUOUS
10
202.138387999999992
20
-89.2616119999999995
11
202.1654849999999897
21
-89.3021650000000022
0
LINE
8
BLACK
6
CONTINUOUS
10
202.1654849999999897
20
-89.3021650000000022
11
202.1749999999999829
21
-89.3499999999999943
0
LINE
8
BLACK
6
CONTINUOUS
10
202.1749999999999829
20
-89.3499999999999943
11
202.1749999999999829
21
-91.
0
LINE
8
BLACK
6
CONTINUOUS
10
202.1749999999999829
20
-91.
11
202.1654849999999897
21
-91.0478349999999921
0
LINE
8
BLACK
6
CONTINUOUS
10
202.1654849999999897
20
-91.0478349999999921
11
202.138387999999992
21
-91.0883879999999948
0
LINE
8
BLACK
6
CONTINUOUS
10
202.138387999999992
20
-91.0883879999999948
11
202.0978350000000034
21
-91.1154849999999925
0
LINE
8
BLACK
6
CONTINUOUS
10
202.0978350000000034
20
-91.1154849999999925
11
202.0499999999999829
21
-91.125
0
LINE
8
BLACK
6
CONTINUOUS
10
202.0499999999999829
20
-91.125
11
201.7999999999999829
21
-91.125
0
LINE
8
BLACK
6
CONTINUOUS
10
201.7999999999999829
20
-91.125
11
201.7521649999999909
21
-91.1154849999999925
0
LINE
8
BLACK
6
CONTINUOUS
10
201.7521649999999909
20
-91.1154849999999925
11
201.7116120000000024
21
-91.0883879999999948
0
LINE
8
BLACK
6
CONTINUOUS
10
201.7116120000000024
20
-91.0883879999999948
11
201.6845150000000046
21
-91.0478349999999921
0
LINE
8
BLACK
6
CONTINUOUS
10
201.6845150000000046
20
-91.0478349999999921
11
201.6749999999999829
21
-91.
0
LINE
8
BLACK
6
CONTINUOUS
10
201.6749999999999829
20
-91.
11
201.6749999999999829
21
-89.3499999999999943
0
LINE
8
BLACK
6
CONTINUOUS
10
201.6749999999999829
20
-89.3499999999999943
11
201.6845150000000046
21
-89.3021650000000022
0
LINE
8
BLACK
6
CONTINUOUS
10
201.6845150000000046
20
-89.3021650000000022
11
201.7116120000000024
21
-89.2616119999999995
0
LINE
8
BLACK
6
CONTINUOUS
10
201.7116120000000024
20
-89.2616119999999995
11
201.7521649999999909
21
-89.2345150000000018
0
LINE
8
BLACK
6
CONTINUOUS
10
201.7521649999999909
20
-89.2345150000000018
11
201.7999999999999829
21
-89.2249999999999943
0
LINE
8
BLACK
6
CONTINUOUS
10
201.7999999999999829
20
-89.2249999999999943
11
202.0499999999999829
21
-89.2249999999999943
0
LINE
8
BLACK
6
CONTINUOUS
10
202.0499999999999829
20
-89.2249999999999943
11
202.0978350000000034
21
-89.2345150000000018
0
LINE
8
BLACK
6
CONTINUOUS
10
202.7478349999999807
20
-89.2345150000000018
11
202.7883879999999976
21
-89.2616119999999995
0
LINE
8
BLACK
6
CONTINUOUS
10
202.7883879999999976
20
-89.2616119999999995
11
202.8154849999999954
21
-89.3021650000000022
0
LINE
8
BLACK
6
CONTINUOUS
10
202.8154849999999954
20
-89.3021650000000022
11
202.8249999999999886
21
-89.3499999999999943
0
LINE
8
BLACK
6
CONTINUOUS
10
202.8249999999999886
20
-89.3499999999999943
11
202.8249999999999886
21
-91.
0
LINE
8
BLACK
6
CONTINUOUS
10
202.8249999999999886
20
-91.
11
202.8154849999999954
21
-91.0478349999999921
0
LINE
8
BLACK
6
CONTINUOUS
10
202.8154849999999954
20
-91.0478349999999921
11
202.7883879999999976
21
-91.0883879999999948
0
LINE
8
BLACK
6
CONTINUOUS
10
202.7883879999999976
20
-91.0883879999999948
11
202.7478349999999807
21
-91.1154849999999925
0
LINE
8
BLACK
6
CONTINUOUS
10
202.7478349999999807
20
-91.1154849999999925
11
202.6999999999999886
21
-91.125
0
LINE
8
BLACK
6
CONTINUOUS
10
202.6999999999999886
20
-91.125
11
202.4499999999999886
21
-91.125
0
LINE
8
BLACK
6
CONTINUOUS
10
202.4499999999999886
20
-91.125
11
202.4021649999999966
21
-91.1154849999999925
0
LINE
8
BLACK
6
CONTINUOUS
10
202.4021649999999966
20
-91.1154849999999925
11
202.3616119999999796
21
-91.0883879999999948
0
LINE
8
BLACK
6
CONTINUOUS
10
202.3616119999999796
20
-91.0883879999999948
11
202.3345149999999819
21
-91.0478349999999921
0
LINE
8
BLACK
6
CONTINUOUS
10
202.3345149999999819
20
-91.0478349999999921
11
202.3249999999999886
21
-91.
0
LINE
8
BLACK
6
CONTINUOUS
10
202.3249999999999886
20
-91.
11
202.3249999999999886
21
-89.3499999999999943
0
LINE
8
BLACK
6
CONTINUOUS
10
202.3249999999999886
20
-89.3499999999999943
11
202.3345149999999819
21
-89.3021650000000022
0
LINE
8
BLACK
6
CONTINUOUS
10
202.3345149999999819
20
-89.3021650000000022
11
202.3616119999999796
21
-89.2616119999999995
0
LINE
8
BLACK
6
CONTINUOUS
10
202.3616119999999796
20
-89.2616119999999995
11
202.4021649999999966
21
-89.2345150000000018
0
LINE
8
BLACK
6
CONTINUOUS
10
202.4021649999999966
20
-89.2345150000000018
11
202.4499999999999886
21
-89.2249999999999943
0
LINE
8
BLACK
6
CONTINUOUS
10
202.4499999999999886
20
-89.2249999999999943
11
202.6999999999999886
21
-89.2249999999999943
0
LINE
8
BLACK
6
CONTINUOUS
10
202.6999999999999886
20
-89.2249999999999943
11
202.7478349999999807
21
-89.2345150000000018
0
LINE
8
BLACK
6
CONTINUOUS
10
203.3978349999999864
20
-89.2345150000000018
11
203.4383880000000033
21
-89.2616119999999995
0
LINE
8
BLACK
6
CONTINUOUS
10
203.4383880000000033
20
-89.2616119999999995
11
203.465485000000001
21
-89.3021650000000022
0
LINE
8
BLACK
6
CONTINUOUS
10
203.465485000000001
20
-89.3021650000000022
11
203.4749999999999943
21
-89.3499999999999943
0
LINE
8
BLACK
6
CONTINUOUS
10
203.4749999999999943
20
-89.3499999999999943
11
203.4749999999999943
21
-91.
0
LINE
8
BLACK
6
CONTINUOUS
10
203.4749999999999943
20
-91.
11
203.465485000000001
21
-91.0478349999999921
0
LINE
8
BLACK
6
CONTINUOUS
10
203.465485000000001
20
-91.0478349999999921
11
203.4383880000000033
21
-91.0883879999999948
0
LINE
8
BLACK
6
CONTINUOUS
10
203.4383880000000033
20
-91.0883879999999948
11
203.3978349999999864
21
-91.1154849999999925
0
LINE
8
BLACK
6
CONTINUOUS
10
203.3978349999999864
20
-91.1154849999999925
11
203.3499999999999943
21
-91.125
0
LINE
8
BLACK
6
CONTINUOUS
10
203.3499999999999943
20
-91.125
11
203.0999999999999943
21
-91.125
0
LINE
8
BLACK
6
CONTINUOUS
10
203.0999999999999943
20
-91.125
11
203.0521650000000022
21
-91.1154849999999925
0
LINE
8
BLACK
6
CONTINUOUS
10
203.0521650000000022
20
-91.1154849999999925
11
203.0116119999999853
21
-91.0883879999999948
0
LINE
8
BLACK
6
CONTINUOUS
10
203.0116119999999853
20
-91.0883879999999948
11
202.9845149999999876
21
-91.0478349999999921
0
LINE
8
BLACK
6
CONTINUOUS
10
202.9845149999999876
20
-91.0478349999999921
11
202.9749999999999943
21
-91.
0
LINE
8
BLACK
6
CONTINUOUS
10
202.9749999999999943
20
-91.
11
202.9749999999999943
21
-89.3499999999999943
0
LINE
8
BLACK
6
CONTINUOUS
10
202.9749999999999943
20
-89.3499999999999943
11
202.9845149999999876
21
-89.3021650000000022
0
LINE
8
BLACK
6
CONTINUOUS
10
202.9845149999999876
20
-89.3021650000000022
11
203.0116119999999853
21
-89.2616119999999995
0
LINE
8
BLACK
6
CONTINUOUS
10
203.0116119999999853
20
-89.2616119999999995
11
203.0521650000000022
21
-89.2345150000000018
0
LINE
8
BLACK
6
CONTINUOUS
10
203.0521650000000022
20
-89.2345150000000018
11
203.0999999999999943
21
-89.2249999999999943
0
LINE
8
BLACK
6
CONTINUOUS
10
203.0999999999999943
20
-89.2249999999999943
11
203.3499999999999943
21
-89.2249999999999943
0
LINE
8
BLACK
6
CONTINUOUS
10
203.3499999999999943
20
-89.2249999999999943
11
203.3978349999999864
21
-89.2345150000000018
0
LINE
8
BLACK
6
CONTINUOUS
10
204.0478349999999921
20
-89.2345150000000018
11
204.0883879999999806
21
-89.2616119999999995
0
LINE
8
BLACK
6
CONTINUOUS
10
204.0883879999999806
20
-89.2616119999999995
11
204.1154849999999783
21
-89.3021650000000022
0
LINE
8
BLACK
6
CONTINUOUS
10
204.1154849999999783
20
-89.3021650000000022
11
204.125
21
-89.3499999999999943
0
LINE
8
BLACK
6
CONTINUOUS
10
204.125
20
-89.3499999999999943
11
204.125
21
-91.
0
LINE
8
BLACK
6
CONTINUOUS
10
204.125
20
-91.
11
204.1154849999999783
21
-91.0478349999999921
0
LINE
8
BLACK
6
CONTINUOUS
10
204.1154849999999783
20
-91.0478349999999921
11
204.0883879999999806
21
-91.0883879999999948
0
LINE
8
BLACK
6
CONTINUOUS
10
204.0883879999999806
20
-91.0883879999999948
11
204.0478349999999921
21
-91.1154849999999925
0
LINE
8
BLACK
6
CONTINUOUS
10
204.0478349999999921
20
-91.1154849999999925
11
204.
21
-91.125
0
LINE
8
BLACK
6
CONTINUOUS
10
204.
20
-91.125
11
203.75
21
-91.125
0
LINE
8
BLACK
6
CONTINUOUS
10
203.75
20
-91.125
11
203.7021649999999795
21
-91.1154849999999925
0
LINE
8
BLACK
6
CONTINUOUS
10
203.7021649999999795
20
-91.1154849999999925
11
203.661611999999991
21
-91.0883879999999948
0
LINE
8
BLACK
6
CONTINUOUS
10
203.661611999999991
20
-91.0883879999999948
11
203.6345149999999933
21
-91.0478349999999921
0
LINE
8
BLACK
6
CONTINUOUS
10
203.6345149999999933
20
-91.0478349999999921
11
203.625
21
-91.
0
LINE
8
BLACK
6
CONTINUOUS
10
203.625
20
-91.
11
203.625
21
-89.3499999999999943
0
LINE
8
BLACK
6
CONTINUOUS
10
203.625
20
-89.3499999999999943
11
203.6345149999999933
21
-89.3021650000000022
0
LINE
8
BLACK
6
CONTINUOUS
10
203.6345149999999933
20
-89.3021650000000022
11
203.661611999999991
21
-89.2616119999999995
0
LINE
8
BLACK
6
CONTINUOUS
10
203.661611999999991
20
-89.2616119999999995
11
203.7021649999999795
21
-89.2345150000000018
0
LINE
8
BLACK
6
CONTINUOUS
10
203.7021649999999795
20
-89.2345150000000018
11
203.75
21
-89.2249999999999943
0
LINE
8
BLACK
6
CONTINUOUS
10
203.75
20
-89.2249999999999943
11
204.
21
-89.2249999999999943
0
LINE
8
BLACK
6
CONTINUOUS
10
204.
20
-89.2249999999999943
11
204.0478349999999921
21
-89.2345150000000018
0
LINE
8
BLACK
6
CONTINUOUS
10
204.6978349999999978
20
-89.2345150000000018
11
204.7383879999999863
21
-89.2616119999999995
0
LINE
8
BLACK
6
CONTINUOUS
10
204.7383879999999863
20
-89.2616119999999995
11
204.765484999999984
21
-89.3021650000000022
0
LINE
8
BLACK
6
CONTINUOUS
10
204.765484999999984
20
-89.3021650000000022
11
204.7749999999999773
21
-89.3499999999999943
0
LINE
8
BLACK
6
CONTINUOUS
10
204.7749999999999773
20
-89.3499999999999943
11
204.7749999999999773
21
-91.
0
LINE
8
BLACK
6
CONTINUOUS
10
204.7749999999999773
20
-91.
11
204.765484999999984
21
-91.0478349999999921
0
LINE
8
BLACK
6
CONTINUOUS
10
204.765484999999984
20
-91.0478349999999921
11
204.7383879999999863
21
-91.0883879999999948
0
LINE
8
BLACK
6
CONTINUOUS
10
204.7383879999999863
20
-91.0883879999999948
11
204.6978349999999978
21
-91.1154849999999925
0
LINE
8
BLACK
6
CONTINUOUS
10
204.6978349999999978
20
-91.1154849999999925
11
204.6499999999999773
21
-91.125
0
LINE
8
BLACK
6
CONTINUOUS
10
204.6499999999999773
20
-91.125
11
204.3999999999999773
21
-91.125
0
LINE
8
BLACK
6
CONTINUOUS
10
204.3999999999999773
20
-91.125
11
204.3521649999999852
21
-91.1154849999999925
0
LINE
8
BLACK
6
CONTINUOUS
10
204.3521649999999852
20
-91.1154849999999925
11
204.3116119999999967
21
-91.0883879999999948
0
LINE
8
BLACK
6
CONTINUOUS
10
204.3116119999999967
20
-91.0883879999999948
11
204.284514999999999
21
-91.0478349999999921
0
LINE
8
BLACK
6
CONTINUOUS
10
204.284514999999999
20
-91.0478349999999921
11
204.2749999999999773
21
-91.
0
LINE
8
BLACK
6
CONTINUOUS
10
204.2749999999999773
20
-91.
11
204.2749999999999773
21
-89.3499999999999943
0
LINE
8
BLACK
6
CONTINUOUS
10
204.2749999999999773
20
-89.3499999999999943
11
204.284514999999999
21
-89.3021650000000022
0
LINE
8
BLACK
6
CONTINUOUS
10
204.284514999999999
20
-89.3021650000000022
11
204.3116119999999967
21
-89.2616119999999995
0
LINE
8
BLACK
6
CONTINUOUS
10
204.3116119999999967
20
-89.2616119999999995
11
204.3521649999999852
21
-89.2345150000000018
0
LINE
8
BLACK
6
CONTINUOUS
10
204.3521649999999852
20
-89.2345150000000018
11
204.3999999999999773
21
-89.2249999999999943
0
LINE
8
BLACK
6
CONTINUOUS
10
204.3999999999999773
20
-89.2249999999999943
11
204.6499999999999773
21
-89.2249999999999943
0
LINE
8
BLACK
6
CONTINUOUS
10
204.6499999999999773
20
-89.2249999999999943
11
204.6978349999999978
21
-89.2345150000000018
0
LINE
8
BLACK
6
CONTINUOUS
10
205.3478350000000034
20
-89.2345150000000018
11
205.388387999999992
21
-89.2616119999999995
0
LINE
8
BLACK
6
CONTINUOUS
10
205.388387999999992
20
-89.2616119999999995
11
205.4154849999999897
21
-89.3021650000000022
0
LINE
8
BLACK
6
CONTINUOUS
10
205.4154849999999897
20
-89.3021650000000022
11
205.4249999999999829
21
-89.3499999999999943
0
LINE
8
BLACK
6
CONTINUOUS
10
205.4249999999999829
20
-89.3499999999999943
11
205.4249999999999829
21
-91.
0
LINE
8
BLACK
6
CONTINUOUS
10
205.4249999999999829
20
-91.
11
205.4154849999999897
21
-91.0478349999999921
0
LINE
8
BLACK
6
CONTINUOUS
10
205.4154849999999897
20
-91.0478349999999921
11
205.388387999999992
21
-91.0883879999999948
0
LINE
8
BLACK
6
CONTINUOUS
10
205.388387999999992
20
-91.0883879999999948
11
205.3478350000000034
21
-91.1154849999999925
0
LINE
8
BLACK
6
CONTINUOUS
10
205.3478350000000034
20
-91.1154849999999925
11
205.2999999999999829
21
-91.125
0
LINE
8
BLACK
6
CONTINUOUS
10
205.2999999999999829
20
-91.125
11
205.0499999999999829
21
-91.125
0
LINE
8
BLACK
6
CONTINUOUS
10
205.0499999999999829
20
-91.125
11
205.0021649999999909
21
-91.1154849999999925
0
LINE
8
BLACK
6
CONTINUOUS
10
205.0021649999999909
20
-91.1154849999999925
11
204.9616120000000024
21
-91.0883879999999948
0
LINE
8
BLACK
6
CONTINUOUS
10
204.9616120000000024
20
-91.0883879999999948
11
204.9345150000000046
21
-91.0478349999999921
0
LINE
8
BLACK
6
CONTINUOUS
10
204.9345150000000046
20
-91.0478349999999921
11
204.9249999999999829
21
-91.
0
LINE
8
BLACK
6
CONTINUOUS
10
204.9249999999999829
20
-91.
11
204.9249999999999829
21
-89.3499999999999943
0
LINE
8
BLACK
6
CONTINUOUS
10
204.9249999999999829
20
-89.3499999999999943
11
204.9345150000000046
21
-89.3021650000000022
0
LINE
8
BLACK
6
CONTINUOUS
10
204.9345150000000046
20
-89.3021650000000022
11
204.9616120000000024
21
-89.2616119999999995
0
LINE
8
BLACK
6
CONTINUOUS
10
204.9616120000000024
20
-89.2616119999999995
11
205.0021649999999909
21
-89.2345150000000018
0
LINE
8
BLACK
6
CONTINUOUS
10
205.0021649999999909
20
-89.2345150000000018
11
205.0499999999999829
21
-89.2249999999999943
0
LINE
8
BLACK
6
CONTINUOUS
10
205.0499999999999829
20
-89.2249999999999943
11
205.2999999999999829
21
-89.2249999999999943
0
LINE
8
BLACK
6
CONTINUOUS
10
205.2999999999999829
20
-89.2249999999999943
11
205.3478350000000034
21
-89.2345150000000018
0
LINE
8
BLACK
6
CONTINUOUS
10
205.9978349999999807
20
-89.2345150000000018
11
206.0383879999999976
21
-89.2616119999999995
0
LINE
8
BLACK
6
CONTINUOUS
10
206.0383879999999976
20
-89.2616119999999995
11
206.0654849999999954
21
-89.3021650000000022
0
LINE
8
BLACK
6
CONTINUOUS
10
206.0654849999999954
20
-89.3021650000000022
11
206.0749999999999886
21
-89.3499999999999943
0
LINE
8
BLACK
6
CONTINUOUS
10
206.0749999999999886
20
-89.3499999999999943
11
206.0749999999999886
21
-91.
0
LINE
8
BLACK
6
CONTINUOUS
10
206.0749999999999886
20
-91.
11
206.0654849999999954
21
-91.0478349999999921
0
LINE
8
BLACK
6
CONTINUOUS
10
206.0654849999999954
20
-91.0478349999999921
11
206.0383879999999976
21
-91.0883879999999948
0
LINE
8
BLACK
6
CONTINUOUS
10
206.0383879999999976
20
-91.0883879999999948
11
205.9978349999999807
21
-91.1154849999999925
0
LINE
8
BLACK
6
CONTINUOUS
10
205.9978349999999807
20
-91.1154849999999925
11
205.9499999999999886
21
-91.125
0
LINE
8
BLACK
6
CONTINUOUS
10
205.9499999999999886
20
-91.125
11
205.6999999999999886
21
-91.125
0
LINE
8
BLACK
6
CONTINUOUS
10
205.6999999999999886
20
-91.125
11
205.6521649999999966
21
-91.1154849999999925
0
LINE
8
BLACK
6
CONTINUOUS
10
205.6521649999999966
20
-91.1154849999999925
11
205.6116119999999796
21
-91.0883879999999948
0
LINE
8
BLACK
6
CONTINUOUS
10
205.6116119999999796
20
-91.0883879999999948
11
205.5845149999999819
21
-91.0478349999999921
0
LINE
8
BLACK
6
CONTINUOUS
10
205.5845149999999819
20
-91.0478349999999921
11
205.5749999999999886
21
-91.
0
LINE
8
BLACK
6
CONTINUOUS
10
205.5749999999999886
20
-91.
11
205.5749999999999886
21
-89.3499999999999943
0
LINE
8
BLACK
6
CONTINUOUS
10
205.5749999999999886
20
-89.3499999999999943
11
205.5845149999999819
21
-89.3021650000000022
0
LINE
8
BLACK
6
CONTINUOUS
10
205.5845149999999819
20
-89.3021650000000022
11
205.6116119999999796
21
-89.2616119999999995
0
LINE
8
BLACK
6
CONTINUOUS
10
205.6116119999999796
20
-89.2616119999999995
11
205.6521649999999966
21
-89.2345150000000018
0
LINE
8
BLACK
6
CONTINUOUS
10
205.6521649999999966
20
-89.2345150000000018
11
205.6999999999999886
21
-89.2249999999999943
0
LINE
8
BLACK
6
CONTINUOUS
10
205.6999999999999886
20
-89.2249999999999943
11
205.9499999999999886
21
-89.2249999999999943
0
LINE
8
BLACK
6
CONTINUOUS
10
205.9499999999999886
20
-89.2249999999999943
11
205.9978349999999807
21
-89.2345150000000018
0
LINE
8
BLACK
6
CONTINUOUS
10
206.6478349999999864
20
-89.2345150000000018
11
206.6883880000000033
21
-89.2616119999999995
0
LINE
8
BLACK
6
CONTINUOUS
10
206.6883880000000033
20
-89.2616119999999995
11
206.715485000000001
21
-89.3021650000000022
0
LINE
8
BLACK
6
CONTINUOUS
10
206.715485000000001
20
-89.3021650000000022
11
206.7249999999999943
21
-89.3499999999999943
0
LINE
8
BLACK
6
CONTINUOUS
10
206.7249999999999943
20
-89.3499999999999943
11
206.7249999999999943
21
-91.
0
LINE
8
BLACK
6
CONTINUOUS
10
206.7249999999999943
20
-91.
11
206.715485000000001
21
-91.0478349999999921
0
LINE
8
BLACK
6
CONTINUOUS
10
206.715485000000001
20
-91.0478349999999921
11
206.6883880000000033
21
-91.0883879999999948
0
LINE
8
BLACK
6
CONTINUOUS
10
206.6883880000000033
20
-91.0883879999999948
11
206.6478349999999864
21
-91.1154849999999925
0
LINE
8
BLACK
6
CONTINUOUS
10
206.6478349999999864
20
-91.1154849999999925
11
206.5999999999999943
21
-91.125
0
LINE
8
BLACK
6
CONTINUOUS
10
206.5999999999999943
20
-91.125
11
206.3499999999999943
21
-91.125
0
LINE
8
BLACK
6
CONTINUOUS
10
206.3499999999999943
20
-91.125
11
206.3021650000000022
21
-91.1154849999999925
0
LINE
8
BLACK
6
CONTINUOUS
10
206.3021650000000022
20
-91.1154849999999925
11
206.2616119999999853
21
-91.0883879999999948
0
LINE
8
BLACK
6
CONTINUOUS
10
206.2616119999999853
20
-91.0883879999999948
11
206.2345149999999876
21
-91.0478349999999921
0
LINE
8
BLACK
6
CONTINUOUS
10
206.2345149999999876
20
-91.0478349999999921
11
206.2249999999999943
21
-91.
0
LINE
8
BLACK
6
CONTINUOUS
10
206.2249999999999943
20
-91.
11
206.2249999999999943
21
-89.3499999999999943
0
LINE
8
BLACK
6
CONTINUOUS
10
206.2249999999999943
20
-89.3499999999999943
11
206.2345149999999876
21
-89.3021650000000022
0
LINE
8
BLACK
6
CONTINUOUS
10
206.2345149999999876
20
-89.3021650000000022
11
206.2616119999999853
21
-89.2616119999999995
0
LINE
8
BLACK
6
CONTINUOUS
10
206.2616119999999853
20
-89.2616119999999995
11
206.3021650000000022
21
-89.2345150000000018
0
LINE
8
BLACK
6
CONTINUOUS
10
206.3021650000000022
20
-89.2345150000000018
11
206.3499999999999943
21
-89.2249999999999943
0
LINE
8
BLACK
6
CONTINUOUS
10
206.3499999999999943
20
-89.2249999999999943
11
206.5999999999999943
21
-89.2249999999999943
0
LINE
8
BLACK
6
CONTINUOUS
10
206.5999999999999943
20
-89.2249999999999943
11
206.6478349999999864
21
-89.2345150000000018
0
LINE
8
BLACK
6
CONTINUOUS
10
207.2978349999999921
20
-89.2345150000000018
11
207.3383879999999806
21
-89.2616119999999995
0
LINE
8
BLACK
6
CONTINUOUS
10
207.3383879999999806
20
-89.2616119999999995
11
207.3654849999999783
21
-89.3021650000000022
0
LINE
8
BLACK
6
CONTINUOUS
10
207.3654849999999783
20
-89.3021650000000022
11
207.375
21
-89.3499999999999943
0
LINE
8
BLACK
6
CONTINUOUS
10
207.375
20
-89.3499999999999943
11
207.375
21
-91.
0
LINE
8
BLACK
6
CONTINUOUS
10
207.375
20
-91.
11
207.3654849999999783
21
-91.0478349999999921
0
LINE
8
BLACK
6
CONTINUOUS
10
207.3654849999999783
20
-91.0478349999999921
11
207.3383879999999806
21
-91.0883879999999948
0
LINE
8
BLACK
6
CONTINUOUS
10
207.3383879999999806
20
-91.0883879999999948
11
207.2978349999999921
21
-91.1154849999999925
0
LINE
8
BLACK
6
CONTINUOUS
10
207.2978349999999921
20
-91.1154849999999925
11
207.25
21
-91.125
0
LINE
8
BLACK
6
CONTINUOUS
10
207.25
20
-91.125
11
207.
21
-91.125
0
LINE
8
BLACK
6
CONTINUOUS
10
207.
20
-91.125
11
206.9521649999999795
21
-91.1154849999999925
0
LINE
8
BLACK
6
CONTINUOUS
10
206.9521649999999795
20
-91.1154849999999925
11
206.911611999999991
21
-91.0883879999999948
0
LINE
8
BLACK
6
CONTINUOUS
10
206.911611999999991
20
-91.0883879999999948
11
206.8845149999999933
21
-91.0478349999999921
0
LINE
8
BLACK
6
CONTINUOUS
10
206.8845149999999933
20
-91.0478349999999921
11
206.875
21
-91.
0
LINE
8
BLACK
6
CONTINUOUS
10
206.875
20
-91.
11
206.875
21
-89.3499999999999943
0
LINE
8
BLACK
6
CONTINUOUS
10
206.875
20
-89.3499999999999943
11
206.8845149999999933
21
-89.3021650000000022
0
LINE
8
BLACK
6
CONTINUOUS
10
206.8845149999999933
20
-89.3021650000000022
11
206.911611999999991
21
-89.2616119999999995
0
LINE
8
BLACK
6
CONTINUOUS
10
206.911611999999991
20
-89.2616119999999995
11
206.9521649999999795
21
-89.2345150000000018
0
LINE
8
BLACK
6
CONTINUOUS
10
206.9521649999999795
20
-89.2345150000000018
11
207.
21
-89.2249999999999943
0
LINE
8
BLACK
6
CONTINUOUS
10
207.
20
-89.2249999999999943
11
207.25
21
-89.2249999999999943
0
LINE
8
BLACK
6
CONTINUOUS
10
207.25
20
-89.2249999999999943
11
207.2978349999999921
21
-89.2345150000000018
0
LINE
8
BLACK
6
CONTINUOUS
10
195.2956709999999987
20
-89.7690300000000008
11
195.3767770000000041
21
-89.8232229999999987
0
LINE
8
BLACK
6
CONTINUOUS
10
195.3767770000000041
20
-89.8232229999999987
11
195.4309700000000021
21
-89.9043289999999899
0
LINE
8
BLACK
6
CONTINUOUS
10
195.4309700000000021
20
-89.9043289999999899
11
195.4499999999999886
21
-90.
0
LINE
8
BLACK
6
CONTINUOUS
10
195.4499999999999886
20
-90.
11
195.4499999999999886
21
-90.7000000000000028
0
LINE
8
BLACK
6
CONTINUOUS
10
195.4499999999999886
20
-90.7000000000000028
11
195.4309700000000021
21
-90.7956709999999987
0
LINE
8
BLACK
6
CONTINUOUS
10
195.4309700000000021
20
-90.7956709999999987
11
195.3767770000000041
21
-90.8767769999999899
0
LINE
8
BLACK
6
CONTINUOUS
10
195.3767770000000041
20
-90.8767769999999899
11
195.2956709999999987
21
-90.9309700000000021
0
LINE
8
BLACK
6
CONTINUOUS
10
195.2956709999999987
20
-90.9309700000000021
11
195.1999999999999886
21
-90.9500000000000028
0
LINE
8
BLACK
6
CONTINUOUS
10
195.1999999999999886
20
-90.9500000000000028
11
194.2999999999999829
21
-90.9500000000000028
0
LINE
8
BLACK
6
CONTINUOUS
10
194.2999999999999829
20
-90.9500000000000028
11
194.2043290000000013
21
-90.9309700000000021
0
LINE
8
BLACK
6
CONTINUOUS
10
194.2043290000000013
20
-90.9309700000000021
11
194.1232229999999959
21
-90.8767769999999899
0
LINE
8
BLACK
6
CONTINUOUS
10
194.1232229999999959
20
-90.8767769999999899
11
194.0690299999999979
21
-90.7956709999999987
0
LINE
8
BLACK
6
CONTINUOUS
10
194.0690299999999979
20
-90.7956709999999987
11
194.0499999999999829
21
-90.7000000000000028
0
LINE
8
BLACK
6
CONTINUOUS
10
194.0499999999999829
20
-90.7000000000000028
11
194.0499999999999829
21
-90.
0
LINE
8
BLACK
6
CONTINUOUS
10
194.0499999999999829
20
-90.
11
194.0690299999999979
21
-89.9043289999999899
0
LINE
8
BLACK
6
CONTINUOUS
10
194.0690299999999979
20
-89.9043289999999899
11
194.1232229999999959
21
-89.8232229999999987
0
LINE
8
BLACK
6
CONTINUOUS
10
194.1232229999999959
20
-89.8232229999999987
11
194.2043290000000013
21
-89.7690300000000008
0
LINE
8
BLACK
6
CONTINUOUS
10
194.2043290000000013
20
-89.7690300000000008
11
194.2999999999999829
21
-89.75
0
LINE
8
BLACK
6
CONTINUOUS
10
194.2999999999999829
20
-89.75
11
195.1999999999999886
21
-89.75
0
LINE
8
BLACK
6
CONTINUOUS
10
195.1999999999999886
20
-89.75
11
195.2956709999999987
21
-89.7690300000000008
0
LINE
8
BLACK
6
CONTINUOUS
10
220.018999999999977
20
-90.5499999999999972
11
218.4689999999999941
21
-90.5499999999999972
0
LINE
8
BLACK
6
CONTINUOUS
10
218.4689999999999941
20
-90.5499999999999972
11
218.4689999999999941
21
-89.9500000000000028
0
LINE
8
BLACK
6
CONTINUOUS
10
218.4689999999999941
20
-89.9500000000000028
11
220.018999999999977
21
-89.9500000000000028
0
LINE
8
BLACK
6
CONTINUOUS
10
220.018999999999977
20
-89.9500000000000028
11
220.018999999999977
21
-90.5499999999999972
0
LINE
8
BLACK
6
CONTINUOUS
10
211.7189999999999941
20
-90.3689999999999998
11
211.1189999999999998
21
-90.3689999999999998
0
LINE
8
BLACK
6
CONTINUOUS
10
211.1189999999999998
20
-90.3689999999999998
11
211.1189999999999998
21
-88.8190000000000026
0
LINE
8
BLACK
6
CONTINUOUS
10
211.1189999999999998
20
-88.8190000000000026
11
211.7189999999999941
21
-88.8190000000000026
0
LINE
8
BLACK
6
CONTINUOUS
10
211.7189999999999941
20
-88.8190000000000026
11
211.7189999999999941
21
-90.3689999999999998
0
LINE
8
BLACK
6
CONTINUOUS
10
212.7189999999999941
20
-90.3689999999999998
11
212.1189999999999998
21
-90.3689999999999998
0
LINE
8
BLACK
6
CONTINUOUS
10
212.1189999999999998
20
-90.3689999999999998
11
212.1189999999999998
21
-88.8190000000000026
0
LINE
8
BLACK
6
CONTINUOUS
10
212.1189999999999998
20
-88.8190000000000026
11
212.7189999999999941
21
-88.8190000000000026
0
LINE
8
BLACK
6
CONTINUOUS
10
212.7189999999999941
20
-88.8190000000000026
11
212.7189999999999941
21
-90.3689999999999998
0
LINE
8
BLACK
6
CONTINUOUS
10
213.7189999999999941
20
-90.3689999999999998
11
213.1189999999999998
21
-90.3689999999999998
0
LINE
8
BLACK
6
CONTINUOUS
10
213.1189999999999998
20
-90.3689999999999998
11
213.1189999999999998
21
-88.8190000000000026
0
LINE
8
BLACK
6
CONTINUOUS
10
213.1189999999999998
20
-88.8190000000000026
11
213.7189999999999941
21
-88.8190000000000026
0
LINE
8
BLACK
6
CONTINUOUS
10
213.7189999999999941
20
-88.8190000000000026
11
213.7189999999999941
21
-90.3689999999999998
0
LINE
8
BLACK
6
CONTINUOUS
10
214.7189999999999941
20
-90.3689999999999998
11
214.1189999999999998
21
-90.3689999999999998
0
LINE
8
BLACK
6
CONTINUOUS
10
214.1189999999999998
20
-90.3689999999999998
11
214.1189999999999998
21
-88.8190000000000026
0
LINE
8
BLACK
6
CONTINUOUS
10
214.1189999999999998
20
-88.8190000000000026
11
214.7189999999999941
21
-88.8190000000000026
0
LINE
8
BLACK
6
CONTINUOUS
10
214.7189999999999941
20
-88.8190000000000026
11
214.7189999999999941
21
-90.3689999999999998
0
LINE
8
BLACK
6
CONTINUOUS
10
189.3499999999999943
20
-90.2999999999999972
11
188.3499999999999943
21
-90.2999999999999972
0
LINE
8
BLACK
6
CONTINUOUS
10
188.3499999999999943
20
-90.2999999999999972
11
188.3499999999999943
21
-88.75
0
LINE
8
BLACK
6
CONTINUOUS
10
188.3499999999999943
20
-88.75
11
189.3499999999999943
21
-88.75
0
LINE
8
BLACK
6
CONTINUOUS
10
189.3499999999999943
20
-88.75
11
189.3499999999999943
21
-90.2999999999999972
0
LINE
8
BLACK
6
CONTINUOUS
10
191.0499999999999829
20
-90.2999999999999972
11
190.0499999999999829
21
-90.2999999999999972
0
LINE
8
BLACK
6
CONTINUOUS
10
190.0499999999999829
20
-90.2999999999999972
11
190.0499999999999829
21
-88.75
0
LINE
8
BLACK
6
CONTINUOUS
10
190.0499999999999829
20
-88.75
11
191.0499999999999829
21
-88.75
0
LINE
8
BLACK
6
CONTINUOUS
10
191.0499999999999829
20
-88.75
11
191.0499999999999829
21
-90.2999999999999972
0
LINE
8
BLACK
6
CONTINUOUS
10
224.0439999999999827
20
-89.5499999999999972
11
222.2439999999999998
21
-89.5499999999999972
0
LINE
8
BLACK
6
CONTINUOUS
10
222.2439999999999998
20
-89.5499999999999972
11
222.2439999999999998
21
-88.3499999999999943
0
LINE
8
BLACK
6
CONTINUOUS
10
222.2439999999999998
20
-88.3499999999999943
11
224.0439999999999827
21
-88.3499999999999943
0
LINE
8
BLACK
6
CONTINUOUS
10
224.0439999999999827
20
-88.3499999999999943
11
224.0439999999999827
21
-89.5499999999999972
0
LINE
8
BLACK
6
CONTINUOUS
10
202.8656709999999919
20
-85.8190299999999979
11
202.9467769999999973
21
-85.8732229999999959
0
LINE
8
BLACK
6
CONTINUOUS
10
202.9467769999999973
20
-85.8732229999999959
11
203.0009699999999953
21
-85.9543290000000013
0
LINE
8
BLACK
6
CONTINUOUS
10
203.0009699999999953
20
-85.9543290000000013
11
203.0199999999999818
21
-86.0499999999999972
0
LINE
8
BLACK
6
CONTINUOUS
10
203.0199999999999818
20
-86.0499999999999972
11
203.0199999999999818
21
-86.75
0
LINE
8
BLACK
6
CONTINUOUS
10
203.0199999999999818
20
-86.75
11
203.0009699999999953
21
-86.8456709999999958
0
LINE
8
BLACK
6
CONTINUOUS
10
203.0009699999999953
20
-86.8456709999999958
11
202.9467769999999973
21
-86.9267770000000013
0
LINE
8
BLACK
6
CONTINUOUS
10
202.9467769999999973
20
-86.9267770000000013
11
202.8656709999999919
21
-86.9809699999999992
0
LINE
8
BLACK
6
CONTINUOUS
10
202.8656709999999919
20
-86.9809699999999992
11
202.7699999999999818
21
-87.
0
LINE
8
BLACK
6
CONTINUOUS
10
202.7699999999999818
20
-87.
11
201.8700000000000045
21
-87.
0
LINE
8
BLACK
6
CONTINUOUS
10
201.8700000000000045
20
-87.
11
201.7743289999999945
21
-86.9809699999999992
0
LINE
8
BLACK
6
CONTINUOUS
10
201.7743289999999945
20
-86.9809699999999992
11
201.693222999999989
21
-86.9267770000000013
0
LINE
8
BLACK
6
CONTINUOUS
10
201.693222999999989
20
-86.9267770000000013
11
201.6390299999999911
21
-86.8456709999999958
0
LINE
8
BLACK
6
CONTINUOUS
10
201.6390299999999911
20
-86.8456709999999958
11
201.6200000000000045
21
-86.75
0
LINE
8
BLACK
6
CONTINUOUS
10
201.6200000000000045
20
-86.75
11
201.6200000000000045
21
-86.0499999999999972
0
LINE
8
BLACK
6
CONTINUOUS
10
201.6200000000000045
20
-86.0499999999999972
11
201.6390299999999911
21
-85.9543290000000013
0
LINE
8
BLACK
6
CONTINUOUS
10
201.6390299999999911
20
-85.9543290000000013
11
201.693222999999989
21
-85.8732229999999959
0
LINE
8
BLACK
6
CONTINUOUS
10
201.693222999999989
20
-85.8732229999999959
11
201.7743289999999945
21
-85.8190299999999979
0
LINE
8
BLACK
6
CONTINUOUS
10
201.7743289999999945
20
-85.8190299999999979
11
201.8700000000000045
21
-85.7999999999999972
0
LINE
8
BLACK
6
CONTINUOUS
10
201.8700000000000045
20
-85.7999999999999972
11
202.7699999999999818
21
-85.7999999999999972
0
LINE
8
BLACK
6
CONTINUOUS
10
202.7699999999999818
20
-85.7999999999999972
11
202.8656709999999919
21
-85.8190299999999979
0
LINE
8
BLACK
6
CONTINUOUS
10
205.8206710000000044
20
-85.8190299999999979
11
205.9017769999999814
21
-85.8732229999999959
0
LINE
8
BLACK
6
CONTINUOUS
10
205.9017769999999814
20
-85.8732229999999959
11
205.9559699999999793
21
-85.9543290000000013
0
LINE
8
BLACK
6
CONTINUOUS
10
205.9559699999999793
20
-85.9543290000000013
11
205.9749999999999943
21
-86.0499999999999972
0
LINE
8
BLACK
6
CONTINUOUS
10
205.9749999999999943
20
-86.0499999999999972
11
205.9749999999999943
21
-86.75
0
LINE
8
BLACK
6
CONTINUOUS
10
205.9749999999999943
20
-86.75
11
205.9559699999999793
21
-86.8456709999999958
0
LINE
8
BLACK
6
CONTINUOUS
10
205.9559699999999793
20
-86.8456709999999958
11
205.9017769999999814
21
-86.9267770000000013
0
LINE
8
BLACK
6
CONTINUOUS
10
205.9017769999999814
20
-86.9267770000000013
11
205.8206710000000044
21
-86.9809699999999992
0
LINE
8
BLACK
6
CONTINUOUS
10
205.8206710000000044
20
-86.9809699999999992
11
205.7249999999999943
21
-87.
0
LINE
8
BLACK
6
CONTINUOUS
10
205.7249999999999943
20
-87.
11
204.8249999999999886
21
-87.
0
LINE
8
BLACK
6
CONTINUOUS
10
204.8249999999999886
20
-87.
11
204.7293289999999786
21
-86.9809699999999992
0
LINE
8
BLACK
6
CONTINUOUS
10
204.7293289999999786
20
-86.9809699999999992
11
204.6482230000000015
21
-86.9267770000000013
0
LINE
8
BLACK
6
CONTINUOUS
10
204.6482230000000015
20
-86.9267770000000013
11
204.5940300000000036
21
-86.8456709999999958
0
LINE
8
BLACK
6
CONTINUOUS
10
204.5940300000000036
20
-86.8456709999999958
11
204.5749999999999886
21
-86.75
0
LINE
8
BLACK
6
CONTINUOUS
10
204.5749999999999886
20
-86.75
11
204.5749999999999886
21
-86.0499999999999972
0
LINE
8
BLACK
6
CONTINUOUS
10
204.5749999999999886
20
-86.0499999999999972
11
204.5940300000000036
21
-85.9543290000000013
0
LINE
8
BLACK
6
CONTINUOUS
10
204.5940300000000036
20
-85.9543290000000013
11
204.6482230000000015
21
-85.8732229999999959
0
LINE
8
BLACK
6
CONTINUOUS
10
204.6482230000000015
20
-85.8732229999999959
11
204.7293289999999786
21
-85.8190299999999979
0
LINE
8
BLACK
6
CONTINUOUS
10
204.7293289999999786
20
-85.8190299999999979
11
204.8249999999999886
21
-85.7999999999999972
0
LINE
8
BLACK
6
CONTINUOUS
10
204.8249999999999886
20
-85.7999999999999972
11
205.7249999999999943
21
-85.7999999999999972
0
LINE
8
BLACK
6
CONTINUOUS
10
205.7249999999999943
20
-85.7999999999999972
11
205.8206710000000044
21
-85.8190299999999979
0
LINE
8
BLACK
6
CONTINUOUS
10
208.7806709999999839
20
-85.8190299999999979
11
208.8617769999999894
21
-85.8732229999999959
0
LINE
8
BLACK
6
CONTINUOUS
10
208.8617769999999894
20
-85.8732229999999959
11
208.9159699999999873
21
-85.9543290000000013
0
LINE
8
BLACK
6
CONTINUOUS
10
208.9159699999999873
20
-85.9543290000000013
11
208.9350000000000023
21
-86.0499999999999972
0
LINE
8
BLACK
6
CONTINUOUS
10
208.9350000000000023
20
-86.0499999999999972
11
208.9350000000000023
21
-86.75
0
LINE
8
BLACK
6
CONTINUOUS
10
208.9350000000000023
20
-86.75
11
208.9159699999999873
21
-86.8456709999999958
0
LINE
8
BLACK
6
CONTINUOUS
10
208.9159699999999873
20
-86.8456709999999958
11
208.8617769999999894
21
-86.9267770000000013
0
LINE
8
BLACK
6
CONTINUOUS
10
208.8617769999999894
20
-86.9267770000000013
11
208.7806709999999839
21
-86.9809699999999992
0
LINE
8
BLACK
6
CONTINUOUS
10
208.7806709999999839
20
-86.9809699999999992
11
208.6850000000000023
21
-87.
0
LINE
8
BLACK
6
CONTINUOUS
10
208.6850000000000023
20
-87.
11
207.7849999999999966
21
-87.
0
LINE
8
BLACK
6
CONTINUOUS
10
207.7849999999999966
20
-87.
11
207.6893289999999865
21
-86.9809699999999992
0
LINE
8
BLACK
6
CONTINUOUS
10
207.6893289999999865
20
-86.9809699999999992
11
207.6082229999999811
21
-86.9267770000000013
0
LINE
8
BLACK
6
CONTINUOUS
10
207.6082229999999811
20
-86.9267770000000013
11
207.5540299999999831
21
-86.8456709999999958
0
LINE
8
BLACK
6
CONTINUOUS
10
207.5540299999999831
20
-86.8456709999999958
11
207.5349999999999966
21
-86.75
0
LINE
8
BLACK
6
CONTINUOUS
10
207.5349999999999966
20
-86.75
11
207.5349999999999966
21
-86.0499999999999972
0
LINE
8
BLACK
6
CONTINUOUS
10
207.5349999999999966
20
-86.0499999999999972
11
207.5540299999999831
21
-85.9543290000000013
0
LINE
8
BLACK
6
CONTINUOUS
10
207.5540299999999831
20
-85.9543290000000013
11
207.6082229999999811
21
-85.8732229999999959
0
LINE
8
BLACK
6
CONTINUOUS
10
207.6082229999999811
20
-85.8732229999999959
11
207.6893289999999865
21
-85.8190299999999979
0
LINE
8
BLACK
6
CONTINUOUS
10
207.6893289999999865
20
-85.8190299999999979
11
207.7849999999999966
21
-85.7999999999999972
0
LINE
8
BLACK
6
CONTINUOUS
10
207.7849999999999966
20
-85.7999999999999972
11
208.6850000000000023
21
-85.7999999999999972
0
LINE
8
BLACK
6
CONTINUOUS
10
208.6850000000000023
20
-85.7999999999999972
11
208.7806709999999839
21
-85.8190299999999979
0
LINE
8
BLACK
6
CONTINUOUS
10
195.
20
-85.875
11
193.4499999999999886
21
-85.875
0
LINE
8
BLACK
6
CONTINUOUS
10
193.4499999999999886
20
-85.875
11
193.4499999999999886
21
-84.875
0
LINE
8
BLACK
6
CONTINUOUS
10
193.4499999999999886
20
-84.875
11
195.
21
-84.875
0
LINE
8
BLACK
6
CONTINUOUS
10
195.
20
-84.875
11
195.
21
-85.875
0
LINE
8
BLACK
6
CONTINUOUS
10
200.25
20
-85.875
11
198.6999999999999886
21
-85.875
0
LINE
8
BLACK
6
CONTINUOUS
10
198.6999999999999886
20
-85.875
11
198.6999999999999886
21
-84.875
0
LINE
8
BLACK
6
CONTINUOUS
10
198.6999999999999886
20
-84.875
11
200.25
21
-84.875
0
LINE
8
BLACK
6
CONTINUOUS
10
200.25
20
-84.875
11
200.25
21
-85.875
0
LINE
8
BLACK
6
CONTINUOUS
10
211.8449999999999989
20
-85.875
11
210.2949999999999875
21
-85.875
0
LINE
8
BLACK
6
CONTINUOUS
10
210.2949999999999875
20
-85.875
11
210.2949999999999875
21
-84.875
0
LINE
8
BLACK
6
CONTINUOUS
10
210.2949999999999875
20
-84.875
11
211.8449999999999989
21
-84.875
0
LINE
8
BLACK
6
CONTINUOUS
10
211.8449999999999989
20
-84.875
11
211.8449999999999989
21
-85.875
0
LINE
8
BLACK
6
CONTINUOUS
10
217.0949999999999989
20
-85.875
11
215.5449999999999875
21
-85.875
0
LINE
8
BLACK
6
CONTINUOUS
10
215.5449999999999875
20
-85.875
11
215.5449999999999875
21
-84.875
0
LINE
8
BLACK
6
CONTINUOUS
10
215.5449999999999875
20
-84.875
11
217.0949999999999989
21
-84.875
0
LINE
8
BLACK
6
CONTINUOUS
10
217.0949999999999989
20
-84.875
11
217.0949999999999989
21
-85.875
0
LINE
8
BLACK
6
CONTINUOUS
10
228.6499999999999773
20
-85.875
11
227.0999999999999943
21
-85.875
0
LINE
8
BLACK
6
CONTINUOUS
10
227.0999999999999943
20
-85.875
11
227.0999999999999943
21
-84.875
0
LINE
8
BLACK
6
CONTINUOUS
10
227.0999999999999943
20
-84.875
11
228.6499999999999773
21
-84.875
0
LINE
8
BLACK
6
CONTINUOUS
10
228.6499999999999773
20
-84.875
11
228.6499999999999773
21
-85.875
0
LINE
8
BLACK
6
CONTINUOUS
10
233.8999999999999773
20
-85.875
11
232.3499999999999943
21
-85.875
0
LINE
8
BLACK
6
CONTINUOUS
10
232.3499999999999943
20
-85.875
11
232.3499999999999943
21
-84.875
0
LINE
8
BLACK
6
CONTINUOUS
10
232.3499999999999943
20
-84.875
11
233.8999999999999773
21
-84.875
0
LINE
8
BLACK
6
CONTINUOUS
10
233.8999999999999773
20
-84.875
11
233.8999999999999773
21
-85.875
0
LINE
8
BLACK
6
CONTINUOUS
10
245.4499999999999886
20
-85.875
11
243.8999999999999773
21
-85.875
0
LINE
8
BLACK
6
CONTINUOUS
10
243.8999999999999773
20
-85.875
11
243.8999999999999773
21
-84.875
0
LINE
8
BLACK
6
CONTINUOUS
10
243.8999999999999773
20
-84.875
11
245.4499999999999886
21
-84.875
0
LINE
8
BLACK
6
CONTINUOUS
10
245.4499999999999886
20
-84.875
11
245.4499999999999886
21
-85.875
0
LINE
8
BLACK
6
CONTINUOUS
10
250.6999999999999886
20
-85.875
11
249.1499999999999773
21
-85.875
0
LINE
8
BLACK
6
CONTINUOUS
10
249.1499999999999773
20
-85.875
11
249.1499999999999773
21
-84.875
0
LINE
8
BLACK
6
CONTINUOUS
10
249.1499999999999773
20
-84.875
11
250.6999999999999886
21
-84.875
0
LINE
8
BLACK
6
CONTINUOUS
10
250.6999999999999886
20
-84.875
11
250.6999999999999886
21
-85.875
0
LINE
8
BLACK
6
CONTINUOUS
10
202.8656709999999919
20
-83.8190299999999979
11
202.9467769999999973
21
-83.8732229999999959
0
LINE
8
BLACK
6
CONTINUOUS
10
202.9467769999999973
20
-83.8732229999999959
11
203.0009699999999953
21
-83.9543290000000013
0
LINE
8
BLACK
6
CONTINUOUS
10
203.0009699999999953
20
-83.9543290000000013
11
203.0199999999999818
21
-84.0499999999999972
0
LINE
8
BLACK
6
CONTINUOUS
10
203.0199999999999818
20
-84.0499999999999972
11
203.0199999999999818
21
-84.75
0
LINE
8
BLACK
6
CONTINUOUS
10
203.0199999999999818
20
-84.75
11
203.0009699999999953
21
-84.8456709999999958
0
LINE
8
BLACK
6
CONTINUOUS
10
203.0009699999999953
20
-84.8456709999999958
11
202.9467769999999973
21
-84.9267770000000013
0
LINE
8
BLACK
6
CONTINUOUS
10
202.9467769999999973
20
-84.9267770000000013
11
202.8656709999999919
21
-84.9809699999999992
0
LINE
8
BLACK
6
CONTINUOUS
10
202.8656709999999919
20
-84.9809699999999992
11
202.7699999999999818
21
-85.
0
LINE
8
BLACK
6
CONTINUOUS
10
202.7699999999999818
20
-85.
11
201.8700000000000045
21
-85.
0
LINE
8
BLACK
6
CONTINUOUS
10
201.8700000000000045
20
-85.
11
201.7743289999999945
21
-84.9809699999999992
0
LINE
8
BLACK
6
CONTINUOUS
10
201.7743289999999945
20
-84.9809699999999992
11
201.693222999999989
21
-84.9267770000000013
0
LINE
8
BLACK
6
CONTINUOUS
10
201.693222999999989
20
-84.9267770000000013
11
201.6390299999999911
21
-84.8456709999999958
0
LINE
8
BLACK
6
CONTINUOUS
10
201.6390299999999911
20
-84.8456709999999958
11
201.6200000000000045
21
-84.75
0
LINE
8
BLACK
6
CONTINUOUS
10
201.6200000000000045
20
-84.75
11
201.6200000000000045
21
-84.0499999999999972
0
LINE
8
BLACK
6
CONTINUOUS
10
201.6200000000000045
20
-84.0499999999999972
11
201.6390299999999911
21
-83.9543290000000013
0
LINE
8
BLACK
6
CONTINUOUS
10
201.6390299999999911
20
-83.9543290000000013
11
201.693222999999989
21
-83.8732229999999959
0
LINE
8
BLACK
6
CONTINUOUS
10
201.693222999999989
20
-83.8732229999999959
11
201.7743289999999945
21
-83.8190299999999979
0
LINE
8
BLACK
6
CONTINUOUS
10
201.7743289999999945
20
-83.8190299999999979
11
201.8700000000000045
21
-83.7999999999999972
0
LINE
8
BLACK
6
CONTINUOUS
10
201.8700000000000045
20
-83.7999999999999972
11
202.7699999999999818
21
-83.7999999999999972
0
LINE
8
BLACK
6
CONTINUOUS
10
202.7699999999999818
20
-83.7999999999999972
11
202.8656709999999919
21
-83.8190299999999979
0
LINE
8
BLACK
6
CONTINUOUS
10
205.8206710000000044
20
-83.8190299999999979
11
205.9017769999999814
21
-83.8732229999999959
0
LINE
8
BLACK
6
CONTINUOUS
10
205.9017769999999814
20
-83.8732229999999959
11
205.9559699999999793
21
-83.9543290000000013
0
LINE
8
BLACK
6
CONTINUOUS
10
205.9559699999999793
20
-83.9543290000000013
11
205.9749999999999943
21
-84.0499999999999972
0
LINE
8
BLACK
6
CONTINUOUS
10
205.9749999999999943
20
-84.0499999999999972
11
205.9749999999999943
21
-84.75
0
LINE
8
BLACK
6
CONTINUOUS
10
205.9749999999999943
20
-84.75
11
205.9559699999999793
21
-84.8456709999999958
0
LINE
8
BLACK
6
CONTINUOUS
10
205.9559699999999793
20
-84.8456709999999958
11
205.9017769999999814
21
-84.9267770000000013
0
LINE
8
BLACK
6
CONTINUOUS
10
205.9017769999999814
20
-84.9267770000000013
11
205.8206710000000044
21
-84.9809699999999992
0
LINE
8
BLACK
6
CONTINUOUS
10
205.8206710000000044
20
-84.9809699999999992
11
205.7249999999999943
21
-85.
0
LINE
8
BLACK
6
CONTINUOUS
10
205.7249999999999943
20
-85.
11
204.8249999999999886
21
-85.
0
LINE
8
BLACK
6
CONTINUOUS
10
204.8249999999999886
20
-85.
11
204.7293289999999786
21
-84.9809699999999992
0
LINE
8
BLACK
6
CONTINUOUS
10
204.7293289999999786
20
-84.9809699999999992
11
204.6482230000000015
21
-84.9267770000000013
0
LINE
8
BLACK
6
CONTINUOUS
10
204.6482230000000015
20
-84.9267770000000013
11
204.5940300000000036
21
-84.8456709999999958
0
LINE
8
BLACK
6
CONTINUOUS
10
204.5940300000000036
20
-84.8456709999999958
11
204.5749999999999886
21
-84.75
0
LINE
8
BLACK
6
CONTINUOUS
10
204.5749999999999886
20
-84.75
11
204.5749999999999886
21
-84.0499999999999972
0
LINE
8
BLACK
6
CONTINUOUS
10
204.5749999999999886
20
-84.0499999999999972
11
204.5940300000000036
21
-83.9543290000000013
0
LINE
8
BLACK
6
CONTINUOUS
10
204.5940300000000036
20
-83.9543290000000013
11
204.6482230000000015
21
-83.8732229999999959
0
LINE
8
BLACK
6
CONTINUOUS
10
204.6482230000000015
20
-83.8732229999999959
11
204.7293289999999786
21
-83.8190299999999979
0
LINE
8
BLACK
6
CONTINUOUS
10
204.7293289999999786
20
-83.8190299999999979
11
204.8249999999999886
21
-83.7999999999999972
0
LINE
8
BLACK
6
CONTINUOUS
10
204.8249999999999886
20
-83.7999999999999972
11
205.7249999999999943
21
-83.7999999999999972
0
LINE
8
BLACK
6
CONTINUOUS
10
205.7249999999999943
20
-83.7999999999999972
11
205.8206710000000044
21
-83.8190299999999979
0
LINE
8
BLACK
6
CONTINUOUS
10
208.7806709999999839
20
-83.8190299999999979
11
208.8617769999999894
21
-83.8732229999999959
0
LINE
8
BLACK
6
CONTINUOUS
10
208.8617769999999894
20
-83.8732229999999959
11
208.9159699999999873
21
-83.9543290000000013
0
LINE
8
BLACK
6
CONTINUOUS
10
208.9159699999999873
20
-83.9543290000000013
11
208.9350000000000023
21
-84.0499999999999972
0
LINE
8
BLACK
6
CONTINUOUS
10
208.9350000000000023
20
-84.0499999999999972
11
208.9350000000000023
21
-84.75
0
LINE
8
BLACK
6
CONTINUOUS
10
208.9350000000000023
20
-84.75
11
208.9159699999999873
21
-84.8456709999999958
0
LINE
8
BLACK
6
CONTINUOUS
10
208.9159699999999873
20
-84.8456709999999958
11
208.8617769999999894
21
-84.9267770000000013
0
LINE
8
BLACK
6
CONTINUOUS
10
208.8617769999999894
20
-84.9267770000000013
11
208.7806709999999839
21
-84.9809699999999992
0
LINE
8
BLACK
6
CONTINUOUS
10
208.7806709999999839
20
-84.9809699999999992
11
208.6850000000000023
21
-85.
0
LINE
8
BLACK
6
CONTINUOUS
10
208.6850000000000023
20
-85.
11
207.7849999999999966
21
-85.
0
LINE
8
BLACK
6
CONTINUOUS
10
207.7849999999999966
20
-85.
11
207.6893289999999865
21
-84.9809699999999992
0
LINE
8
BLACK
6
CONTINUOUS
10
207.6893289999999865
20
-84.9809699999999992
11
207.6082229999999811
21
-84.9267770000000013
0
LINE
8
BLACK
6
CONTINUOUS
10
207.6082229999999811
20
-84.9267770000000013
11
207.5540299999999831
21
-84.8456709999999958
0
LINE
8
BLACK
6
CONTINUOUS
10
207.5540299999999831
20
-84.8456709999999958
11
207.5349999999999966
21
-84.75
0
LINE
8
BLACK
6
CONTINUOUS
10
207.5349999999999966
20
-84.75
11
207.5349999999999966
21
-84.0499999999999972
0
LINE
8
BLACK
6
CONTINUOUS
10
207.5349999999999966
20
-84.0499999999999972
11
207.5540299999999831
21
-83.9543290000000013
0
LINE
8
BLACK
6
CONTINUOUS
10
207.5540299999999831
20
-83.9543290000000013
11
207.6082229999999811
21
-83.8732229999999959
0
LINE
8
BLACK
6
CONTINUOUS
10
207.6082229999999811
20
-83.8732229999999959
11
207.6893289999999865
21
-83.8190299999999979
0
LINE
8
BLACK
6
CONTINUOUS
10
207.6893289999999865
20
-83.8190299999999979
11
207.7849999999999966
21
-83.7999999999999972
0
LINE
8
BLACK
6
CONTINUOUS
10
207.7849999999999966
20
-83.7999999999999972
11
208.6850000000000023
21
-83.7999999999999972
0
LINE
8
BLACK
6
CONTINUOUS
10
208.6850000000000023
20
-83.7999999999999972
11
208.7806709999999839
21
-83.8190299999999979
0
LINE
8
BLACK
6
CONTINUOUS
10
195.
20
-84.1749999999999972
11
193.4499999999999886
21
-84.1749999999999972
0
LINE
8
BLACK
6
CONTINUOUS
10
193.4499999999999886
20
-84.1749999999999972
11
193.4499999999999886
21
-83.1749999999999972
0
LINE
8
BLACK
6
CONTINUOUS
10
193.4499999999999886
20
-83.1749999999999972
11
195.
21
-83.1749999999999972
0
LINE
8
BLACK
6
CONTINUOUS
10
195.
20
-83.1749999999999972
11
195.
21
-84.1749999999999972
0
LINE
8
BLACK
6
CONTINUOUS
10
200.25
20
-84.1749999999999972
11
198.6999999999999886
21
-84.1749999999999972
0
LINE
8
BLACK
6
CONTINUOUS
10
198.6999999999999886
20
-84.1749999999999972
11
198.6999999999999886
21
-83.1749999999999972
0
LINE
8
BLACK
6
CONTINUOUS
10
198.6999999999999886
20
-83.1749999999999972
11
200.25
21
-83.1749999999999972
0
LINE
8
BLACK
6
CONTINUOUS
10
200.25
20
-83.1749999999999972
11
200.25
21
-84.1749999999999972
0
LINE
8
BLACK
6
CONTINUOUS
10
211.8449999999999989
20
-84.1749999999999972
11
210.2949999999999875
21
-84.1749999999999972
0
LINE
8
BLACK
6
CONTINUOUS
10
210.2949999999999875
20
-84.1749999999999972
11
210.2949999999999875
21
-83.1749999999999972
0
LINE
8
BLACK
6
CONTINUOUS
10
210.2949999999999875
20
-83.1749999999999972
11
211.8449999999999989
21
-83.1749999999999972
0
LINE
8
BLACK
6
CONTINUOUS
10
211.8449999999999989
20
-83.1749999999999972
11
211.8449999999999989
21
-84.1749999999999972
0
LINE
8
BLACK
6
CONTINUOUS
10
217.0949999999999989
20
-84.1749999999999972
11
215.5449999999999875
21
-84.1749999999999972
0
LINE
8
BLACK
6
CONTINUOUS
10
215.5449999999999875
20
-84.1749999999999972
11
215.5449999999999875
21
-83.1749999999999972
0
LINE
8
BLACK
6
CONTINUOUS
10
215.5449999999999875
20
-83.1749999999999972
11
217.0949999999999989
21
-83.1749999999999972
0
LINE
8
BLACK
6
CONTINUOUS
10
217.0949999999999989
20
-83.1749999999999972
11
217.0949999999999989
21
-84.1749999999999972
0
LINE
8
BLACK
6
CONTINUOUS
10
228.6499999999999773
20
-84.1749999999999972
11
227.0999999999999943
21
-84.1749999999999972
0
LINE
8
BLACK
6
CONTINUOUS
10
227.0999999999999943
20
-84.1749999999999972
11
227.0999999999999943
21
-83.1749999999999972
0
LINE
8
BLACK
6
CONTINUOUS
10
227.0999999999999943
20
-83.1749999999999972
11
228.6499999999999773
21
-83.1749999999999972
0
LINE
8
BLACK
6
CONTINUOUS
10
228.6499999999999773
20
-83.1749999999999972
11
228.6499999999999773
21
-84.1749999999999972
0
LINE
8
BLACK
6
CONTINUOUS
10
233.8999999999999773
20
-84.1749999999999972
11
232.3499999999999943
21
-84.1749999999999972
0
LINE
8
BLACK
6
CONTINUOUS
10
232.3499999999999943
20
-84.1749999999999972
11
232.3499999999999943
21
-83.1749999999999972
0
LINE
8
BLACK
6
CONTINUOUS
10
232.3499999999999943
20
-83.1749999999999972
11
233.8999999999999773
21
-83.1749999999999972
0
LINE
8
BLACK
6
CONTINUOUS
10
233.8999999999999773
20
-83.1749999999999972
11
233.8999999999999773
21
-84.1749999999999972
0
LINE
8
BLACK
6
CONTINUOUS
10
245.4499999999999886
20
-84.1749999999999972
11
243.8999999999999773
21
-84.1749999999999972
0
LINE
8
BLACK
6
CONTINUOUS
10
243.8999999999999773
20
-84.1749999999999972
11
243.8999999999999773
21
-83.1749999999999972
0
LINE
8
BLACK
6
CONTINUOUS
10
243.8999999999999773
20
-83.1749999999999972
11
245.4499999999999886
21
-83.1749999999999972
0
LINE
8
BLACK
6
CONTINUOUS
10
245.4499999999999886
20
-83.1749999999999972
11
245.4499999999999886
21
-84.1749999999999972
0
LINE
8
BLACK
6
CONTINUOUS
10
250.6999999999999886
20
-84.1749999999999972
11
249.1499999999999773
21
-84.1749999999999972
0
LINE
8
BLACK
6
CONTINUOUS
10
249.1499999999999773
20
-84.1749999999999972
11
249.1499999999999773
21
-83.1749999999999972
0
LINE
8
BLACK
6
CONTINUOUS
10
249.1499999999999773
20
-83.1749999999999972
11
250.6999999999999886
21
-83.1749999999999972
0
LINE
8
BLACK
6
CONTINUOUS
10
250.6999999999999886
20
-83.1749999999999972
11
250.6999999999999886
21
-84.1749999999999972
  0
ENDSEC
  0
EOF
